<?xml version="1.0" encoding="UTF-8"?><svg xmlns="http://www.w3.org/2000/svg" xmlns:xlink="http://www.w3.org/1999/xlink" contentScriptType="text/ecmascript" width="375pt" zoomAndPan="magnify" contentStyleType="text/css" viewBox="0 0 375 374.999991" height="374.999991pt" preserveAspectRatio="xMidYMid meet" version="1.2"><defs><g/><clipPath xml:id="clip1" id="clip1"><path d="M 71.921875 80.058594 L 307.421875 80.058594 L 307.421875 254.058594 L 71.921875 254.058594 Z M 71.921875 80.058594 "/></clipPath><clipPath xml:id="clip2" id="clip2"><path d="M 142.742188 101.148438 L 231.992188 101.148438 L 231.992188 149.148438 L 142.742188 149.148438 Z M 142.742188 101.148438 "/></clipPath></defs><g xml:id="surface1" id="surface1"><rect x="0" width="375" y="0" height="374.999991" style="fill:rgb(100%,100%,100%);fill-opacity:1;stroke:none;"/><rect x="0" width="375" y="0" height="374.999991" style="fill:rgb(100%,100%,100%);fill-opacity:1;stroke:none;"/><rect x="0" width="375" y="0" height="374.999991" style="fill:rgb(0%,0%,0%);fill-opacity:1;stroke:none;"/><g clip-rule="nonzero" clip-path="url(#clip1)"><path style=" stroke:none;fill-rule:nonzero;fill:rgb(100%,100%,100%);fill-opacity:1;" d="M 71.921875 80.058594 L 307.421875 80.058594 L 307.421875 254.058594 L 71.921875 254.058594 Z M 71.921875 80.058594 "/></g><g style="fill:rgb(0%,0%,0%);fill-opacity:1;"><g transform="translate(116.784497, 197.153176)"><path style="stroke:none;" d="M 9.03125 -22.921875 C 10.132812 -22.921875 11.015625 -22.816406 11.671875 -22.609375 C 12.328125 -22.398438 12.992188 -22.09375 13.671875 -21.6875 C 13.898438 -21.5625 14.101562 -21.453125 14.28125 -21.359375 C 14.46875 -21.273438 14.625 -21.234375 14.75 -21.234375 C 14.945312 -21.234375 15.097656 -21.34375 15.203125 -21.5625 C 15.304688 -21.789062 15.390625 -22.148438 15.453125 -22.640625 L 16.1875 -22.640625 C 16.082031 -21.222656 16.03125 -18.804688 16.03125 -15.390625 L 15.296875 -15.390625 C 15.210938 -16.535156 14.953125 -17.625 14.515625 -18.65625 C 14.078125 -19.695312 13.460938 -20.539062 12.671875 -21.1875 C 11.878906 -21.832031 10.953125 -22.15625 9.890625 -22.15625 C 8.847656 -22.15625 8.003906 -21.863281 7.359375 -21.28125 C 6.710938 -20.695312 6.390625 -19.910156 6.390625 -18.921875 C 6.390625 -18.179688 6.546875 -17.535156 6.859375 -16.984375 C 7.179688 -16.429688 7.628906 -15.925781 8.203125 -15.46875 C 8.773438 -15.007812 9.65625 -14.390625 10.84375 -13.609375 L 11.859375 -12.90625 C 13.109375 -12.082031 14.09375 -11.363281 14.8125 -10.75 C 15.539062 -10.132812 16.128906 -9.414062 16.578125 -8.59375 C 17.035156 -7.78125 17.265625 -6.832031 17.265625 -5.75 C 17.265625 -4.394531 16.914062 -3.253906 16.21875 -2.328125 C 15.519531 -1.410156 14.570312 -0.71875 13.375 -0.25 C 12.175781 0.207031 10.84375 0.4375 9.375 0.4375 C 8.1875 0.4375 7.203125 0.332031 6.421875 0.125 C 5.640625 -0.0820312 4.921875 -0.367188 4.265625 -0.734375 C 3.796875 -1.023438 3.4375 -1.171875 3.1875 -1.171875 C 2.988281 -1.171875 2.835938 -1.0625 2.734375 -0.84375 C 2.628906 -0.625 2.546875 -0.269531 2.484375 0.21875 L 1.75 0.21875 C 1.832031 -1.113281 1.875 -3.972656 1.875 -8.359375 L 2.609375 -8.359375 C 2.753906 -5.984375 3.28125 -4.054688 4.1875 -2.578125 C 5.101562 -1.109375 6.503906 -0.375 8.390625 -0.375 C 9.535156 -0.375 10.476562 -0.679688 11.21875 -1.296875 C 11.96875 -1.910156 12.34375 -2.789062 12.34375 -3.9375 C 12.34375 -5.125 11.957031 -6.140625 11.1875 -6.984375 C 10.425781 -7.835938 9.21875 -8.796875 7.5625 -9.859375 C 6.289062 -10.679688 5.273438 -11.398438 4.515625 -12.015625 C 3.753906 -12.628906 3.128906 -13.351562 2.640625 -14.1875 C 2.148438 -15.03125 1.90625 -16.003906 1.90625 -17.109375 C 1.90625 -18.378906 2.226562 -19.453125 2.875 -20.328125 C 3.519531 -21.210938 4.382812 -21.863281 5.46875 -22.28125 C 6.550781 -22.707031 7.738281 -22.921875 9.03125 -22.921875 Z M 9.03125 -22.921875 "/></g></g><g style="fill:rgb(0%,0%,0%);fill-opacity:1;"><g transform="translate(136.30561, 197.153176)"><path style="stroke:none;" d="M 12.625 -22.953125 C 13.894531 -22.953125 14.972656 -22.769531 15.859375 -22.40625 C 16.753906 -22.050781 17.625 -21.546875 18.46875 -20.890625 C 18.707031 -20.703125 18.910156 -20.609375 19.078125 -20.609375 C 19.503906 -20.609375 19.78125 -21.242188 19.90625 -22.515625 L 20.640625 -22.515625 C 20.554688 -21.066406 20.515625 -18.5 20.515625 -14.8125 L 19.78125 -14.8125 C 19.582031 -16.382812 19.320312 -17.582031 19 -18.40625 C 18.6875 -19.238281 18.148438 -19.960938 17.390625 -20.578125 C 16.859375 -21.078125 16.242188 -21.457031 15.546875 -21.71875 C 14.847656 -21.988281 14.117188 -22.125 13.359375 -22.125 C 11.210938 -22.125 9.617188 -21.078125 8.578125 -18.984375 C 7.546875 -16.898438 7.03125 -14.300781 7.03125 -11.1875 C 7.03125 -8.09375 7.566406 -5.503906 8.640625 -3.421875 C 9.722656 -1.347656 11.335938 -0.3125 13.484375 -0.3125 C 14.203125 -0.3125 14.914062 -0.441406 15.625 -0.703125 C 16.332031 -0.972656 16.929688 -1.363281 17.421875 -1.875 C 18.203125 -2.46875 18.742188 -3.207031 19.046875 -4.09375 C 19.359375 -4.988281 19.601562 -6.296875 19.78125 -8.015625 L 20.515625 -8.015625 C 20.515625 -4.171875 20.554688 -1.5 20.640625 0 L 19.90625 0 C 19.84375 -0.675781 19.75 -1.15625 19.625 -1.4375 C 19.507812 -1.726562 19.347656 -1.875 19.140625 -1.875 C 18.972656 -1.875 18.75 -1.789062 18.46875 -1.625 C 17.519531 -0.945312 16.609375 -0.429688 15.734375 -0.078125 C 14.867188 0.265625 13.820312 0.4375 12.59375 0.4375 C 10.34375 0.4375 8.375 -0.015625 6.6875 -0.921875 C 5.007812 -1.835938 3.703125 -3.15625 2.765625 -4.875 C 1.835938 -6.601562 1.375 -8.664062 1.375 -11.0625 C 1.375 -13.394531 1.847656 -15.460938 2.796875 -17.265625 C 3.753906 -19.066406 5.082031 -20.460938 6.78125 -21.453125 C 8.488281 -22.453125 10.4375 -22.953125 12.625 -22.953125 Z M 12.625 -22.953125 "/></g></g><g style="fill:rgb(0%,0%,0%);fill-opacity:1;"><g transform="translate(159.673666, 197.153176)"><path style="stroke:none;" d="M 11.09375 -21.875 C 10.332031 -21.832031 9.773438 -21.75 9.421875 -21.625 C 9.078125 -21.5 8.835938 -21.253906 8.703125 -20.890625 C 8.578125 -20.523438 8.515625 -19.941406 8.515625 -19.140625 L 8.515625 -2.984375 C 8.515625 -2.304688 8.566406 -1.8125 8.671875 -1.5 C 8.785156 -1.195312 8.972656 -0.992188 9.234375 -0.890625 C 9.503906 -0.785156 9.9375 -0.734375 10.53125 -0.734375 L 12.078125 -0.734375 C 13.523438 -0.734375 14.769531 -1.378906 15.8125 -2.671875 C 16.863281 -3.960938 17.550781 -5.679688 17.875 -7.828125 L 18.59375 -7.828125 C 18.53125 -7.097656 18.5 -6.164062 18.5 -5.03125 C 18.5 -2.988281 18.578125 -1.3125 18.734375 0 C 17.285156 -0.0625 14.859375 -0.09375 11.453125 -0.09375 C 6.828125 -0.09375 3.367188 -0.0625 1.078125 0 L 1.078125 -0.640625 C 1.773438 -0.679688 2.285156 -0.765625 2.609375 -0.890625 C 2.941406 -1.015625 3.164062 -1.253906 3.28125 -1.609375 C 3.40625 -1.972656 3.46875 -2.5625 3.46875 -3.375 L 3.46875 -19.140625 C 3.46875 -19.941406 3.40625 -20.523438 3.28125 -20.890625 C 3.164062 -21.253906 2.941406 -21.5 2.609375 -21.625 C 2.285156 -21.75 1.773438 -21.832031 1.078125 -21.875 L 1.078125 -22.515625 C 2.160156 -22.453125 3.835938 -22.421875 6.109375 -22.421875 C 8.265625 -22.421875 9.925781 -22.453125 11.09375 -22.515625 Z M 11.09375 -21.875 "/></g></g><g style="fill:rgb(0%,0%,0%);fill-opacity:1;"><g transform="translate(180.053189, 197.153176)"><path style="stroke:none;" d="M 18.5 -4.828125 C 18.5 -2.878906 18.578125 -1.269531 18.734375 0 C 17.285156 -0.0625 14.859375 -0.09375 11.453125 -0.09375 C 6.828125 -0.09375 3.367188 -0.0625 1.078125 0 L 1.078125 -0.640625 C 1.773438 -0.679688 2.285156 -0.765625 2.609375 -0.890625 C 2.941406 -1.015625 3.164062 -1.253906 3.28125 -1.609375 C 3.40625 -1.972656 3.46875 -2.5625 3.46875 -3.375 L 3.46875 -19.140625 C 3.46875 -19.941406 3.40625 -20.523438 3.28125 -20.890625 C 3.164062 -21.253906 2.941406 -21.5 2.609375 -21.625 C 2.285156 -21.75 1.773438 -21.832031 1.078125 -21.875 L 1.078125 -22.515625 C 3.367188 -22.453125 6.828125 -22.421875 11.453125 -22.421875 C 14.566406 -22.421875 16.78125 -22.453125 18.09375 -22.515625 C 17.945312 -20.753906 17.875 -19.1875 17.875 -17.8125 C 17.875 -16.875 17.90625 -16.148438 17.96875 -15.640625 L 17.234375 -15.640625 C 16.910156 -17.910156 16.335938 -19.5 15.515625 -20.40625 C 14.691406 -21.320312 13.523438 -21.78125 12.015625 -21.78125 L 10.71875 -21.78125 C 10.0625 -21.78125 9.582031 -21.726562 9.28125 -21.625 C 8.988281 -21.519531 8.785156 -21.3125 8.671875 -21 C 8.566406 -20.695312 8.515625 -20.203125 8.515625 -19.515625 L 8.515625 -11.640625 L 9.546875 -11.640625 C 10.660156 -11.640625 11.507812 -12.050781 12.09375 -12.875 C 12.675781 -13.707031 13.085938 -14.691406 13.328125 -15.828125 L 14.046875 -15.828125 C 13.984375 -14.941406 13.953125 -13.945312 13.953125 -12.84375 L 13.953125 -11.3125 C 13.953125 -10.238281 14.019531 -8.734375 14.15625 -6.796875 L 13.421875 -6.796875 C 12.972656 -9.597656 11.679688 -11 9.546875 -11 L 8.515625 -11 L 8.515625 -2.984375 C 8.515625 -2.304688 8.566406 -1.8125 8.671875 -1.5 C 8.785156 -1.195312 8.988281 -0.992188 9.28125 -0.890625 C 9.582031 -0.785156 10.0625 -0.734375 10.71875 -0.734375 L 12.28125 -0.734375 C 13.78125 -0.734375 14.988281 -1.242188 15.90625 -2.265625 C 16.832031 -3.296875 17.488281 -5.039062 17.875 -7.5 L 18.59375 -7.5 C 18.53125 -6.800781 18.5 -5.910156 18.5 -4.828125 Z M 18.5 -4.828125 "/></g></g><g style="fill:rgb(0%,0%,0%);fill-opacity:1;"><g transform="translate(201.159492, 197.153176)"><path style="stroke:none;" d="M 22.640625 -1.40625 C 22.066406 -0.738281 21.453125 -0.265625 20.796875 0.015625 C 20.140625 0.296875 19.34375 0.4375 18.40625 0.4375 C 17.175781 0.4375 16.207031 0.179688 15.5 -0.328125 C 14.789062 -0.847656 14.332031 -1.734375 14.125 -2.984375 L 13.546875 -6.171875 C 13.265625 -7.710938 12.925781 -8.847656 12.53125 -9.578125 C 12.144531 -10.316406 11.5 -10.6875 10.59375 -10.6875 L 8.515625 -10.6875 L 8.515625 -3.375 C 8.515625 -2.5625 8.570312 -1.972656 8.6875 -1.609375 C 8.8125 -1.253906 9.03125 -1.015625 9.34375 -0.890625 C 9.664062 -0.765625 10.1875 -0.679688 10.90625 -0.640625 L 10.90625 0 C 9.757812 -0.0625 8.160156 -0.09375 6.109375 -0.09375 C 3.835938 -0.09375 2.160156 -0.0625 1.078125 0 L 1.078125 -0.640625 C 1.773438 -0.679688 2.285156 -0.765625 2.609375 -0.890625 C 2.941406 -1.015625 3.164062 -1.253906 3.28125 -1.609375 C 3.40625 -1.972656 3.46875 -2.5625 3.46875 -3.375 L 3.46875 -19.140625 C 3.46875 -19.941406 3.40625 -20.523438 3.28125 -20.890625 C 3.164062 -21.253906 2.941406 -21.5 2.609375 -21.625 C 2.285156 -21.75 1.773438 -21.832031 1.078125 -21.875 L 1.078125 -22.515625 C 2.160156 -22.453125 3.773438 -22.421875 5.921875 -22.421875 L 9.4375 -22.453125 C 9.863281 -22.472656 10.351562 -22.484375 10.90625 -22.484375 C 13.832031 -22.484375 16.03125 -22.003906 17.5 -21.046875 C 18.976562 -20.097656 19.71875 -18.734375 19.71875 -16.953125 C 19.71875 -15.441406 19.164062 -14.113281 18.0625 -12.96875 C 16.957031 -11.820312 15.132812 -11.101562 12.59375 -10.8125 C 14.5 -10.644531 15.914062 -10.226562 16.84375 -9.5625 C 17.78125 -8.90625 18.390625 -7.921875 18.671875 -6.609375 L 19.390625 -3.34375 C 19.566406 -2.488281 19.765625 -1.890625 19.984375 -1.546875 C 20.203125 -1.210938 20.515625 -1.046875 20.921875 -1.046875 C 21.171875 -1.066406 21.382812 -1.128906 21.5625 -1.234375 C 21.75 -1.347656 21.957031 -1.53125 22.1875 -1.78125 Z M 10.5 -21.875 C 9.925781 -21.875 9.503906 -21.800781 9.234375 -21.65625 C 8.972656 -21.507812 8.785156 -21.242188 8.671875 -20.859375 C 8.566406 -20.472656 8.515625 -19.898438 8.515625 -19.140625 L 8.515625 -11.3125 L 9.890625 -11.3125 C 11.628906 -11.3125 12.820312 -11.773438 13.46875 -12.703125 C 14.113281 -13.628906 14.4375 -14.925781 14.4375 -16.59375 C 14.4375 -18.332031 14.128906 -19.644531 13.515625 -20.53125 C 12.898438 -21.425781 11.894531 -21.875 10.5 -21.875 Z M 10.5 -21.875 "/></g></g><g style="fill:rgb(0%,0%,0%);fill-opacity:1;"><g transform="translate(224.114244, 197.153176)"><path style="stroke:none;" d="M 19.421875 -2.671875 C 19.703125 -1.972656 20.019531 -1.460938 20.375 -1.140625 C 20.738281 -0.828125 21.09375 -0.660156 21.4375 -0.640625 L 21.4375 0 C 20.15625 -0.0625 18.539062 -0.09375 16.59375 -0.09375 C 14.4375 -0.09375 12.828125 -0.0625 11.765625 0 L 11.765625 -0.640625 C 12.566406 -0.679688 13.132812 -0.78125 13.46875 -0.9375 C 13.8125 -1.09375 13.984375 -1.375 13.984375 -1.78125 C 13.984375 -2.164062 13.859375 -2.675781 13.609375 -3.3125 L 11.703125 -8.515625 L 4.765625 -8.515625 L 3.9375 -6.328125 C 3.34375 -4.796875 3.046875 -3.617188 3.046875 -2.796875 C 3.046875 -2.015625 3.285156 -1.46875 3.765625 -1.15625 C 4.242188 -0.851562 4.945312 -0.679688 5.875 -0.640625 L 5.875 0 C 4.4375 -0.0625 3.125 -0.09375 1.9375 -0.09375 C 0.96875 -0.09375 0.160156 -0.0625 -0.484375 0 L -0.484375 -0.640625 C 0.554688 -0.828125 1.46875 -1.9375 2.25 -3.96875 L 9.5 -22.578125 C 9.738281 -22.554688 10.113281 -22.546875 10.625 -22.546875 C 11.132812 -22.546875 11.492188 -22.554688 11.703125 -22.578125 Z M 11.484375 -9.15625 L 8.328125 -17.75 L 5.03125 -9.15625 Z M 11.484375 -9.15625 "/></g></g><g style="fill:rgb(0%,0%,0%);fill-opacity:1;"><g transform="translate(246.27417, 197.153176)"><path style="stroke:none;" d=""/></g></g><g style="fill:rgb(0%,0%,0%);fill-opacity:1;"><g transform="translate(254.635956, 197.153176)"><path style="stroke:none;" d="M 5.4375 6.203125 L 2.640625 6.203125 L 2.640625 -27.28125 L 5.4375 -27.28125 Z M 5.4375 6.203125 "/></g></g><g style="fill:rgb(0%,0%,0%);fill-opacity:1;"><g transform="translate(120.370434, 232.403174)"><path style="stroke:none;" d="M 12.625 -22.953125 C 13.894531 -22.953125 14.972656 -22.769531 15.859375 -22.40625 C 16.753906 -22.050781 17.625 -21.546875 18.46875 -20.890625 C 18.707031 -20.703125 18.910156 -20.609375 19.078125 -20.609375 C 19.503906 -20.609375 19.78125 -21.242188 19.90625 -22.515625 L 20.640625 -22.515625 C 20.554688 -21.066406 20.515625 -18.5 20.515625 -14.8125 L 19.78125 -14.8125 C 19.582031 -16.382812 19.320312 -17.582031 19 -18.40625 C 18.6875 -19.238281 18.148438 -19.960938 17.390625 -20.578125 C 16.859375 -21.078125 16.242188 -21.457031 15.546875 -21.71875 C 14.847656 -21.988281 14.117188 -22.125 13.359375 -22.125 C 11.210938 -22.125 9.617188 -21.078125 8.578125 -18.984375 C 7.546875 -16.898438 7.03125 -14.300781 7.03125 -11.1875 C 7.03125 -8.09375 7.566406 -5.503906 8.640625 -3.421875 C 9.722656 -1.347656 11.335938 -0.3125 13.484375 -0.3125 C 14.203125 -0.3125 14.914062 -0.441406 15.625 -0.703125 C 16.332031 -0.972656 16.929688 -1.363281 17.421875 -1.875 C 18.203125 -2.46875 18.742188 -3.207031 19.046875 -4.09375 C 19.359375 -4.988281 19.601562 -6.296875 19.78125 -8.015625 L 20.515625 -8.015625 C 20.515625 -4.171875 20.554688 -1.5 20.640625 0 L 19.90625 0 C 19.84375 -0.675781 19.75 -1.15625 19.625 -1.4375 C 19.507812 -1.726562 19.347656 -1.875 19.140625 -1.875 C 18.972656 -1.875 18.75 -1.789062 18.46875 -1.625 C 17.519531 -0.945312 16.609375 -0.429688 15.734375 -0.078125 C 14.867188 0.265625 13.820312 0.4375 12.59375 0.4375 C 10.34375 0.4375 8.375 -0.015625 6.6875 -0.921875 C 5.007812 -1.835938 3.703125 -3.15625 2.765625 -4.875 C 1.835938 -6.601562 1.375 -8.664062 1.375 -11.0625 C 1.375 -13.394531 1.847656 -15.460938 2.796875 -17.265625 C 3.753906 -19.066406 5.082031 -20.460938 6.78125 -21.453125 C 8.488281 -22.453125 10.4375 -22.953125 12.625 -22.953125 Z M 12.625 -22.953125 "/></g></g><g style="fill:rgb(0%,0%,0%);fill-opacity:1;"><g transform="translate(143.73849, 232.403174)"><path style="stroke:none;" d="M 12.625 -22.953125 C 14.875 -22.953125 16.835938 -22.492188 18.515625 -21.578125 C 20.203125 -20.671875 21.507812 -19.351562 22.4375 -17.625 C 23.375 -15.90625 23.84375 -13.847656 23.84375 -11.453125 C 23.84375 -9.117188 23.363281 -7.050781 22.40625 -5.25 C 21.457031 -3.445312 20.128906 -2.046875 18.421875 -1.046875 C 16.710938 -0.0546875 14.769531 0.4375 12.59375 0.4375 C 10.34375 0.4375 8.375 -0.015625 6.6875 -0.921875 C 5.007812 -1.835938 3.703125 -3.15625 2.765625 -4.875 C 1.835938 -6.601562 1.375 -8.664062 1.375 -11.0625 C 1.375 -13.394531 1.847656 -15.460938 2.796875 -17.265625 C 3.753906 -19.066406 5.082031 -20.460938 6.78125 -21.453125 C 8.488281 -22.453125 10.4375 -22.953125 12.625 -22.953125 Z M 12.5 -22.390625 C 11.332031 -22.390625 10.300781 -21.914062 9.40625 -20.96875 C 8.519531 -20.03125 7.835938 -18.710938 7.359375 -17.015625 C 6.878906 -15.316406 6.640625 -13.375 6.640625 -11.1875 C 6.640625 -8.988281 6.910156 -7.050781 7.453125 -5.375 C 7.992188 -3.695312 8.722656 -2.398438 9.640625 -1.484375 C 10.566406 -0.578125 11.59375 -0.125 12.71875 -0.125 C 13.882812 -0.125 14.910156 -0.59375 15.796875 -1.53125 C 16.691406 -2.476562 17.375 -3.800781 17.84375 -5.5 C 18.320312 -7.195312 18.5625 -9.132812 18.5625 -11.3125 C 18.5625 -13.519531 18.289062 -15.460938 17.75 -17.140625 C 17.21875 -18.816406 16.488281 -20.109375 15.5625 -21.015625 C 14.644531 -21.929688 13.625 -22.390625 12.5 -22.390625 Z M 12.5 -22.390625 "/></g></g><g style="fill:rgb(0%,0%,0%);fill-opacity:1;"><g transform="translate(169.904329, 232.403174)"><path style="stroke:none;" d="M 22.640625 -1.40625 C 22.066406 -0.738281 21.453125 -0.265625 20.796875 0.015625 C 20.140625 0.296875 19.34375 0.4375 18.40625 0.4375 C 17.175781 0.4375 16.207031 0.179688 15.5 -0.328125 C 14.789062 -0.847656 14.332031 -1.734375 14.125 -2.984375 L 13.546875 -6.171875 C 13.265625 -7.710938 12.925781 -8.847656 12.53125 -9.578125 C 12.144531 -10.316406 11.5 -10.6875 10.59375 -10.6875 L 8.515625 -10.6875 L 8.515625 -3.375 C 8.515625 -2.5625 8.570312 -1.972656 8.6875 -1.609375 C 8.8125 -1.253906 9.03125 -1.015625 9.34375 -0.890625 C 9.664062 -0.765625 10.1875 -0.679688 10.90625 -0.640625 L 10.90625 0 C 9.757812 -0.0625 8.160156 -0.09375 6.109375 -0.09375 C 3.835938 -0.09375 2.160156 -0.0625 1.078125 0 L 1.078125 -0.640625 C 1.773438 -0.679688 2.285156 -0.765625 2.609375 -0.890625 C 2.941406 -1.015625 3.164062 -1.253906 3.28125 -1.609375 C 3.40625 -1.972656 3.46875 -2.5625 3.46875 -3.375 L 3.46875 -19.140625 C 3.46875 -19.941406 3.40625 -20.523438 3.28125 -20.890625 C 3.164062 -21.253906 2.941406 -21.5 2.609375 -21.625 C 2.285156 -21.75 1.773438 -21.832031 1.078125 -21.875 L 1.078125 -22.515625 C 2.160156 -22.453125 3.773438 -22.421875 5.921875 -22.421875 L 9.4375 -22.453125 C 9.863281 -22.472656 10.351562 -22.484375 10.90625 -22.484375 C 13.832031 -22.484375 16.03125 -22.003906 17.5 -21.046875 C 18.976562 -20.097656 19.71875 -18.734375 19.71875 -16.953125 C 19.71875 -15.441406 19.164062 -14.113281 18.0625 -12.96875 C 16.957031 -11.820312 15.132812 -11.101562 12.59375 -10.8125 C 14.5 -10.644531 15.914062 -10.226562 16.84375 -9.5625 C 17.78125 -8.90625 18.390625 -7.921875 18.671875 -6.609375 L 19.390625 -3.34375 C 19.566406 -2.488281 19.765625 -1.890625 19.984375 -1.546875 C 20.203125 -1.210938 20.515625 -1.046875 20.921875 -1.046875 C 21.171875 -1.066406 21.382812 -1.128906 21.5625 -1.234375 C 21.75 -1.347656 21.957031 -1.53125 22.1875 -1.78125 Z M 10.5 -21.875 C 9.925781 -21.875 9.503906 -21.800781 9.234375 -21.65625 C 8.972656 -21.507812 8.785156 -21.242188 8.671875 -20.859375 C 8.566406 -20.472656 8.515625 -19.898438 8.515625 -19.140625 L 8.515625 -11.3125 L 9.890625 -11.3125 C 11.628906 -11.3125 12.820312 -11.773438 13.46875 -12.703125 C 14.113281 -13.628906 14.4375 -14.925781 14.4375 -16.59375 C 14.4375 -18.332031 14.128906 -19.644531 13.515625 -20.53125 C 12.898438 -21.425781 11.894531 -21.875 10.5 -21.875 Z M 10.5 -21.875 "/></g></g><g style="fill:rgb(0%,0%,0%);fill-opacity:1;"><g transform="translate(192.859082, 232.403174)"><path style="stroke:none;" d="M 22.03125 -21.875 C 21.332031 -21.769531 20.816406 -21.585938 20.484375 -21.328125 C 20.160156 -21.078125 19.941406 -20.675781 19.828125 -20.125 C 19.710938 -19.570312 19.65625 -18.753906 19.65625 -17.671875 L 19.65625 0.0625 L 18.890625 0.03125 L 18.03125 0.0625 L 4.234375 -17.421875 L 4.234375 -5.21875 C 4.234375 -3.96875 4.296875 -3.050781 4.421875 -2.46875 C 4.546875 -1.882812 4.816406 -1.457031 5.234375 -1.1875 C 5.660156 -0.925781 6.351562 -0.742188 7.3125 -0.640625 L 7.3125 0 C 6.488281 -0.0625 5.34375 -0.09375 3.875 -0.09375 C 2.707031 -0.09375 1.785156 -0.0625 1.109375 0 L 1.109375 -0.640625 C 1.804688 -0.742188 2.316406 -0.921875 2.640625 -1.171875 C 2.972656 -1.429688 3.195312 -1.835938 3.3125 -2.390625 C 3.4375 -2.941406 3.5 -3.753906 3.5 -4.828125 L 3.5 -19.140625 C 3.5 -19.941406 3.4375 -20.523438 3.3125 -20.890625 C 3.195312 -21.253906 2.972656 -21.5 2.640625 -21.625 C 2.316406 -21.75 1.804688 -21.832031 1.109375 -21.875 L 1.109375 -22.515625 C 1.785156 -22.453125 2.707031 -22.421875 3.875 -22.421875 C 4.9375 -22.421875 5.847656 -22.453125 6.609375 -22.515625 L 18.921875 -7.34375 L 18.921875 -17.296875 C 18.921875 -18.546875 18.851562 -19.460938 18.71875 -20.046875 C 18.59375 -20.628906 18.316406 -21.050781 17.890625 -21.3125 C 17.472656 -21.582031 16.785156 -21.769531 15.828125 -21.875 L 15.828125 -22.515625 C 16.660156 -22.453125 17.804688 -22.421875 19.265625 -22.421875 C 20.453125 -22.421875 21.375 -22.453125 22.03125 -22.515625 Z M 22.03125 -21.875 "/></g></g><g style="fill:rgb(0%,0%,0%);fill-opacity:1;"><g transform="translate(216.767619, 232.403174)"><path style="stroke:none;" d="M 18.5 -4.828125 C 18.5 -2.878906 18.578125 -1.269531 18.734375 0 C 17.285156 -0.0625 14.859375 -0.09375 11.453125 -0.09375 C 6.828125 -0.09375 3.367188 -0.0625 1.078125 0 L 1.078125 -0.640625 C 1.773438 -0.679688 2.285156 -0.765625 2.609375 -0.890625 C 2.941406 -1.015625 3.164062 -1.253906 3.28125 -1.609375 C 3.40625 -1.972656 3.46875 -2.5625 3.46875 -3.375 L 3.46875 -19.140625 C 3.46875 -19.941406 3.40625 -20.523438 3.28125 -20.890625 C 3.164062 -21.253906 2.941406 -21.5 2.609375 -21.625 C 2.285156 -21.75 1.773438 -21.832031 1.078125 -21.875 L 1.078125 -22.515625 C 3.367188 -22.453125 6.828125 -22.421875 11.453125 -22.421875 C 14.566406 -22.421875 16.78125 -22.453125 18.09375 -22.515625 C 17.945312 -20.753906 17.875 -19.1875 17.875 -17.8125 C 17.875 -16.875 17.90625 -16.148438 17.96875 -15.640625 L 17.234375 -15.640625 C 16.910156 -17.910156 16.335938 -19.5 15.515625 -20.40625 C 14.691406 -21.320312 13.523438 -21.78125 12.015625 -21.78125 L 10.71875 -21.78125 C 10.0625 -21.78125 9.582031 -21.726562 9.28125 -21.625 C 8.988281 -21.519531 8.785156 -21.3125 8.671875 -21 C 8.566406 -20.695312 8.515625 -20.203125 8.515625 -19.515625 L 8.515625 -11.640625 L 9.546875 -11.640625 C 10.660156 -11.640625 11.507812 -12.050781 12.09375 -12.875 C 12.675781 -13.707031 13.085938 -14.691406 13.328125 -15.828125 L 14.046875 -15.828125 C 13.984375 -14.941406 13.953125 -13.945312 13.953125 -12.84375 L 13.953125 -11.3125 C 13.953125 -10.238281 14.019531 -8.734375 14.15625 -6.796875 L 13.421875 -6.796875 C 12.972656 -9.597656 11.679688 -11 9.546875 -11 L 8.515625 -11 L 8.515625 -2.984375 C 8.515625 -2.304688 8.566406 -1.8125 8.671875 -1.5 C 8.785156 -1.195312 8.988281 -0.992188 9.28125 -0.890625 C 9.582031 -0.785156 10.0625 -0.734375 10.71875 -0.734375 L 12.28125 -0.734375 C 13.78125 -0.734375 14.988281 -1.242188 15.90625 -2.265625 C 16.832031 -3.296875 17.488281 -5.039062 17.875 -7.5 L 18.59375 -7.5 C 18.53125 -6.800781 18.5 -5.910156 18.5 -4.828125 Z M 18.5 -4.828125 "/></g></g><g style="fill:rgb(0%,0%,0%);fill-opacity:1;"><g transform="translate(237.878374, 232.403174)"><path style="stroke:none;" d="M 19.421875 -2.671875 C 19.703125 -1.972656 20.019531 -1.460938 20.375 -1.140625 C 20.738281 -0.828125 21.09375 -0.660156 21.4375 -0.640625 L 21.4375 0 C 20.15625 -0.0625 18.539062 -0.09375 16.59375 -0.09375 C 14.4375 -0.09375 12.828125 -0.0625 11.765625 0 L 11.765625 -0.640625 C 12.566406 -0.679688 13.132812 -0.78125 13.46875 -0.9375 C 13.8125 -1.09375 13.984375 -1.375 13.984375 -1.78125 C 13.984375 -2.164062 13.859375 -2.675781 13.609375 -3.3125 L 11.703125 -8.515625 L 4.765625 -8.515625 L 3.9375 -6.328125 C 3.34375 -4.796875 3.046875 -3.617188 3.046875 -2.796875 C 3.046875 -2.015625 3.285156 -1.46875 3.765625 -1.15625 C 4.242188 -0.851562 4.945312 -0.679688 5.875 -0.640625 L 5.875 0 C 4.4375 -0.0625 3.125 -0.09375 1.9375 -0.09375 C 0.96875 -0.09375 0.160156 -0.0625 -0.484375 0 L -0.484375 -0.640625 C 0.554688 -0.828125 1.46875 -1.9375 2.25 -3.96875 L 9.5 -22.578125 C 9.738281 -22.554688 10.113281 -22.546875 10.625 -22.546875 C 11.132812 -22.546875 11.492188 -22.554688 11.703125 -22.578125 Z M 11.484375 -9.15625 L 8.328125 -17.75 L 5.03125 -9.15625 Z M 11.484375 -9.15625 "/></g></g><g style="fill:rgb(100%,100%,100%);fill-opacity:1;"><g transform="translate(150.075492, 284.120401)"><path style="stroke:none;" d="M 6.609375 -1.53125 C 6.609375 -1.070312 6.632812 -0.5625 6.6875 0 C 6.144531 -0.0195312 5.234375 -0.03125 3.953125 -0.03125 C 2.429688 -0.03125 1.28125 -0.0195312 0.5 0 L 0.5 -0.234375 C 0.789062 -0.253906 1 -0.285156 1.125 -0.328125 C 1.257812 -0.378906 1.347656 -0.472656 1.390625 -0.609375 C 1.441406 -0.742188 1.46875 -0.960938 1.46875 -1.265625 L 1.46875 -7.171875 C 1.46875 -7.472656 1.441406 -7.691406 1.390625 -7.828125 C 1.347656 -7.960938 1.257812 -8.050781 1.125 -8.09375 C 1 -8.144531 0.789062 -8.179688 0.5 -8.203125 L 0.5 -8.4375 C 1.28125 -8.414062 2.429688 -8.40625 3.953125 -8.40625 C 5.117188 -8.40625 5.953125 -8.414062 6.453125 -8.4375 C 6.390625 -7.914062 6.359375 -7.445312 6.359375 -7.03125 C 6.359375 -6.71875 6.375 -6.472656 6.40625 -6.296875 L 6.125 -6.296875 C 6.070312 -6.804688 6 -7.1875 5.90625 -7.4375 C 5.820312 -7.695312 5.675781 -7.882812 5.46875 -8 C 5.257812 -8.113281 4.945312 -8.171875 4.53125 -8.171875 L 3.546875 -8.171875 C 3.253906 -8.171875 3.039062 -8.144531 2.90625 -8.09375 C 2.78125 -8.050781 2.691406 -7.960938 2.640625 -7.828125 C 2.597656 -7.691406 2.578125 -7.472656 2.578125 -7.171875 L 2.578125 -4.359375 L 3.359375 -4.359375 C 3.640625 -4.359375 3.851562 -4.421875 4 -4.546875 C 4.15625 -4.679688 4.257812 -4.835938 4.3125 -5.015625 C 4.363281 -5.203125 4.40625 -5.429688 4.4375 -5.703125 L 4.46875 -5.9375 L 4.75 -5.9375 C 4.71875 -5.601562 4.703125 -5.226562 4.703125 -4.8125 L 4.703125 -4.25 C 4.703125 -3.84375 4.726562 -3.273438 4.78125 -2.546875 L 4.5 -2.546875 C 4.5 -2.609375 4.476562 -2.800781 4.4375 -3.125 C 4.394531 -3.457031 4.285156 -3.707031 4.109375 -3.875 C 3.929688 -4.039062 3.679688 -4.125 3.359375 -4.125 L 2.578125 -4.125 L 2.578125 -1.265625 C 2.578125 -0.960938 2.597656 -0.742188 2.640625 -0.609375 C 2.691406 -0.472656 2.78125 -0.382812 2.90625 -0.34375 C 3.039062 -0.300781 3.253906 -0.28125 3.546875 -0.28125 L 4.40625 -0.28125 C 4.90625 -0.28125 5.28125 -0.34375 5.53125 -0.46875 C 5.789062 -0.601562 5.976562 -0.8125 6.09375 -1.09375 C 6.21875 -1.382812 6.304688 -1.816406 6.359375 -2.390625 L 6.640625 -2.390625 C 6.617188 -2.171875 6.609375 -1.882812 6.609375 -1.53125 Z M 6.609375 -1.53125 "/></g></g><g style="fill:rgb(100%,100%,100%);fill-opacity:1;"><g transform="translate(158.406809, 284.120401)"><path style="stroke:none;" d="M 5.796875 -7.203125 C 6.242188 -7.203125 6.550781 -7.21875 6.71875 -7.25 L 6.71875 -7 C 6.582031 -6.96875 6.457031 -6.890625 6.34375 -6.765625 C 6.226562 -6.648438 6.097656 -6.457031 5.953125 -6.1875 L 4.078125 -2.84375 L 4.078125 -1.265625 C 4.078125 -0.960938 4.097656 -0.742188 4.140625 -0.609375 C 4.191406 -0.472656 4.28125 -0.378906 4.40625 -0.328125 C 4.539062 -0.285156 4.753906 -0.253906 5.046875 -0.234375 L 5.046875 0 C 4.679688 -0.0195312 4.175781 -0.03125 3.53125 -0.03125 C 2.84375 -0.03125 2.332031 -0.0195312 2 0 L 2 -0.234375 C 2.289062 -0.253906 2.5 -0.285156 2.625 -0.328125 C 2.757812 -0.378906 2.847656 -0.472656 2.890625 -0.609375 C 2.941406 -0.742188 2.96875 -0.960938 2.96875 -1.265625 L 2.96875 -2.5 L 0.671875 -6.328125 C 0.515625 -6.585938 0.382812 -6.757812 0.28125 -6.84375 C 0.1875 -6.925781 0.0820312 -6.976562 -0.03125 -7 L -0.03125 -7.25 C 0.476562 -7.21875 0.832031 -7.203125 1.03125 -7.203125 C 1.570312 -7.203125 2.125 -7.21875 2.6875 -7.25 L 2.6875 -7 C 2.414062 -7 2.207031 -6.972656 2.0625 -6.921875 C 1.925781 -6.878906 1.859375 -6.785156 1.859375 -6.640625 C 1.859375 -6.503906 1.925781 -6.316406 2.0625 -6.078125 L 3.859375 -3.078125 L 5.34375 -5.671875 C 5.519531 -5.992188 5.609375 -6.25 5.609375 -6.4375 C 5.609375 -6.769531 5.332031 -6.957031 4.78125 -7 L 4.78125 -7.25 C 5.070312 -7.21875 5.410156 -7.203125 5.796875 -7.203125 Z M 5.796875 -7.203125 "/></g></g><g style="fill:rgb(100%,100%,100%);fill-opacity:1;"><g transform="translate(166.309088, 284.120401)"><path style="stroke:none;" d="M 6.359375 -1.40625 C 6.359375 -0.988281 6.390625 -0.519531 6.453125 0 C 5.929688 -0.0195312 5.0625 -0.03125 3.84375 -0.03125 C 2.375 -0.03125 1.257812 -0.0195312 0.5 0 L 0.5 -0.234375 C 0.789062 -0.253906 1 -0.285156 1.125 -0.328125 C 1.257812 -0.378906 1.347656 -0.472656 1.390625 -0.609375 C 1.441406 -0.742188 1.46875 -0.960938 1.46875 -1.265625 L 1.46875 -5.984375 C 1.46875 -6.285156 1.441406 -6.503906 1.390625 -6.640625 C 1.347656 -6.773438 1.257812 -6.863281 1.125 -6.90625 C 1 -6.957031 0.789062 -6.992188 0.5 -7.015625 L 0.5 -7.25 C 1.257812 -7.226562 2.375 -7.21875 3.84375 -7.21875 C 4.957031 -7.21875 5.75 -7.226562 6.21875 -7.25 C 6.15625 -6.769531 6.125 -6.34375 6.125 -5.96875 C 6.125 -5.65625 6.132812 -5.40625 6.15625 -5.21875 L 5.890625 -5.21875 C 5.835938 -5.875 5.703125 -6.328125 5.484375 -6.578125 C 5.265625 -6.835938 4.90625 -6.96875 4.40625 -6.96875 L 3.546875 -6.96875 C 3.253906 -6.96875 3.039062 -6.945312 2.90625 -6.90625 C 2.78125 -6.863281 2.691406 -6.773438 2.640625 -6.640625 C 2.597656 -6.503906 2.578125 -6.285156 2.578125 -5.984375 L 2.578125 -3.765625 L 3.5625 -3.765625 C 3.820312 -3.765625 4.015625 -3.828125 4.140625 -3.953125 C 4.273438 -4.085938 4.367188 -4.234375 4.421875 -4.390625 C 4.472656 -4.546875 4.515625 -4.742188 4.546875 -4.984375 L 4.828125 -4.984375 C 4.804688 -4.710938 4.796875 -4.414062 4.796875 -4.09375 L 4.796875 -3.640625 C 4.796875 -3.335938 4.816406 -2.894531 4.859375 -2.3125 L 4.59375 -2.3125 C 4.539062 -2.695312 4.445312 -2.992188 4.3125 -3.203125 C 4.175781 -3.421875 3.925781 -3.53125 3.5625 -3.53125 L 2.578125 -3.53125 L 2.578125 -1.265625 C 2.578125 -0.960938 2.597656 -0.742188 2.640625 -0.609375 C 2.691406 -0.472656 2.78125 -0.382812 2.90625 -0.34375 C 3.039062 -0.300781 3.253906 -0.28125 3.546875 -0.28125 L 4.40625 -0.28125 C 4.800781 -0.28125 5.113281 -0.34375 5.34375 -0.46875 C 5.582031 -0.59375 5.757812 -0.796875 5.875 -1.078125 C 6 -1.359375 6.082031 -1.753906 6.125 -2.265625 L 6.40625 -2.265625 C 6.375 -2.046875 6.359375 -1.757812 6.359375 -1.40625 Z M 6.359375 -1.40625 "/></g></g><g style="fill:rgb(100%,100%,100%);fill-opacity:1;"><g transform="translate(174.473561, 284.120401)"><path style="stroke:none;" d=""/></g></g><g style="fill:rgb(100%,100%,100%);fill-opacity:1;"><g transform="translate(178.514421, 284.120401)"><path style="stroke:none;" d="M 4.421875 -8.609375 C 4.898438 -8.609375 5.304688 -8.539062 5.640625 -8.40625 C 5.972656 -8.269531 6.296875 -8.078125 6.609375 -7.828125 C 6.703125 -7.753906 6.78125 -7.71875 6.84375 -7.71875 C 7 -7.71875 7.101562 -7.957031 7.15625 -8.4375 L 7.421875 -8.4375 C 7.390625 -7.925781 7.375 -7.015625 7.375 -5.703125 L 7.109375 -5.703125 C 7.015625 -6.210938 6.929688 -6.582031 6.859375 -6.8125 C 6.796875 -7.039062 6.679688 -7.257812 6.515625 -7.46875 C 6.273438 -7.769531 5.96875 -8 5.59375 -8.15625 C 5.226562 -8.3125 4.832031 -8.390625 4.40625 -8.390625 C 3.882812 -8.390625 3.429688 -8.21875 3.046875 -7.875 C 2.660156 -7.539062 2.359375 -7.054688 2.140625 -6.421875 C 1.929688 -5.785156 1.828125 -5.046875 1.828125 -4.203125 C 1.828125 -3.328125 1.941406 -2.578125 2.171875 -1.953125 C 2.398438 -1.335938 2.71875 -0.867188 3.125 -0.546875 C 3.539062 -0.234375 4.003906 -0.078125 4.515625 -0.078125 C 4.910156 -0.078125 5.296875 -0.148438 5.671875 -0.296875 C 6.046875 -0.453125 6.34375 -0.679688 6.5625 -0.984375 C 6.71875 -1.203125 6.832031 -1.4375 6.90625 -1.6875 C 6.976562 -1.945312 7.046875 -2.335938 7.109375 -2.859375 L 7.375 -2.859375 C 7.375 -1.492188 7.390625 -0.539062 7.421875 0 L 7.15625 0 C 7.132812 -0.25 7.097656 -0.425781 7.046875 -0.53125 C 7.003906 -0.644531 6.941406 -0.703125 6.859375 -0.703125 C 6.796875 -0.703125 6.710938 -0.671875 6.609375 -0.609375 C 6.253906 -0.347656 5.914062 -0.148438 5.59375 -0.015625 C 5.269531 0.109375 4.875 0.171875 4.40625 0.171875 C 3.65625 0.171875 2.992188 0 2.421875 -0.34375 C 1.859375 -0.6875 1.414062 -1.179688 1.09375 -1.828125 C 0.78125 -2.472656 0.625 -3.25 0.625 -4.15625 C 0.625 -5.019531 0.785156 -5.789062 1.109375 -6.46875 C 1.429688 -7.144531 1.878906 -7.671875 2.453125 -8.046875 C 3.035156 -8.421875 3.691406 -8.609375 4.421875 -8.609375 Z M 4.421875 -8.609375 "/></g></g><g style="fill:rgb(100%,100%,100%);fill-opacity:1;"><g transform="translate(187.787268, 284.120401)"><path style="stroke:none;" d="M 6.359375 -1.40625 C 6.359375 -0.988281 6.390625 -0.519531 6.453125 0 C 5.929688 -0.0195312 5.0625 -0.03125 3.84375 -0.03125 C 2.375 -0.03125 1.257812 -0.0195312 0.5 0 L 0.5 -0.234375 C 0.789062 -0.253906 1 -0.285156 1.125 -0.328125 C 1.257812 -0.378906 1.347656 -0.472656 1.390625 -0.609375 C 1.441406 -0.742188 1.46875 -0.960938 1.46875 -1.265625 L 1.46875 -5.984375 C 1.46875 -6.285156 1.441406 -6.503906 1.390625 -6.640625 C 1.347656 -6.773438 1.257812 -6.863281 1.125 -6.90625 C 1 -6.957031 0.789062 -6.992188 0.5 -7.015625 L 0.5 -7.25 C 1.257812 -7.226562 2.375 -7.21875 3.84375 -7.21875 C 4.957031 -7.21875 5.75 -7.226562 6.21875 -7.25 C 6.15625 -6.769531 6.125 -6.34375 6.125 -5.96875 C 6.125 -5.65625 6.132812 -5.40625 6.15625 -5.21875 L 5.890625 -5.21875 C 5.835938 -5.875 5.703125 -6.328125 5.484375 -6.578125 C 5.265625 -6.835938 4.90625 -6.96875 4.40625 -6.96875 L 3.546875 -6.96875 C 3.253906 -6.96875 3.039062 -6.945312 2.90625 -6.90625 C 2.78125 -6.863281 2.691406 -6.773438 2.640625 -6.640625 C 2.597656 -6.503906 2.578125 -6.285156 2.578125 -5.984375 L 2.578125 -3.765625 L 3.5625 -3.765625 C 3.820312 -3.765625 4.015625 -3.828125 4.140625 -3.953125 C 4.273438 -4.085938 4.367188 -4.234375 4.421875 -4.390625 C 4.472656 -4.546875 4.515625 -4.742188 4.546875 -4.984375 L 4.828125 -4.984375 C 4.804688 -4.710938 4.796875 -4.414062 4.796875 -4.09375 L 4.796875 -3.640625 C 4.796875 -3.335938 4.816406 -2.894531 4.859375 -2.3125 L 4.59375 -2.3125 C 4.539062 -2.695312 4.445312 -2.992188 4.3125 -3.203125 C 4.175781 -3.421875 3.925781 -3.53125 3.5625 -3.53125 L 2.578125 -3.53125 L 2.578125 -1.265625 C 2.578125 -0.960938 2.597656 -0.742188 2.640625 -0.609375 C 2.691406 -0.472656 2.78125 -0.382812 2.90625 -0.34375 C 3.039062 -0.300781 3.253906 -0.28125 3.546875 -0.28125 L 4.40625 -0.28125 C 4.800781 -0.28125 5.113281 -0.34375 5.34375 -0.46875 C 5.582031 -0.59375 5.757812 -0.796875 5.875 -1.078125 C 6 -1.359375 6.082031 -1.753906 6.125 -2.265625 L 6.40625 -2.265625 C 6.375 -2.046875 6.359375 -1.757812 6.359375 -1.40625 Z M 6.359375 -1.40625 "/></g></g><g style="fill:rgb(100%,100%,100%);fill-opacity:1;"><g transform="translate(195.951743, 284.120401)"><path style="stroke:none;" d="M 7.75 -7.015625 C 7.46875 -6.992188 7.257812 -6.945312 7.125 -6.875 C 6.988281 -6.8125 6.894531 -6.703125 6.84375 -6.546875 C 6.800781 -6.390625 6.78125 -6.160156 6.78125 -5.859375 L 6.78125 0.0625 L 6.515625 0.0625 L 1.734375 -6.546875 L 1.734375 -1.390625 C 1.734375 -1.078125 1.757812 -0.84375 1.8125 -0.6875 C 1.863281 -0.539062 1.960938 -0.429688 2.109375 -0.359375 C 2.265625 -0.296875 2.503906 -0.253906 2.828125 -0.234375 L 2.828125 0 C 2.535156 -0.0195312 2.128906 -0.03125 1.609375 -0.03125 C 1.128906 -0.03125 0.757812 -0.0195312 0.5 0 L 0.5 -0.234375 C 0.78125 -0.253906 0.988281 -0.296875 1.125 -0.359375 C 1.257812 -0.429688 1.347656 -0.546875 1.390625 -0.703125 C 1.441406 -0.859375 1.46875 -1.085938 1.46875 -1.390625 L 1.46875 -5.984375 C 1.46875 -6.285156 1.441406 -6.503906 1.390625 -6.640625 C 1.347656 -6.773438 1.257812 -6.863281 1.125 -6.90625 C 1 -6.957031 0.789062 -6.992188 0.5 -7.015625 L 0.5 -7.25 C 0.757812 -7.226562 1.128906 -7.21875 1.609375 -7.21875 C 2.035156 -7.21875 2.398438 -7.226562 2.703125 -7.25 L 6.515625 -1.953125 L 6.515625 -5.859375 C 6.515625 -6.171875 6.488281 -6.398438 6.4375 -6.546875 C 6.382812 -6.703125 6.28125 -6.8125 6.125 -6.875 C 5.976562 -6.945312 5.742188 -6.992188 5.421875 -7.015625 L 5.421875 -7.25 C 5.710938 -7.226562 6.117188 -7.21875 6.640625 -7.21875 C 7.117188 -7.21875 7.488281 -7.226562 7.75 -7.25 Z M 7.75 -7.015625 "/></g></g><g style="fill:rgb(100%,100%,100%);fill-opacity:1;"><g transform="translate(205.188827, 284.120401)"><path style="stroke:none;" d="M 7.125 -7.25 C 7.0625 -6.726562 7.03125 -6.257812 7.03125 -5.84375 C 7.03125 -5.425781 7.039062 -5.097656 7.0625 -4.859375 L 6.796875 -4.859375 C 6.742188 -5.421875 6.664062 -5.847656 6.5625 -6.140625 C 6.457031 -6.429688 6.289062 -6.640625 6.0625 -6.765625 C 5.832031 -6.898438 5.503906 -6.96875 5.078125 -6.96875 L 4.3125 -6.96875 L 4.3125 -1.390625 C 4.3125 -1.046875 4.34375 -0.796875 4.40625 -0.640625 C 4.46875 -0.492188 4.578125 -0.394531 4.734375 -0.34375 C 4.898438 -0.289062 5.160156 -0.253906 5.515625 -0.234375 L 5.515625 0 C 5.109375 -0.0195312 4.523438 -0.03125 3.765625 -0.03125 C 2.972656 -0.03125 2.382812 -0.0195312 2 0 L 2 -0.234375 C 2.363281 -0.253906 2.625 -0.289062 2.78125 -0.34375 C 2.9375 -0.394531 3.046875 -0.492188 3.109375 -0.640625 C 3.171875 -0.796875 3.203125 -1.046875 3.203125 -1.390625 L 3.203125 -6.96875 L 2.4375 -6.96875 C 2.007812 -6.96875 1.679688 -6.898438 1.453125 -6.765625 C 1.222656 -6.640625 1.054688 -6.429688 0.953125 -6.140625 C 0.847656 -5.847656 0.773438 -5.421875 0.734375 -4.859375 L 0.453125 -4.859375 C 0.472656 -5.117188 0.484375 -5.445312 0.484375 -5.84375 C 0.484375 -6.257812 0.457031 -6.726562 0.40625 -7.25 C 1.0625 -7.226562 2.179688 -7.21875 3.765625 -7.21875 C 5.335938 -7.21875 6.457031 -7.226562 7.125 -7.25 Z M 7.125 -7.25 "/></g></g><g style="fill:rgb(100%,100%,100%);fill-opacity:1;"><g transform="translate(213.782338, 284.120401)"><path style="stroke:none;" d="M 6.359375 -1.40625 C 6.359375 -0.988281 6.390625 -0.519531 6.453125 0 C 5.929688 -0.0195312 5.0625 -0.03125 3.84375 -0.03125 C 2.375 -0.03125 1.257812 -0.0195312 0.5 0 L 0.5 -0.234375 C 0.789062 -0.253906 1 -0.285156 1.125 -0.328125 C 1.257812 -0.378906 1.347656 -0.472656 1.390625 -0.609375 C 1.441406 -0.742188 1.46875 -0.960938 1.46875 -1.265625 L 1.46875 -5.984375 C 1.46875 -6.285156 1.441406 -6.503906 1.390625 -6.640625 C 1.347656 -6.773438 1.257812 -6.863281 1.125 -6.90625 C 1 -6.957031 0.789062 -6.992188 0.5 -7.015625 L 0.5 -7.25 C 1.257812 -7.226562 2.375 -7.21875 3.84375 -7.21875 C 4.957031 -7.21875 5.75 -7.226562 6.21875 -7.25 C 6.15625 -6.769531 6.125 -6.34375 6.125 -5.96875 C 6.125 -5.65625 6.132812 -5.40625 6.15625 -5.21875 L 5.890625 -5.21875 C 5.835938 -5.875 5.703125 -6.328125 5.484375 -6.578125 C 5.265625 -6.835938 4.90625 -6.96875 4.40625 -6.96875 L 3.546875 -6.96875 C 3.253906 -6.96875 3.039062 -6.945312 2.90625 -6.90625 C 2.78125 -6.863281 2.691406 -6.773438 2.640625 -6.640625 C 2.597656 -6.503906 2.578125 -6.285156 2.578125 -5.984375 L 2.578125 -3.765625 L 3.5625 -3.765625 C 3.820312 -3.765625 4.015625 -3.828125 4.140625 -3.953125 C 4.273438 -4.085938 4.367188 -4.234375 4.421875 -4.390625 C 4.472656 -4.546875 4.515625 -4.742188 4.546875 -4.984375 L 4.828125 -4.984375 C 4.804688 -4.710938 4.796875 -4.414062 4.796875 -4.09375 L 4.796875 -3.640625 C 4.796875 -3.335938 4.816406 -2.894531 4.859375 -2.3125 L 4.59375 -2.3125 C 4.539062 -2.695312 4.445312 -2.992188 4.3125 -3.203125 C 4.175781 -3.421875 3.925781 -3.53125 3.5625 -3.53125 L 2.578125 -3.53125 L 2.578125 -1.265625 C 2.578125 -0.960938 2.597656 -0.742188 2.640625 -0.609375 C 2.691406 -0.472656 2.78125 -0.382812 2.90625 -0.34375 C 3.039062 -0.300781 3.253906 -0.28125 3.546875 -0.28125 L 4.40625 -0.28125 C 4.800781 -0.28125 5.113281 -0.34375 5.34375 -0.46875 C 5.582031 -0.59375 5.757812 -0.796875 5.875 -1.078125 C 6 -1.359375 6.082031 -1.753906 6.125 -2.265625 L 6.40625 -2.265625 C 6.375 -2.046875 6.359375 -1.757812 6.359375 -1.40625 Z M 6.359375 -1.40625 "/></g></g><g style="fill:rgb(100%,100%,100%);fill-opacity:1;"><g transform="translate(221.946581, 284.120401)"><path style="stroke:none;" d="M 7.53125 -0.5 C 7.382812 -0.28125 7.210938 -0.113281 7.015625 0 C 6.816406 0.113281 6.582031 0.171875 6.3125 0.171875 C 5.644531 0.171875 5.238281 -0.128906 5.09375 -0.734375 L 4.71875 -2.234375 C 4.601562 -2.671875 4.4375 -2.960938 4.21875 -3.109375 C 4.007812 -3.265625 3.6875 -3.34375 3.25 -3.34375 L 2.578125 -3.34375 L 2.578125 -1.265625 C 2.578125 -0.960938 2.597656 -0.742188 2.640625 -0.609375 C 2.691406 -0.472656 2.78125 -0.378906 2.90625 -0.328125 C 3.039062 -0.285156 3.253906 -0.253906 3.546875 -0.234375 L 3.546875 0 C 3.179688 -0.0195312 2.675781 -0.03125 2.03125 -0.03125 C 1.34375 -0.03125 0.832031 -0.0195312 0.5 0 L 0.5 -0.234375 C 0.789062 -0.253906 1 -0.285156 1.125 -0.328125 C 1.257812 -0.378906 1.347656 -0.472656 1.390625 -0.609375 C 1.441406 -0.742188 1.46875 -0.960938 1.46875 -1.265625 L 1.46875 -5.984375 C 1.46875 -6.285156 1.441406 -6.503906 1.390625 -6.640625 C 1.347656 -6.773438 1.257812 -6.863281 1.125 -6.90625 C 1 -6.957031 0.789062 -6.992188 0.5 -7.015625 L 0.5 -7.25 C 0.832031 -7.226562 1.316406 -7.21875 1.953125 -7.21875 L 3.171875 -7.21875 C 3.304688 -7.226562 3.460938 -7.234375 3.640625 -7.234375 C 4.523438 -7.234375 5.203125 -7.066406 5.671875 -6.734375 C 6.148438 -6.398438 6.390625 -5.96875 6.390625 -5.4375 C 6.390625 -4.976562 6.203125 -4.554688 5.828125 -4.171875 C 5.460938 -3.785156 4.859375 -3.546875 4.015625 -3.453125 C 4.171875 -3.429688 4.304688 -3.410156 4.421875 -3.390625 C 4.847656 -3.328125 5.179688 -3.203125 5.421875 -3.015625 C 5.671875 -2.828125 5.847656 -2.519531 5.953125 -2.09375 L 6.21875 -1.015625 C 6.28125 -0.734375 6.347656 -0.535156 6.421875 -0.421875 C 6.492188 -0.304688 6.59375 -0.25 6.71875 -0.25 C 6.914062 -0.25 7.132812 -0.382812 7.375 -0.65625 Z M 3.34375 -7.015625 C 3.125 -7.015625 2.957031 -6.984375 2.84375 -6.921875 C 2.738281 -6.867188 2.664062 -6.769531 2.625 -6.625 C 2.59375 -6.476562 2.578125 -6.265625 2.578125 -5.984375 L 2.578125 -3.59375 L 3.375 -3.59375 C 4.070312 -3.59375 4.550781 -3.738281 4.8125 -4.03125 C 5.070312 -4.332031 5.203125 -4.757812 5.203125 -5.3125 C 5.203125 -5.875 5.054688 -6.296875 4.765625 -6.578125 C 4.472656 -6.867188 4 -7.015625 3.34375 -7.015625 Z M 3.34375 -7.015625 "/></g></g><g clip-rule="nonzero" clip-path="url(#clip2)"><path style=" stroke:none;fill-rule:nonzero;fill:rgb(0%,0%,0%);fill-opacity:1;" d="M 187.90625 149.84375 C 172.941406 149.84375 158.214844 142.300781 144.140625 127.417969 L 142.742188 125.9375 L 144.003906 124.335938 C 144.75 123.390625 162.5625 101.15625 188.027344 101.15625 C 203.03125 101.15625 217.402344 108.925781 230.734375 124.25 L 231.992188 125.695312 L 230.832031 127.222656 C 230.132812 128.148438 213.402344 149.84375 187.90625 149.84375 Z M 148.96875 125.707031 C 161.675781 138.617188 174.765625 145.15625 187.90625 145.15625 C 207.445312 145.15625 221.769531 130.597656 225.917969 125.847656 C 213.894531 112.574219 201.15625 105.847656 188.027344 105.847656 C 168.507812 105.847656 153.414062 120.78125 148.96875 125.707031 Z M 148.96875 125.707031 "/></g><path style=" stroke:none;fill-rule:nonzero;fill:rgb(0%,0%,0%);fill-opacity:1;" d="M 187.40625 110.53125 C 179.222656 110.53125 172.59375 117.234375 172.59375 125.5 C 172.59375 133.769531 179.222656 140.472656 187.40625 140.472656 C 195.585938 140.472656 202.214844 133.769531 202.214844 125.5 C 202.214844 117.234375 195.585938 110.53125 187.40625 110.53125 Z M 187.40625 131.785156 C 183.972656 131.785156 181.1875 128.972656 181.1875 125.5 C 181.1875 122.03125 183.972656 119.21875 187.40625 119.21875 C 190.835938 119.21875 193.621094 122.03125 193.621094 125.5 C 193.621094 128.972656 190.835938 131.785156 187.40625 131.785156 Z M 187.40625 131.785156 "/></g></svg>