<?xml version="1.0" encoding="UTF-8"?><svg xmlns="http://www.w3.org/2000/svg" xmlns:xlink="http://www.w3.org/1999/xlink" contentScriptType="text/ecmascript" width="375pt" zoomAndPan="magnify" contentStyleType="text/css" viewBox="0 0 375 374.999991" height="374.999991pt" preserveAspectRatio="xMidYMid meet" version="1.2"><defs><g/><clipPath xml:id="clip1" id="clip1"><path d="M 140.59375 107 L 239.59375 107 L 239.59375 139 L 140.59375 139 Z M 140.59375 107 "/></clipPath><clipPath xml:id="clip2" id="clip2"><path d="M 156 130 L 163 130 L 163 139.917969 L 156 139.917969 Z M 156 130 "/></clipPath><clipPath xml:id="clip3" id="clip3"><path d="M 167 132 L 171 132 L 171 139.917969 L 167 139.917969 Z M 167 132 "/></clipPath><clipPath xml:id="clip4" id="clip4"><path d="M 225 103.917969 L 231 103.917969 L 231 113 L 225 113 Z M 225 103.917969 "/></clipPath><clipPath xml:id="clip5" id="clip5"><path d="M 151.15625 139.75 L 228.40625 139.75 L 228.40625 151 L 151.15625 151 Z M 151.15625 139.75 "/></clipPath><clipPath xml:id="clip6" id="clip6"><path d="M 151.15625 143 L 228.40625 143 L 228.40625 155 L 151.15625 155 Z M 151.15625 143 "/></clipPath><clipPath xml:id="clip7" id="clip7"><path d="M 151.15625 144 L 228.40625 144 L 228.40625 160 L 151.15625 160 Z M 151.15625 144 "/></clipPath><clipPath xml:id="clip8" id="clip8"><path d="M 151.15625 146 L 228.40625 146 L 228.40625 165 L 151.15625 165 Z M 151.15625 146 "/></clipPath><clipPath xml:id="clip9" id="clip9"><path d="M 151.15625 147 L 228.40625 147 L 228.40625 169 L 151.15625 169 Z M 151.15625 147 "/></clipPath></defs><g xml:id="surface1" id="surface1"><rect x="0" width="375" y="0" height="374.999991" style="fill:rgb(100%,100%,100%);fill-opacity:1;stroke:none;"/><rect x="0" width="375" y="0" height="374.999991" style="fill:rgb(100%,100%,100%);fill-opacity:1;stroke:none;"/><rect x="0" width="375" y="0" height="374.999991" style="fill:rgb(96.469116%,94.119263%,91.369629%);fill-opacity:1;stroke:none;"/><g style="fill:rgb(22.749329%,10.5896%,5.879211%);fill-opacity:1;"><g transform="translate(129.056817, 191.508467)"><path style="stroke:none;" d="M 67.636719 -76.269531 L 49.964844 -76.269531 L 49.964844 -73.730469 C 52.300781 -73.730469 54.535156 -70.683594 56.363281 -65.605469 L 56.566406 -65.503906 L 62.050781 -50.777344 L 38.085938 -7.210938 L 14.21875 -66.519531 C 12.796875 -70.683594 13.507812 -73.628906 16.046875 -73.628906 L 16.859375 -73.628906 L 16.859375 -76.167969 L 1.726562 -76.167969 L 1.726562 -73.628906 C 3.757812 -73.628906 5.484375 -71.191406 7.414062 -66.824219 C 16.148438 -44.175781 24.984375 -21.632812 33.617188 1.015625 L 35.140625 1.015625 L 62.863281 -48.644531 L 81.449219 1.015625 L 82.972656 1.015625 L 107.144531 -66.113281 C 109.074219 -70.988281 111.714844 -73.730469 114.863281 -73.730469 L 114.863281 -76.269531 L 98.410156 -76.269531 L 98.410156 -73.730469 L 99.730469 -73.730469 C 104.300781 -73.730469 106.332031 -70.277344 104.707031 -65.605469 L 84.699219 -8.328125 C 77.589844 -27.421875 70.277344 -46.613281 63.167969 -65.605469 C 61.441406 -70.277344 62.761719 -73.730469 66.519531 -73.730469 L 67.636719 -73.730469 Z M 67.636719 -76.269531 "/></g></g><path style="fill:none;stroke-width:1;stroke-linecap:round;stroke-linejoin:miter;stroke:rgb(96.469116%,94.119263%,91.369629%);stroke-opacity:1;stroke-miterlimit:4;" d="M 0.499952 -0.0000309554 L 5.196135 -0.0000309554 " transform="matrix(20.936217,0,0,20.999999,162.923519,155.883463)"/><g clip-rule="nonzero" clip-path="url(#clip1)"><path style=" stroke:none;fill-rule:evenodd;fill:rgb(22.749329%,10.5896%,5.879211%);fill-opacity:1;" d="M 239.460938 109.929688 C 238.691406 109.8125 237.925781 109.71875 237.167969 109.644531 C 237.132812 109.574219 237.097656 109.503906 237.066406 109.429688 C 237.859375 109.5 238.660156 109.59375 239.460938 109.703125 Z M 236.289062 109.5625 C 233.859375 109.367188 231.484375 109.375 229.164062 109.558594 L 229.195312 109.402344 C 231.523438 109.210938 233.902344 109.195312 236.324219 109.371094 Z M 228.703125 109.597656 C 224.808594 109.945312 221.082031 110.792969 217.53125 112.039062 C 217.59375 111.972656 217.648438 111.902344 217.695312 111.832031 C 221.203125 110.621094 224.898438 109.796875 228.730469 109.445312 Z M 215.925781 112.632812 C 215.789062 112.683594 215.65625 112.738281 215.523438 112.789062 L 215.496094 112.644531 L 215.667969 112.578125 C 215.746094 112.601562 215.832031 112.621094 215.925781 112.632812 Z M 215.175781 112.929688 C 214.707031 113.117188 214.242188 113.3125 213.777344 113.515625 C 213.792969 113.453125 213.808594 113.394531 213.824219 113.332031 C 214.265625 113.144531 214.703125 112.960938 215.148438 112.785156 Z M 213.53125 113.621094 C 211.796875 114.382812 210.09375 115.214844 208.414062 116.101562 C 208.394531 116.0625 208.371094 116.019531 208.347656 115.976562 L 208.332031 115.949219 C 210.074219 115.046875 211.835938 114.191406 213.625 113.417969 C 213.589844 113.488281 213.558594 113.554688 213.53125 113.621094 Z M 206.699219 117.019531 C 205.171875 117.859375 203.65625 118.730469 202.152344 119.617188 C 202.109375 119.554688 202.0625 119.496094 202.011719 119.449219 C 203.550781 118.558594 205.097656 117.683594 206.660156 116.839844 C 206.664062 116.902344 206.679688 116.964844 206.699219 117.019531 Z M 201.996094 119.707031 C 201.679688 119.894531 201.367188 120.078125 201.050781 120.261719 L 200.925781 120.074219 C 201.230469 119.898438 201.535156 119.722656 201.839844 119.546875 C 201.894531 119.589844 201.945312 119.644531 201.996094 119.707031 Z M 200.84375 120.386719 C 199.042969 121.453125 197.246094 122.53125 195.449219 123.582031 C 195.441406 123.46875 195.421875 123.382812 195.386719 123.300781 C 197.160156 122.28125 198.933594 121.234375 200.71875 120.195312 Z M 193.304688 124.816406 C 191.699219 125.726562 190.085938 126.601562 188.453125 127.421875 C 188.421875 127.34375 188.378906 127.273438 188.328125 127.183594 L 188.300781 127.136719 C 189.914062 126.339844 191.511719 125.480469 193.113281 124.589844 C 193.164062 124.675781 193.230469 124.75 193.304688 124.816406 Z M 186.585938 128.328125 C 184.890625 129.125 183.171875 129.847656 181.421875 130.46875 L 181.277344 130.144531 C 183.050781 129.523438 184.804688 128.792969 186.542969 127.984375 C 186.539062 128.011719 186.539062 128.035156 186.539062 128.0625 C 186.539062 128.160156 186.554688 128.25 186.585938 128.328125 Z M 181.140625 130.566406 C 180.664062 130.734375 180.183594 130.890625 179.699219 131.042969 C 179.0625 131.242188 178.4375 131.421875 177.828125 131.585938 L 177.683594 131.242188 C 178.335938 131.070312 179.003906 130.882812 179.691406 130.667969 C 180.128906 130.535156 180.5625 130.390625 181 130.242188 Z M 177.554688 131.65625 C 175.957031 132.070312 174.464844 132.347656 173.054688 132.507812 L 172.894531 132.132812 C 174.3125 131.984375 175.808594 131.714844 177.410156 131.3125 Z M 172.765625 132.539062 C 168.699219 132.953125 165.300781 132.339844 161.9375 130.960938 C 161.949219 130.84375 161.964844 130.722656 161.988281 130.601562 C 161.992188 130.59375 161.992188 130.59375 161.992188 130.59375 C 161.882812 130.570312 161.769531 130.558594 161.679688 130.554688 C 161.679688 130.554688 161.671875 130.5625 161.667969 130.570312 L 161.585938 130.8125 C 158.269531 129.398438 154.964844 127.238281 151.074219 124.578125 C 147.695312 122.269531 144.1875 120.480469 140.710938 118.855469 L 140.710938 118.300781 C 144.222656 119.960938 147.769531 121.804688 151.175781 124.164062 C 159.03125 129.609375 164.515625 132.914062 172.601562 132.160156 Z M 239.460938 108.378906 C 236.066406 108.023438 232.695312 108.050781 229.390625 108.402344 L 229.421875 108.246094 C 232.734375 107.882812 236.101562 107.832031 239.460938 108.144531 Z M 228.925781 108.453125 C 225.140625 108.890625 221.4375 109.757812 217.875 110.976562 C 217.863281 110.933594 217.847656 110.890625 217.832031 110.847656 C 221.410156 109.625 225.148438 108.753906 228.953125 108.300781 Z M 215 112.042969 C 212.65625 112.988281 210.316406 114.101562 207.984375 115.308594 L 207.910156 115.171875 C 210.28125 113.964844 212.640625 112.851562 214.976562 111.910156 C 214.984375 111.953125 214.992188 111.996094 215 112.042969 Z M 207.773438 115.417969 C 205.675781 116.507812 203.582031 117.671875 201.496094 118.847656 C 201.484375 118.761719 201.464844 118.683594 201.445312 118.628906 L 201.445312 118.625 C 203.53125 117.480469 205.621094 116.34375 207.699219 115.28125 Z M 201.386719 118.910156 L 201.167969 119.035156 C 201.070312 119.003906 200.96875 118.976562 200.863281 118.945312 L 201.316406 118.699219 C 201.339844 118.75 201.363281 118.828125 201.386719 118.910156 Z M 200.609375 119.347656 L 200.488281 119.417969 L 200.414062 119.304688 C 200.476562 119.328125 200.539062 119.34375 200.609375 119.347656 Z M 200.277344 119.539062 C 198.496094 120.546875 196.71875 121.558594 194.945312 122.539062 L 194.789062 122.28125 C 195.140625 122.089844 195.492188 121.898438 195.847656 121.707031 C 195.855469 121.71875 195.871094 121.726562 195.886719 121.730469 C 195.914062 121.730469 195.9375 121.714844 195.945312 121.691406 L 195.953125 121.648438 C 197.347656 120.890625 198.746094 120.117188 200.148438 119.34375 Z M 194.664062 122.691406 L 194.570312 122.742188 C 194.449219 122.734375 194.320312 122.746094 194.1875 122.777344 C 193.765625 122.871094 193.398438 123.152344 193.1875 123.496094 C 191.78125 124.25 190.378906 124.980469 188.972656 125.664062 C 188.882812 125.570312 188.777344 125.492188 188.65625 125.421875 C 190.589844 124.5 192.546875 123.484375 194.507812 122.429688 Z M 188.78125 125.753906 C 188.449219 125.917969 188.113281 126.078125 187.777344 126.234375 L 187.597656 125.917969 C 187.855469 125.796875 188.117188 125.679688 188.375 125.554688 C 188.515625 125.589844 188.652344 125.648438 188.777344 125.753906 Z M 187.546875 126.339844 C 184.625 127.695312 181.707031 128.828125 178.789062 129.574219 C 178.226562 129.71875 177.675781 129.847656 177.140625 129.964844 L 176.984375 129.597656 C 177.554688 129.476562 178.144531 129.34375 178.746094 129.1875 C 181.554688 128.476562 184.4375 127.363281 187.367188 126.023438 Z M 176.859375 130.019531 C 175.222656 130.355469 173.695312 130.550781 172.253906 130.621094 L 172.082031 130.222656 C 173.527344 130.164062 175.058594 129.980469 176.703125 129.652344 Z M 171.953125 130.632812 C 164.121094 130.910156 158.757812 127.40625 151.324219 122.132812 C 147.863281 119.671875 144.273438 117.789062 140.710938 116.160156 L 140.710938 115.625 C 144.300781 117.277344 147.90625 119.207031 151.386719 121.707031 C 158.71875 126.964844 164.058594 130.445312 171.78125 130.230469 Z M 239.460938 114.648438 C 238.230469 114.304688 237.039062 114.019531 235.878906 113.785156 C 235.898438 113.71875 235.910156 113.652344 235.921875 113.578125 C 237.070312 113.804688 238.246094 114.085938 239.460938 114.417969 Z M 233.367188 113.351562 C 227.375 112.5 222.335938 113.128906 217.839844 114.753906 C 217.234375 114.972656 216.636719 115.203125 216.042969 115.449219 L 216.007812 115.269531 C 216.660156 115.003906 217.3125 114.75 217.972656 114.519531 C 222.5 112.925781 227.546875 112.324219 233.503906 113.164062 C 233.492188 113.179688 233.480469 113.195312 233.464844 113.207031 C 233.425781 113.253906 233.394531 113.300781 233.367188 113.351562 Z M 215.695312 115.597656 C 215.5625 115.652344 215.425781 115.710938 215.289062 115.773438 C 215.214844 115.738281 215.132812 115.707031 215.054688 115.671875 C 215.253906 115.585938 215.457031 115.496094 215.660156 115.410156 Z M 214.519531 116.113281 C 203.617188 121.097656 193.84375 130.398438 182.460938 135.453125 C 177.269531 137.761719 173.082031 138.84375 169.242188 138.90625 L 169.140625 138.535156 C 172.773438 138.511719 176.695312 137.578125 181.441406 135.585938 C 181.554688 135.609375 181.683594 135.613281 181.816406 135.597656 C 182.238281 135.542969 182.628906 135.296875 182.859375 134.96875 C 194.027344 129.941406 203.582031 120.894531 214.367188 115.980469 C 214.417969 116.023438 214.46875 116.070312 214.519531 116.113281 Z M 168.894531 138.90625 C 165.761719 138.910156 162.84375 138.226562 159.785156 136.976562 L 159.90625 136.621094 C 162.886719 137.839844 165.742188 138.507812 168.789062 138.535156 Z M 159.496094 136.855469 C 156.988281 135.808594 154.378906 134.382812 151.464844 132.640625 L 151.734375 132.316406 C 154.578125 134.050781 157.144531 135.460938 159.621094 136.5 Z M 151.140625 132.445312 L 150.703125 132.183594 L 150.6875 132.164062 C 150.488281 131.96875 150.230469 131.820312 149.949219 131.726562 C 148.113281 130.632812 146.238281 129.664062 144.347656 128.738281 C 144.425781 128.667969 144.496094 128.589844 144.582031 128.5 L 144.71875 128.351562 C 146.679688 129.34375 148.625 130.386719 150.515625 131.566406 C 150.816406 131.753906 151.117188 131.9375 151.410156 132.121094 Z M 141.839844 127.527344 C 141.464844 127.347656 141.085938 127.167969 140.710938 126.988281 L 140.710938 126.367188 C 141.234375 126.625 141.753906 126.878906 142.277344 127.136719 C 142.082031 127.238281 141.9375 127.375 141.839844 127.527344 Z M 239.460938 113.070312 C 238.832031 112.917969 238.207031 112.78125 237.59375 112.660156 C 237.652344 112.597656 237.703125 112.535156 237.746094 112.476562 C 238.3125 112.589844 238.882812 112.710938 239.460938 112.84375 Z M 237.40625 112.625 C 236.976562 112.539062 236.550781 112.464844 236.125 112.394531 L 236.160156 112.195312 C 236.613281 112.269531 237.074219 112.347656 237.535156 112.4375 C 237.5 112.492188 237.453125 112.558594 237.40625 112.625 Z M 235.8125 112.34375 C 233.292969 111.945312 230.902344 111.789062 228.625 111.84375 C 228.664062 111.78125 228.695312 111.726562 228.722656 111.667969 C 230.988281 111.613281 233.355469 111.765625 235.847656 112.144531 Z M 225.246094 112.082031 C 222.484375 112.410156 219.886719 113.058594 217.417969 113.960938 C 216.898438 114.152344 216.382812 114.351562 215.867188 114.558594 L 215.835938 114.390625 C 216.386719 114.171875 216.941406 113.960938 217.5 113.757812 C 219.921875 112.886719 222.460938 112.257812 225.15625 111.925781 C 225.183594 111.980469 225.210938 112.03125 225.246094 112.082031 Z M 215.523438 114.699219 C 215.089844 114.878906 214.65625 115.0625 214.230469 115.253906 C 214.179688 115.214844 214.128906 115.175781 214.085938 115.132812 C 214.550781 114.925781 215.015625 114.726562 215.488281 114.53125 Z M 213.828125 115.433594 C 202.933594 120.375 193.875 128.667969 182.75 133.476562 L 182.628906 133.203125 C 193.75 128.464844 202.734375 120.25 213.722656 115.292969 C 213.757812 115.339844 213.792969 115.386719 213.828125 115.433594 Z M 182.476562 133.59375 L 182.464844 133.601562 C 182.328125 133.5625 182.175781 133.550781 182.011719 133.574219 C 181.582031 133.628906 181.1875 133.882812 180.960938 134.214844 C 176.136719 136.101562 172.226562 136.902344 168.648438 136.800781 L 168.539062 136.410156 C 172.316406 136.554688 176.445312 135.695312 181.589844 133.632812 C 181.847656 133.527344 182.101562 133.421875 182.359375 133.316406 L 182.476562 133.589844 C 182.480469 133.589844 182.480469 133.59375 182.476562 133.59375 Z M 168.296875 136.785156 C 166.167969 136.691406 164.152344 136.273438 162.125 135.578125 C 162.179688 135.457031 162.222656 135.335938 162.257812 135.21875 C 164.207031 135.882812 166.148438 136.285156 168.1875 136.394531 Z M 161.871094 135.488281 C 161.410156 135.324219 160.949219 135.148438 160.488281 134.957031 L 160.613281 134.597656 C 161.070312 134.785156 161.523438 134.960938 161.976562 135.121094 C 161.957031 135.234375 161.921875 135.355469 161.871094 135.488281 Z M 160.195312 134.835938 C 157.882812 133.851562 155.503906 132.53125 152.882812 130.929688 L 153.136719 130.621094 C 155.699219 132.207031 158.039062 133.507812 160.320312 134.472656 Z M 152.5625 130.730469 C 151.914062 130.332031 151.25 129.917969 150.570312 129.484375 C 149.636719 128.894531 148.691406 128.339844 147.738281 127.8125 C 147.839844 127.695312 147.925781 127.566406 147.996094 127.433594 C 148.917969 127.960938 149.832031 128.511719 150.738281 129.097656 C 151.449219 129.554688 152.140625 130 152.820312 130.421875 Z M 147.464844 127.660156 C 147 127.40625 146.535156 127.15625 146.066406 126.914062 L 146.40625 126.550781 C 146.835938 126.785156 147.265625 127.019531 147.695312 127.261719 C 147.667969 127.332031 147.636719 127.40625 147.59375 127.480469 C 147.558594 127.539062 147.515625 127.601562 147.464844 127.660156 Z M 145.765625 126.757812 C 144.089844 125.890625 142.394531 125.082031 140.710938 124.277344 L 140.710938 123.675781 C 142.511719 124.550781 144.320312 125.4375 146.109375 126.390625 Z M 239.460938 111.496094 C 238.960938 111.398438 238.460938 111.308594 237.964844 111.226562 C 237.941406 111.152344 237.914062 111.078125 237.886719 111.003906 C 238.40625 111.085938 238.933594 111.175781 239.460938 111.273438 Z M 237.554688 111.160156 C 237.15625 111.101562 236.761719 111.042969 236.367188 110.996094 L 236.398438 110.800781 C 236.722656 110.839844 237.042969 110.882812 237.367188 110.929688 C 237.4375 111 237.5 111.078125 237.554688 111.160156 Z M 236.050781 110.957031 C 233.59375 110.664062 231.226562 110.585938 228.941406 110.703125 L 228.972656 110.542969 C 231.265625 110.421875 233.632812 110.488281 236.082031 110.765625 Z M 225.15625 111.074219 C 222.308594 111.492188 219.59375 112.210938 217 113.171875 C 216.5625 113.332031 216.128906 113.5 215.695312 113.671875 L 215.664062 113.515625 C 216.117188 113.335938 216.570312 113.164062 217.03125 112.996094 C 219.644531 112.039062 222.378906 111.328125 225.246094 110.910156 C 225.210938 110.964844 225.183594 111.019531 225.15625 111.074219 Z M 215.347656 113.8125 C 214.800781 114.035156 214.257812 114.265625 213.71875 114.503906 C 213.710938 114.453125 213.699219 114.398438 213.691406 114.339844 C 214.230469 114.105469 214.769531 113.875 215.316406 113.65625 Z M 213.40625 114.644531 C 209.296875 116.492188 205.429688 118.769531 201.621094 121.125 C 201.589844 121.0625 201.546875 121.003906 201.5 120.933594 C 203.46875 119.734375 205.449219 118.550781 207.476562 117.4375 C 207.507812 117.433594 207.539062 117.429688 207.570312 117.421875 C 207.839844 117.367188 208.085938 117.214844 208.257812 117.011719 C 209.929688 116.109375 211.632812 115.257812 213.378906 114.480469 C 213.382812 114.535156 213.394531 114.589844 213.40625 114.644531 Z M 199.945312 122.167969 C 194.15625 125.78125 188.425781 129.457031 182.082031 131.960938 L 181.949219 131.660156 C 188.277344 129.195312 194.027344 125.542969 199.859375 121.941406 C 199.875 122.027344 199.902344 122.101562 199.945312 122.167969 Z M 181.804688 132.070312 C 181.414062 132.21875 181.019531 132.367188 180.625 132.511719 C 179.773438 132.816406 178.949219 133.089844 178.15625 133.328125 C 178.226562 133.210938 178.273438 133.082031 178.289062 132.949219 L 178.292969 132.929688 C 179.050781 132.699219 179.828125 132.441406 180.636719 132.152344 C 180.984375 132.027344 181.328125 131.898438 181.671875 131.765625 Z M 176.371094 133.824219 C 175.464844 134.050781 174.59375 134.234375 173.75 134.375 C 173.765625 134.226562 173.738281 134.125 173.695312 134.011719 C 174.488281 133.882812 175.304688 133.71875 176.148438 133.515625 C 176.191406 133.636719 176.269531 133.742188 176.371094 133.824219 Z M 171.566406 134.644531 C 170.890625 134.699219 170.234375 134.726562 169.585938 134.722656 C 169.75 134.613281 169.894531 134.480469 170.003906 134.332031 C 170.558594 134.328125 171.121094 134.300781 171.695312 134.253906 C 171.632812 134.367188 171.585938 134.492188 171.570312 134.617188 Z M 167.6875 134.625 C 165.804688 134.441406 164.015625 134.007812 162.226562 133.351562 C 162.195312 133.203125 162.164062 133.050781 162.128906 132.898438 C 163.917969 133.570312 165.707031 134.019531 167.589844 134.21875 C 167.597656 134.328125 167.632812 134.429688 167.667969 134.558594 Z M 160.890625 132.816406 C 158.765625 131.910156 156.609375 130.703125 154.273438 129.25 L 154.523438 128.949219 C 156.804688 130.378906 158.921875 131.5625 161.015625 132.453125 Z M 153.953125 129.050781 C 152.949219 128.417969 151.90625 127.746094 150.820312 127.027344 C 150.023438 126.503906 149.21875 126.007812 148.40625 125.53125 C 148.425781 125.375 148.449219 125.21875 148.480469 125.0625 C 149.3125 125.558594 150.140625 126.078125 150.957031 126.625 C 152.082031 127.378906 153.160156 128.089844 154.203125 128.75 Z M 147.4375 124.976562 C 145.214844 123.726562 142.953125 122.625 140.710938 121.566406 L 140.710938 120.984375 C 143.0625 122.113281 145.429688 123.292969 147.757812 124.636719 Z M 147.4375 124.976562 "/></g><g clip-rule="nonzero" clip-path="url(#clip2)"><path style=" stroke:none;fill-rule:nonzero;fill:rgb(22.749329%,10.5896%,5.879211%);fill-opacity:1;" d="M 156.976562 139.496094 C 156.386719 139.238281 156.34375 138.429688 156.90625 137.722656 C 157.476562 137.042969 158.386719 136.691406 158.984375 136.945312 C 159.160156 137.015625 159.261719 137.125 159.355469 137.261719 C 160.128906 135.042969 160.886719 132.808594 161.667969 130.570312 C 161.671875 130.5625 161.679688 130.554688 161.679688 130.554688 C 161.769531 130.558594 161.882812 130.570312 161.992188 130.59375 C 161.992188 130.59375 161.992188 130.59375 161.988281 130.601562 C 161.578125 132.734375 163.128906 134.195312 161.847656 136.066406 C 161.71875 136.25 161.453125 136.574219 161.171875 136.832031 C 161.152344 136.851562 161.132812 136.855469 161.121094 136.839844 C 161.105469 136.824219 161.101562 136.789062 161.121094 136.753906 C 161.300781 136.480469 161.566406 136.179688 161.648438 135.996094 C 161.832031 135.625 161.949219 135.320312 161.984375 135.0625 C 162.148438 133.917969 161.273438 133.65625 161.1875 132.953125 C 160.617188 134.605469 160.023438 136.242188 159.476562 137.886719 C 159.339844 138.210938 159.292969 138.421875 159.046875 138.726562 C 158.472656 139.410156 157.582031 139.765625 156.976562 139.496094 Z M 156.976562 139.496094 "/></g><path style=" stroke:none;fill-rule:nonzero;fill:rgb(22.749329%,10.5896%,5.879211%);fill-opacity:1;" d="M 233.898438 114.507812 C 233.261719 114.273438 233.066406 113.679688 233.464844 113.207031 C 233.855469 112.746094 234.660156 112.5625 235.277344 112.789062 C 235.449219 112.855469 235.585938 112.941406 235.691406 113.046875 L 236.492188 108.382812 C 236.496094 108.378906 236.5 108.375 236.503906 108.375 L 236.800781 108.425781 C 236.804688 108.425781 236.808594 108.429688 236.808594 108.433594 C 236.855469 109.941406 238.648438 111.140625 237.820312 112.378906 C 237.734375 112.507812 237.5625 112.71875 237.347656 112.882812 C 237.328125 112.894531 237.296875 112.894531 237.277344 112.878906 C 237.257812 112.863281 237.253906 112.839844 237.265625 112.820312 C 237.390625 112.636719 237.554688 112.433594 237.605469 112.308594 C 237.703125 112.058594 237.753906 111.847656 237.734375 111.660156 C 237.652344 110.851562 236.75 110.578125 236.527344 110.070312 L 235.933594 113.511719 C 235.894531 113.738281 235.882812 113.886719 235.707031 114.09375 C 235.320312 114.550781 234.515625 114.738281 233.898438 114.507812 Z M 233.898438 114.507812 "/><g clip-rule="nonzero" clip-path="url(#clip3)"><path style=" stroke:none;fill-rule:nonzero;fill:rgb(22.749329%,10.5896%,5.879211%);fill-opacity:1;" d="M 169.1875 132.796875 C 169.917969 132.785156 170.382812 133.296875 170.214844 133.917969 C 170.050781 134.519531 169.351562 135.011719 168.640625 135.019531 C 168.457031 135.023438 168.285156 134.992188 168.140625 134.933594 C 168.136719 134.929688 168.132812 134.929688 168.128906 134.933594 C 168.125 134.9375 168.125 134.941406 168.125 134.945312 L 169.507812 139.839844 C 169.507812 139.847656 169.503906 139.851562 169.5 139.851562 L 169.191406 139.917969 C 169.1875 139.917969 169.179688 139.914062 169.179688 139.910156 L 167.667969 134.558594 C 167.601562 134.316406 167.542969 134.167969 167.617188 133.898438 C 167.78125 133.292969 168.480469 132.804688 169.1875 132.796875 Z M 169.1875 132.796875 "/></g><path style=" stroke:none;fill-rule:nonzero;fill:rgb(22.749329%,10.5896%,5.879211%);fill-opacity:1;" d="M 187.53125 128.753906 C 186.988281 128.871094 186.535156 128.558594 186.539062 128.0625 C 186.542969 127.578125 186.972656 127.101562 187.503906 126.984375 C 187.648438 126.953125 187.789062 126.953125 187.914062 126.980469 L 185.890625 123.46875 C 185.890625 123.464844 185.890625 123.460938 185.894531 123.457031 L 186.027344 123.402344 L 186.117188 123.363281 L 186.125 123.359375 C 186.980469 123.890625 188.234375 123.882812 188.445312 124.777344 C 188.472656 124.882812 188.5 125.066406 188.476562 125.242188 C 188.472656 125.257812 188.460938 125.269531 188.441406 125.273438 C 188.421875 125.273438 188.40625 125.261719 188.402344 125.246094 C 188.367188 125.097656 188.34375 124.917969 188.300781 124.832031 C 188.21875 124.660156 188.128906 124.527344 188.019531 124.4375 C 187.546875 124.046875 186.945312 124.289062 186.558594 124.113281 L 186.835938 124.597656 L 186.882812 124.675781 C 187.738281 125.207031 188.992188 125.199219 189.207031 126.09375 C 189.230469 126.199219 189.257812 126.382812 189.234375 126.558594 C 189.234375 126.574219 189.21875 126.585938 189.199219 126.585938 C 189.179688 126.589844 189.164062 126.578125 189.160156 126.5625 C 189.128906 126.410156 189.101562 126.234375 189.058594 126.148438 C 188.976562 125.972656 188.886719 125.84375 188.777344 125.753906 C 188.304688 125.363281 187.703125 125.601562 187.316406 125.429688 L 188.21875 126.996094 L 188.328125 127.183594 C 188.425781 127.355469 188.5 127.460938 188.496094 127.679688 C 188.492188 128.160156 188.066406 128.640625 187.53125 128.753906 Z M 187.53125 128.753906 "/><path style=" stroke:none;fill-rule:nonzero;fill:rgb(22.749329%,10.5896%,5.879211%);fill-opacity:1;" d="M 181.816406 135.597656 C 181.175781 135.679688 180.699219 135.273438 180.765625 134.707031 C 180.832031 134.15625 181.386719 133.652344 182.011719 133.574219 C 182.175781 133.550781 182.328125 133.5625 182.464844 133.601562 C 182.46875 133.601562 182.472656 133.601562 182.476562 133.597656 C 182.480469 133.59375 182.480469 133.59375 182.476562 133.589844 L 180.621094 129.390625 C 180.621094 129.386719 180.625 129.382812 180.628906 129.378906 L 180.890625 129.292969 C 180.894531 129.289062 180.902344 129.292969 180.902344 129.296875 L 182.929688 133.882812 C 183.023438 134.089844 183.089844 134.21875 183.0625 134.464844 C 182.992188 135.015625 182.441406 135.519531 181.816406 135.597656 Z M 181.710938 135.359375 C 182.207031 135.277344 182.707031 134.816406 182.785156 134.378906 C 182.863281 133.949219 182.605469 133.726562 182.117188 133.8125 C 181.625 133.894531 181.117188 134.351562 181.042969 134.789062 C 180.964844 135.226562 181.222656 135.441406 181.710938 135.359375 Z M 181.710938 135.359375 "/><path style=" stroke:none;fill-rule:nonzero;fill:rgb(22.749329%,10.5896%,5.879211%);fill-opacity:1;" d="M 194.257812 125 C 193.574219 125.15625 193 124.765625 192.996094 124.144531 C 192.988281 123.539062 193.519531 122.929688 194.1875 122.777344 C 194.371094 122.734375 194.546875 122.730469 194.707031 122.761719 L 192.09375 118.378906 C 192.09375 118.375 192.09375 118.367188 192.097656 118.363281 L 192.375 118.242188 C 192.378906 118.238281 192.382812 118.238281 192.386719 118.242188 C 193.480469 119.488281 195.792969 119.492188 195.980469 121.003906 C 196 121.160156 196.007812 121.433594 195.945312 121.691406 C 195.9375 121.714844 195.914062 121.730469 195.886719 121.730469 C 195.859375 121.726562 195.839844 121.707031 195.835938 121.683594 C 195.8125 121.460938 195.800781 121.195312 195.753906 121.066406 C 195.660156 120.796875 195.550781 120.589844 195.40625 120.445312 C 194.773438 119.808594 193.84375 120.085938 193.300781 119.78125 L 195.226562 123.015625 C 195.355469 123.230469 195.449219 123.359375 195.449219 123.632812 C 195.453125 124.238281 194.925781 124.847656 194.257812 125 Z M 194.257812 125 "/><path style=" stroke:none;fill-rule:nonzero;fill:rgb(22.749329%,10.5896%,5.879211%);fill-opacity:1;" d="M 207.570312 117.421875 C 207.058594 117.523438 206.640625 117.222656 206.65625 116.757812 C 206.671875 116.308594 207.082031 115.871094 207.582031 115.773438 C 207.714844 115.75 207.839844 115.75 207.949219 115.773438 C 207.953125 115.773438 207.957031 115.773438 207.957031 115.769531 C 207.960938 115.765625 207.960938 115.765625 207.960938 115.761719 L 206.164062 112.46875 C 206.164062 112.464844 206.164062 112.460938 206.167969 112.460938 L 206.375 112.375 C 206.378906 112.375 206.382812 112.375 206.386719 112.378906 L 208.347656 115.976562 C 208.433594 116.136719 208.5 116.238281 208.492188 116.4375 C 208.476562 116.886719 208.066406 117.324219 207.570312 117.421875 Z M 207.570312 117.421875 "/><path style=" stroke:none;fill-rule:nonzero;fill:rgb(22.749329%,10.5896%,5.879211%);fill-opacity:1;" d="M 216.824219 110.253906 C 217.621094 110.296875 218.082031 110.886719 217.839844 111.550781 C 217.605469 112.195312 216.800781 112.679688 216.027344 112.640625 C 215.8125 112.628906 215.625 112.578125 215.464844 112.5 L 216.53125 117.953125 C 216.535156 117.957031 216.53125 117.964844 216.523438 117.964844 L 216.179688 118.011719 C 216.175781 118.015625 216.167969 118.011719 216.167969 118.003906 C 215.488281 116.351562 213.015625 115.640625 213.410156 113.980469 C 213.453125 113.808594 213.550781 113.515625 213.71875 113.257812 C 213.734375 113.234375 213.769531 113.226562 213.796875 113.238281 C 213.824219 113.246094 213.839844 113.273438 213.832031 113.300781 C 213.773438 113.546875 213.679688 113.828125 213.675781 113.984375 C 213.671875 114.296875 213.707031 114.546875 213.804688 114.75 C 214.230469 115.617188 215.335938 115.605469 215.792969 116.09375 L 215.007812 112.070312 C 214.957031 111.804688 214.90625 111.636719 215.011719 111.347656 C 215.246094 110.699219 216.054688 110.214844 216.824219 110.253906 Z M 216.824219 110.253906 "/><g clip-rule="nonzero" clip-path="url(#clip4)"><path style=" stroke:none;fill-rule:nonzero;fill:rgb(22.749329%,10.5896%,5.879211%);fill-opacity:1;" d="M 225.9375 112.578125 C 225.050781 112.253906 224.789062 111.417969 225.371094 110.75 C 225.933594 110.097656 227.082031 109.832031 227.945312 110.148438 C 228.175781 110.234375 228.363281 110.351562 228.503906 110.488281 C 228.507812 110.492188 228.515625 110.492188 228.519531 110.492188 C 228.527344 110.492188 228.527344 110.488281 228.53125 110.484375 L 229.804688 103.925781 C 229.804688 103.921875 229.8125 103.914062 229.820312 103.917969 L 230.234375 103.980469 C 230.242188 103.984375 230.246094 103.988281 230.246094 103.996094 L 228.855469 111.160156 C 228.792969 111.480469 228.769531 111.6875 228.515625 111.980469 C 227.953125 112.632812 226.804688 112.898438 225.9375 112.578125 Z M 225.9375 112.578125 "/></g><path style=" stroke:none;fill-rule:nonzero;fill:rgb(22.749329%,10.5896%,5.879211%);fill-opacity:1;" d="M 148.050781 133.375 C 147.496094 132.820312 147.660156 132.085938 148.40625 131.761719 C 149.132812 131.445312 150.144531 131.625 150.6875 132.164062 C 150.828125 132.308594 150.921875 132.460938 150.972656 132.617188 C 150.976562 132.621094 150.980469 132.625 150.984375 132.625 C 150.988281 132.625 150.996094 132.625 150.996094 132.621094 L 154.855469 127.960938 C 154.859375 127.957031 154.871094 127.957031 154.875 127.960938 L 155.167969 128.148438 C 155.175781 128.152344 155.175781 128.160156 155.171875 128.164062 L 150.957031 133.253906 C 150.765625 133.484375 150.65625 133.636719 150.332031 133.777344 C 149.605469 134.09375 148.589844 133.914062 148.050781 133.375 Z M 148.050781 133.375 "/><path style=" stroke:none;fill-rule:nonzero;fill:rgb(22.749329%,10.5896%,5.879211%);fill-opacity:1;" d="M 200.84375 122.460938 C 200.332031 122.601562 199.878906 122.324219 199.847656 121.855469 C 199.820312 121.394531 200.195312 120.917969 200.695312 120.777344 C 200.832031 120.742188 200.964844 120.734375 201.085938 120.75 L 198.925781 117.511719 C 198.925781 117.507812 198.925781 117.503906 198.929688 117.5 L 199.050781 117.441406 L 199.132812 117.398438 L 199.140625 117.394531 C 199.992188 117.855469 201.183594 117.789062 201.445312 118.628906 C 201.476562 118.722656 201.515625 118.898438 201.503906 119.070312 C 201.503906 119.085938 201.488281 119.097656 201.472656 119.097656 C 201.457031 119.097656 201.4375 119.089844 201.433594 119.074219 C 201.394531 118.933594 201.355469 118.765625 201.308594 118.6875 C 201.21875 118.523438 201.125 118.402344 201.015625 118.324219 C 200.539062 117.976562 199.980469 118.238281 199.601562 118.09375 L 199.898438 118.535156 L 199.949219 118.609375 C 200.800781 119.070312 201.992188 119 202.253906 119.839844 C 202.285156 119.9375 202.324219 120.113281 202.3125 120.28125 C 202.3125 120.296875 202.300781 120.3125 202.28125 120.3125 C 202.265625 120.3125 202.25 120.304688 202.246094 120.289062 C 202.203125 120.148438 202.164062 119.980469 202.121094 119.902344 C 202.027344 119.738281 201.9375 119.617188 201.824219 119.539062 C 201.351562 119.191406 200.792969 119.453125 200.414062 119.304688 L 201.375 120.75 L 201.492188 120.925781 C 201.597656 121.085938 201.675781 121.179688 201.6875 121.386719 C 201.714844 121.847656 201.339844 122.324219 200.84375 122.460938 Z M 200.84375 122.460938 "/><path style=" stroke:none;fill-rule:nonzero;fill:rgb(22.749329%,10.5896%,5.879211%);fill-opacity:1;" d="M 172.550781 135.46875 C 171.945312 135.539062 171.496094 135.152344 171.570312 134.617188 C 171.640625 134.09375 172.171875 133.625 172.765625 133.554688 C 172.921875 133.539062 173.066406 133.550781 173.195312 133.585938 C 173.195312 133.589844 173.199219 133.585938 173.203125 133.585938 C 173.207031 133.582031 173.207031 133.578125 173.207031 133.578125 L 171.761719 130.183594 L 171.507812 129.585938 L 171.464844 129.480469 L 176.277344 127.933594 L 176.320312 128.039062 L 176.574219 128.636719 L 178.175781 132.398438 C 178.257812 132.59375 178.320312 132.714844 178.289062 132.949219 C 178.21875 133.46875 177.6875 133.941406 177.097656 134.007812 C 176.488281 134.078125 176.042969 133.691406 176.117188 133.15625 C 176.1875 132.632812 176.71875 132.164062 177.308594 132.097656 C 177.464844 132.078125 177.609375 132.089844 177.738281 132.125 C 177.742188 132.128906 177.746094 132.125 177.75 132.125 C 177.75 132.121094 177.75 132.117188 177.75 132.117188 L 176.308594 128.722656 L 172.03125 130.097656 L 173.628906 133.859375 C 173.714844 134.054688 173.777344 134.175781 173.746094 134.410156 C 173.675781 134.929688 173.144531 135.402344 172.550781 135.46875 Z M 172.550781 135.46875 "/><path style=" stroke:none;fill-rule:nonzero;fill:rgb(22.749329%,10.5896%,5.879211%);fill-opacity:1;" d="M 141.933594 128.558594 C 141.492188 128.035156 141.714844 127.355469 142.425781 127.066406 C 143.121094 126.785156 144.019531 126.96875 144.453125 127.480469 C 144.570312 127.621094 144.644531 127.773438 144.671875 127.925781 L 148.6875 123.644531 C 148.691406 123.640625 148.699219 123.640625 148.703125 123.644531 L 148.949219 123.824219 C 148.957031 123.828125 148.957031 123.835938 148.953125 123.839844 C 147.949219 125.363281 148.832031 127.382812 147.175781 128.234375 C 147.003906 128.324219 146.695312 128.457031 146.371094 128.519531 C 146.34375 128.523438 146.316406 128.511719 146.308594 128.488281 C 146.300781 128.460938 146.3125 128.433594 146.339844 128.421875 C 146.585938 128.296875 146.882812 128.167969 147.019531 128.066406 C 147.289062 127.863281 147.480469 127.675781 147.59375 127.480469 C 148.078125 126.636719 147.402344 125.953125 147.542969 125.339844 L 144.582031 128.5 C 144.382812 128.710938 144.269531 128.851562 143.960938 128.976562 C 143.265625 129.257812 142.367188 129.070312 141.933594 128.558594 Z M 141.933594 128.558594 "/><path style=" stroke:none;fill-rule:nonzero;fill:rgb(22.749329%,10.5896%,5.879211%);fill-opacity:1;" d="M 164.453125 159.636719 C 164.097656 160.238281 163.464844 160.660156 162.738281 160.847656 L 162.738281 156.222656 C 162.964844 156.269531 163.171875 156.347656 163.355469 156.410156 C 163.988281 156.636719 165.308594 158.175781 164.453125 159.636719 Z M 159.609375 160.105469 C 158.097656 158.730469 157.484375 156.640625 159.097656 154.894531 C 159.84375 154.085938 160.929688 153.148438 161.996094 152.164062 L 161.996094 154.523438 C 160.59375 154.816406 159.769531 156.203125 159.808594 157.347656 C 159.851562 158.707031 160.445312 159.683594 160.941406 159.886719 C 160.941406 159.886719 161.265625 160.117188 161.40625 159.8125 C 161.449219 159.703125 161.398438 159.609375 161.285156 159.515625 C 161.164062 159.429688 159.804688 158.558594 160.761719 157.175781 C 161.179688 156.578125 161.601562 156.3125 161.996094 156.222656 L 161.996094 160.953125 C 161.160156 160.984375 160.285156 160.722656 159.609375 160.105469 Z M 164.695312 144.449219 C 166.164062 145.5625 164.214844 148.277344 162.738281 149.925781 L 162.738281 148.199219 C 162.980469 145.878906 163.515625 143.554688 164.695312 144.449219 Z M 162.828125 154.480469 C 162.796875 154.476562 162.765625 154.476562 162.738281 154.476562 L 162.738281 151.464844 C 163.707031 150.535156 164.589844 149.585938 165.105469 148.683594 C 166.566406 146.144531 166.359375 143.414062 164.679688 142.957031 C 163 142.496094 161.945312 146.675781 161.996094 148.675781 L 161.996094 150.707031 C 161.832031 150.867188 161.695312 151 161.589844 151.09375 C 160.332031 152.214844 157.566406 154.007812 157.21875 156.21875 C 156.753906 159.148438 159.527344 161.34375 161.996094 161.445312 L 161.996094 165.617188 C 161.996094 165.617188 161.871094 166.597656 160.902344 166.597656 C 159.304688 166.597656 159.109375 165.796875 159.109375 165.796875 C 159.109375 165.796875 160.285156 166.042969 160.734375 165 C 160.734375 165 161.230469 163.527344 159.753906 163.097656 C 158.285156 162.667969 157.558594 164.054688 157.78125 165.191406 C 157.96875 166.167969 158.859375 167.238281 160.851562 167.257812 C 162.515625 167.269531 162.738281 166.175781 162.738281 165.617188 L 162.738281 161.410156 C 162.910156 161.382812 163.078125 161.347656 163.242188 161.296875 C 165.890625 160.5 166.289062 157.890625 165.988281 156.980469 C 165.632812 155.894531 164.726562 154.667969 162.828125 154.480469 "/><path style=" stroke:none;fill-rule:nonzero;fill:rgb(22.749329%,10.5896%,5.879211%);fill-opacity:1;" d="M 225.210938 143.925781 C 224.261719 143.109375 224.167969 142.914062 224.09375 142.480469 L 224.09375 142.175781 L 223.84375 142.375 L 223.84375 147.917969 C 223.804688 147.894531 223.261719 147.542969 222.480469 147.835938 C 221.671875 148.136719 221.886719 148.714844 222.011719 148.878906 C 222.144531 149.058594 222.824219 149.414062 223.640625 148.976562 C 223.640625 148.976562 224.101562 148.769531 224.09375 148.117188 C 224.09375 147.964844 224.09375 147.894531 224.09375 147.242188 L 224.09375 143.742188 C 224.355469 143.828125 226.300781 144.550781 225.292969 146.816406 C 225.292969 146.816406 226.683594 145.203125 225.210938 143.925781 "/><path style=" stroke:none;fill-rule:nonzero;fill:rgb(22.749329%,10.5896%,5.879211%);fill-opacity:1;" d="M 198.886719 154.082031 C 197.949219 153.277344 197.429688 152.773438 197.125 152.367188 L 197.125 150.300781 C 197.613281 150.457031 200.925781 151.691406 199.917969 155.390625 C 199.707031 154.949219 199.375 154.503906 198.886719 154.082031 Z M 199.363281 150.667969 C 197.460938 149.027344 197.277344 148.640625 197.125 147.769531 L 197.125 147.164062 L 196.628906 147.554688 L 196.628906 158.667969 C 196.550781 158.617188 195.457031 157.910156 193.894531 158.496094 C 192.273438 159.101562 192.703125 160.257812 192.953125 160.589844 C 193.222656 160.953125 194.582031 161.664062 196.21875 160.78125 C 196.21875 160.78125 197.140625 160.371094 197.128906 159.066406 C 197.125 158.761719 197.128906 158.621094 197.125 157.308594 L 197.125 153.90625 C 198.277344 154.433594 200.75 156.066406 199.054688 159.871094 C 199.054688 159.871094 200.820312 157.824219 200.050781 155.699219 C 200.683594 154.589844 201.4375 152.464844 199.363281 150.667969 "/><path style=" stroke:none;fill-rule:nonzero;fill:rgb(22.749329%,10.5896%,5.879211%);fill-opacity:1;" d="M 177.25 166.09375 C 177.316406 165.859375 177.351562 165.59375 177.347656 165.289062 C 177.34375 164.902344 177.347656 150.355469 177.347656 150.355469 L 176.722656 150.851562 L 176.722656 164.789062 C 176.714844 164.785156 176.695312 164.769531 176.667969 164.753906 C 176.101562 164.304688 175.199219 164.074219 174.222656 164.195312 C 172.675781 164.390625 171.527344 165.390625 171.65625 166.433594 C 171.789062 167.472656 173.144531 168.160156 174.691406 167.964844 C 175.34375 167.882812 175.925781 167.660156 176.371094 167.347656 C 176.429688 167.308594 176.5 167.257812 176.578125 167.1875 C 176.945312 166.875 177.1875 166.496094 177.25 166.09375 "/><path style=" stroke:none;fill-rule:nonzero;fill:rgb(22.749329%,10.5896%,5.879211%);fill-opacity:1;" d="M 206.492188 154.964844 C 205.808594 155.050781 205.203125 154.746094 205.144531 154.28125 C 205.089844 153.820312 205.597656 153.375 206.285156 153.289062 C 206.972656 153.203125 207.574219 153.507812 207.632812 153.972656 C 207.691406 154.433594 207.179688 154.878906 206.492188 154.964844 Z M 208.1875 144.382812 L 207.800781 144.6875 L 207.800781 153.316406 L 207.765625 153.292969 C 207.417969 153.015625 206.859375 152.875 206.253906 152.949219 C 205.296875 153.070312 204.585938 153.691406 204.664062 154.335938 C 204.746094 154.976562 205.585938 155.402344 206.542969 155.285156 C 206.949219 155.234375 207.308594 155.09375 207.582031 154.898438 C 207.621094 154.875 207.664062 154.84375 207.710938 154.800781 C 207.9375 154.609375 208.089844 154.371094 208.128906 154.125 C 208.167969 153.980469 208.191406 153.816406 208.191406 153.625 C 208.1875 153.386719 208.1875 144.382812 208.1875 144.382812 "/><path style=" stroke:none;fill-rule:nonzero;fill:rgb(22.749329%,10.5896%,5.879211%);fill-opacity:1;" d="M 185.097656 160.757812 C 184.046875 160.890625 183.125 160.425781 183.035156 159.714844 C 182.945312 159.007812 183.726562 158.328125 184.777344 158.199219 C 185.828125 158.066406 186.75 158.535156 186.839844 159.238281 C 186.925781 159.945312 186.148438 160.628906 185.097656 160.757812 Z M 187.6875 144.574219 L 187.097656 145.042969 L 187.097656 158.242188 C 187.089844 158.234375 187.070312 158.222656 187.042969 158.207031 C 186.507812 157.78125 185.652344 157.5625 184.726562 157.679688 C 183.261719 157.863281 182.175781 158.808594 182.300781 159.796875 C 182.421875 160.78125 183.710938 161.433594 185.171875 161.25 C 185.792969 161.171875 186.339844 160.957031 186.761719 160.664062 C 186.816406 160.625 186.882812 160.578125 186.957031 160.511719 C 187.304688 160.214844 187.535156 159.855469 187.59375 159.476562 C 187.65625 159.257812 187.691406 159.003906 187.6875 158.710938 C 187.683594 158.347656 187.6875 144.574219 187.6875 144.574219 "/><path style=" stroke:none;fill-rule:nonzero;fill:rgb(22.749329%,10.5896%,5.879211%);fill-opacity:1;" d="M 218.832031 150.046875 L 218.832031 143.03125 L 213.347656 143.921875 L 213.347656 150.691406 C 213.105469 150.589844 212.804688 150.546875 212.484375 150.589844 C 211.777344 150.675781 211.253906 151.136719 211.3125 151.613281 C 211.371094 152.089844 211.992188 152.402344 212.703125 152.3125 C 213 152.277344 213.265625 152.171875 213.46875 152.03125 C 213.496094 152.011719 213.527344 151.988281 213.5625 151.957031 C 213.734375 151.8125 213.84375 151.640625 213.871094 151.457031 C 213.902344 151.351562 213.917969 151.226562 213.917969 151.085938 C 213.917969 151.070312 213.917969 150.996094 213.917969 150.871094 L 213.917969 145.753906 L 218.261719 144.992188 L 218.261719 149.867188 C 218.023438 149.765625 217.722656 149.722656 217.402344 149.765625 C 216.695312 149.851562 216.167969 150.3125 216.226562 150.785156 C 216.289062 151.261719 216.910156 151.578125 217.617188 151.488281 C 217.917969 151.453125 218.183594 151.347656 218.386719 151.207031 C 218.414062 151.1875 218.445312 151.164062 218.480469 151.132812 C 218.648438 150.988281 218.761719 150.816406 218.789062 150.632812 C 218.816406 150.53125 218.832031 150.417969 218.832031 150.289062 L 218.832031 150.261719 C 218.832031 150.246094 218.832031 150.171875 218.832031 150.046875 "/><g clip-rule="nonzero" clip-path="url(#clip5)"><path style=" stroke:none;fill-rule:nonzero;fill:rgb(22.749329%,10.5896%,5.879211%);fill-opacity:1;" d="M 228.417969 142.070312 C 202.667969 141 176.917969 161.242188 151.167969 139.765625 L 151.167969 140.503906 C 176.917969 161.796875 202.667969 141.367188 228.417969 142.253906 L 228.417969 142.070312 "/></g><g clip-rule="nonzero" clip-path="url(#clip6)"><path style=" stroke:none;fill-rule:nonzero;fill:rgb(22.749329%,10.5896%,5.879211%);fill-opacity:1;" d="M 228.417969 143.515625 C 202.667969 143.933594 176.917969 165.664062 151.167969 145.671875 L 151.167969 146.414062 C 176.917969 166.21875 202.667969 144.300781 228.417969 143.695312 L 228.417969 143.515625 "/></g><g clip-rule="nonzero" clip-path="url(#clip7)"><path style=" stroke:none;fill-rule:nonzero;fill:rgb(22.749329%,10.5896%,5.879211%);fill-opacity:1;" d="M 228.417969 144.960938 C 202.667969 146.867188 176.917969 170.082031 151.167969 151.578125 L 151.167969 152.320312 C 176.917969 170.636719 202.667969 147.234375 228.417969 145.140625 L 228.417969 144.960938 "/></g><g clip-rule="nonzero" clip-path="url(#clip8)"><path style=" stroke:none;fill-rule:nonzero;fill:rgb(22.749329%,10.5896%,5.879211%);fill-opacity:1;" d="M 228.417969 146.40625 C 202.667969 149.796875 176.917969 174.503906 151.167969 157.488281 L 151.167969 158.226562 C 176.917969 175.054688 202.667969 150.164062 228.417969 146.585938 L 228.417969 146.40625 "/></g><g clip-rule="nonzero" clip-path="url(#clip9)"><path style=" stroke:none;fill-rule:nonzero;fill:rgb(22.749329%,10.5896%,5.879211%);fill-opacity:1;" d="M 228.417969 147.851562 C 202.667969 152.730469 176.917969 178.921875 151.167969 163.394531 L 151.167969 164.136719 C 176.917969 179.476562 202.667969 153.097656 228.417969 148.03125 L 228.417969 147.851562 "/></g><g style="fill:rgb(22.749329%,10.5896%,5.879211%);fill-opacity:1;"><g transform="translate(117.900077, 243.208431)"><path style="stroke:none;" d="M 7.441406 0 L 8.761719 0 C 8.761719 -0.457031 8.902344 -0.9375 9.238281 -1.847656 L 12.144531 -9.359375 L 15.769531 0 L 17.113281 0 C 17.113281 -0.457031 17.230469 -0.9375 17.566406 -1.847656 L 21.742188 -12.671875 C 22.199219 -13.824219 22.753906 -14.183594 23.878906 -14.425781 L 23.878906 -14.902344 L 19.34375 -14.902344 L 19.34375 -14.425781 C 20.710938 -14.230469 21.238281 -13.726562 20.855469 -12.671875 L 17.207031 -3.144531 C 17.039062 -2.734375 16.894531 -2.734375 16.726562 -3.144531 L 13.03125 -12.792969 C 12.648438 -13.777344 12.601562 -14.160156 14.089844 -14.425781 L 14.089844 -14.902344 L 8.832031 -14.902344 L 8.832031 -14.398438 C 10.054688 -14.230469 10.390625 -13.777344 11.089844 -12.046875 C 11.351562 -11.351562 11.640625 -10.34375 11.230469 -9.238281 L 8.878906 -3.144531 C 8.710938 -2.734375 8.566406 -2.734375 8.398438 -3.144531 L 4.679688 -12.792969 C 4.320312 -13.777344 4.246094 -14.160156 5.761719 -14.425781 L 5.761719 -14.902344 L 0.480469 -14.902344 L 0.480469 -14.398438 C 1.703125 -14.230469 2.0625 -13.777344 2.734375 -12.046875 Z M 7.441406 0 "/></g></g><g style="fill:rgb(22.749329%,10.5896%,5.879211%);fill-opacity:1;"><g transform="translate(142.26013, 243.208431)"><path style="stroke:none;" d="M 3.839844 0.144531 C 5.375 0.144531 6.910156 -0.527344 7.777344 -1.609375 C 7.945312 -1.824219 8.136719 -1.824219 8.136719 -1.609375 C 8.160156 -0.382812 8.808594 0.121094 9.769531 0.121094 C 10.246094 0.121094 10.824219 -0.0234375 11.257812 -0.3125 L 11.257812 -0.769531 C 10.464844 -0.574219 10.054688 -0.886719 10.054688 -1.726562 L 10.054688 -7.105469 C 10.054688 -9.769531 9.046875 -11.039062 6.289062 -11.039062 C 3.984375 -11.039062 1.511719 -10.105469 1.511719 -8.449219 C 1.511719 -7.824219 1.847656 -7.390625 2.472656 -7.390625 C 3.121094 -7.390625 3.527344 -7.800781 3.527344 -8.640625 C 3.527344 -9.769531 4.128906 -10.414062 5.425781 -10.414062 C 7.320312 -10.414062 8.136719 -9.191406 8.136719 -7.535156 L 8.136719 -7.03125 C 8.136719 -6.550781 7.921875 -6.40625 7.585938 -6.382812 C 2.183594 -5.761719 0.71875 -4.34375 0.71875 -2.496094 C 0.71875 -0.625 2.230469 0.144531 3.839844 0.144531 Z M 5.039062 -0.960938 C 3.527344 -0.960938 2.808594 -1.992188 2.808594 -3.070312 C 2.808594 -4.199219 3.648438 -5.328125 7.175781 -5.761719 C 8.015625 -5.855469 8.136719 -5.496094 8.136719 -4.945312 L 8.136719 -3.503906 C 8.136719 -2.183594 6.695312 -0.960938 5.039062 -0.960938 Z M 5.039062 -0.960938 "/></g></g><g style="fill:rgb(22.749329%,10.5896%,5.879211%);fill-opacity:1;"><g transform="translate(153.996148, 243.208431)"><path style="stroke:none;" d="M 0.625 0 L 5.6875 0 L 5.6875 -0.480469 C 4.488281 -0.625 4.078125 -0.886719 4.078125 -1.777344 L 4.078125 -6.265625 C 4.078125 -8.519531 5.257812 -9.9375 6.625 -9.9375 C 7.414062 -9.9375 7.847656 -9.40625 7.847656 -8.785156 C 7.847656 -8.351562 8.230469 -7.945312 8.855469 -7.945312 C 9.480469 -7.945312 9.960938 -8.425781 9.960938 -9.121094 C 9.960938 -9.769531 9.625 -11.039062 7.753906 -11.039062 C 6.023438 -11.039062 4.921875 -9.816406 4.585938 -9.480469 C 4.246094 -9.144531 4.078125 -9.359375 4.078125 -10.273438 C 4.078125 -10.871094 3.769531 -11.113281 3.238281 -10.992188 L 0.601562 -10.390625 L 0.601562 -9.9375 C 1.945312 -10.078125 2.160156 -9.625 2.160156 -8.566406 L 2.160156 -1.777344 C 2.160156 -0.886719 1.753906 -0.625 0.625 -0.480469 Z M 0.625 0 "/></g></g><g style="fill:rgb(22.749329%,10.5896%,5.879211%);fill-opacity:1;"><g transform="translate(164.316166, 243.208431)"><path style="stroke:none;" d="M 11.183594 -1.753906 L 11.183594 -15.046875 C 11.183594 -15.601562 10.871094 -15.839844 10.34375 -15.71875 L 7.703125 -15.144531 L 7.703125 -14.6875 C 9.046875 -14.808594 9.265625 -14.375 9.265625 -13.320312 L 9.265625 -11.015625 C 9.265625 -9.648438 8.230469 -11.039062 5.953125 -11.039062 C 3.214844 -11.039062 0.71875 -8.976562 0.71875 -5.28125 C 0.71875 -1.992188 2.832031 0.144531 5.472656 0.144531 C 6.910156 0.144531 8.230469 -0.480469 9.265625 -1.726562 L 9.265625 -1.703125 C 9.265625 -0.3125 9.886719 0.121094 10.945312 0.121094 C 11.449219 0.121094 12.023438 0.0234375 12.742188 -0.433594 L 12.742188 -0.9375 C 11.59375 -0.601562 11.183594 -0.9375 11.183594 -1.753906 Z M 6.550781 -1.175781 C 4.199219 -1.175781 2.6875 -3.335938 2.6875 -6.214844 C 2.6875 -8.710938 3.816406 -10.390625 5.734375 -10.390625 C 7.34375 -10.390625 9.265625 -9.359375 9.265625 -7.054688 L 9.265625 -3.648438 C 9.265625 -1.753906 7.726562 -1.175781 6.550781 -1.175781 Z M 6.550781 -1.175781 "/></g></g><g style="fill:rgb(22.749329%,10.5896%,5.879211%);fill-opacity:1;"><g transform="translate(177.420189, 243.208431)"><path style="stroke:none;" d="M 2.902344 -13.632812 C 3.527344 -13.632812 4.105469 -14.207031 4.105469 -14.855469 C 4.105469 -15.503906 3.527344 -16.054688 2.902344 -16.054688 C 2.257812 -16.054688 1.703125 -15.503906 1.703125 -14.855469 C 1.703125 -14.207031 2.257812 -13.632812 2.902344 -13.632812 Z M 0.625 0 L 5.640625 0 L 5.640625 -0.480469 C 4.488281 -0.625 4.078125 -0.886719 4.078125 -1.777344 L 4.078125 -10.296875 C 4.078125 -10.871094 3.769531 -11.113281 3.238281 -10.992188 L 0.601562 -10.390625 L 0.601562 -9.9375 C 1.945312 -10.078125 2.160156 -9.625 2.160156 -8.566406 L 2.160156 -1.777344 C 2.160156 -0.886719 1.753906 -0.625 0.625 -0.480469 Z M 0.625 0 "/></g></g><g style="fill:rgb(22.749329%,10.5896%,5.879211%);fill-opacity:1;"><g transform="translate(183.660205, 243.208431)"><path style="stroke:none;" d="M 10.222656 -2.519531 C 9.40625 -1.488281 8.351562 -1.175781 7.320312 -1.175781 C 5.183594 -1.175781 3.480469 -2.472656 2.902344 -4.585938 C 2.832031 -5.160156 2.929688 -5.472656 3.40625 -5.472656 L 6.214844 -5.519531 C 9.289062 -5.59375 10.585938 -6 10.585938 -7.511719 C 10.585938 -9.480469 8.878906 -11.039062 6.335938 -11.039062 C 3.433594 -11.039062 0.71875 -9 0.71875 -5.425781 C 0.71875 -1.992188 3.265625 0.144531 6.265625 0.144531 C 8.6875 0.144531 10.175781 -1.367188 10.632812 -2.207031 Z M 5.953125 -10.464844 C 7.679688 -10.464844 8.617188 -9.335938 8.617188 -7.753906 C 8.617188 -6.648438 7.871094 -6.097656 5.566406 -6.070312 L 3.457031 -6.023438 C 2.953125 -6.023438 2.6875 -6.167969 2.734375 -7.03125 C 2.929688 -9.144531 4.03125 -10.464844 5.953125 -10.464844 Z M 5.953125 -10.464844 "/></g></g><g style="fill:rgb(22.749329%,10.5896%,5.879211%);fill-opacity:1;"><g transform="translate(195.084223, 243.208431)"><path style="stroke:none;" d="M 0.625 0 L 5.6875 0 L 5.6875 -0.480469 C 4.488281 -0.625 4.078125 -0.886719 4.078125 -1.777344 L 4.078125 -6.265625 C 4.078125 -8.519531 5.257812 -9.9375 6.625 -9.9375 C 7.414062 -9.9375 7.847656 -9.40625 7.847656 -8.785156 C 7.847656 -8.351562 8.230469 -7.945312 8.855469 -7.945312 C 9.480469 -7.945312 9.960938 -8.425781 9.960938 -9.121094 C 9.960938 -9.769531 9.625 -11.039062 7.753906 -11.039062 C 6.023438 -11.039062 4.921875 -9.816406 4.585938 -9.480469 C 4.246094 -9.144531 4.078125 -9.359375 4.078125 -10.273438 C 4.078125 -10.871094 3.769531 -11.113281 3.238281 -10.992188 L 0.601562 -10.390625 L 0.601562 -9.9375 C 1.945312 -10.078125 2.160156 -9.625 2.160156 -8.566406 L 2.160156 -1.777344 C 2.160156 -0.886719 1.753906 -0.625 0.625 -0.480469 Z M 0.625 0 "/></g></g><g style="fill:rgb(22.749329%,10.5896%,5.879211%);fill-opacity:1;"><g transform="translate(205.404241, 243.208431)"><path style="stroke:none;" d="M 10.222656 -2.519531 C 9.40625 -1.488281 8.351562 -1.175781 7.320312 -1.175781 C 5.183594 -1.175781 3.480469 -2.472656 2.902344 -4.585938 C 2.832031 -5.160156 2.929688 -5.472656 3.40625 -5.472656 L 6.214844 -5.519531 C 9.289062 -5.59375 10.585938 -6 10.585938 -7.511719 C 10.585938 -9.480469 8.878906 -11.039062 6.335938 -11.039062 C 3.433594 -11.039062 0.71875 -9 0.71875 -5.425781 C 0.71875 -1.992188 3.265625 0.144531 6.265625 0.144531 C 8.6875 0.144531 10.175781 -1.367188 10.632812 -2.207031 Z M 5.953125 -10.464844 C 7.679688 -10.464844 8.617188 -9.335938 8.617188 -7.753906 C 8.617188 -6.648438 7.871094 -6.097656 5.566406 -6.070312 L 3.457031 -6.023438 C 2.953125 -6.023438 2.6875 -6.167969 2.734375 -7.03125 C 2.929688 -9.144531 4.03125 -10.464844 5.953125 -10.464844 Z M 5.953125 -10.464844 "/></g></g><g style="fill:rgb(22.749329%,10.5896%,5.879211%);fill-opacity:1;"><g transform="translate(216.828259, 243.208431)"><path style="stroke:none;" d=""/></g></g><g style="fill:rgb(22.749329%,10.5896%,5.879211%);fill-opacity:1;"><g transform="translate(221.148267, 243.208431)"><path style="stroke:none;" d="M 0.71875 0 L 5.808594 0 L 5.808594 -0.503906 C 4.847656 -0.671875 4.34375 -0.839844 4.34375 -1.726562 L 4.34375 -13.175781 C 4.34375 -14.0625 4.847656 -14.230469 5.808594 -14.425781 L 5.808594 -14.902344 L 0.71875 -14.902344 L 0.71875 -14.425781 C 1.679688 -14.230469 2.160156 -14.0625 2.160156 -13.175781 L 2.160156 -1.726562 C 2.160156 -0.839844 1.679688 -0.671875 0.71875 -0.503906 Z M 0.71875 0 "/></g></g><g style="fill:rgb(22.749329%,10.5896%,5.879211%);fill-opacity:1;"><g transform="translate(227.676285, 243.208431)"><path style="stroke:none;" d="M 11.28125 0.121094 C 11.878906 0.121094 12.359375 -0.046875 12.816406 -0.3125 L 12.816406 -0.769531 C 12.023438 -0.574219 11.617188 -0.886719 11.617188 -1.726562 L 11.617188 -7.128906 C 11.617188 -9.9375 9.910156 -11.039062 8.113281 -11.039062 C 6.023438 -11.039062 4.945312 -9.71875 4.632812 -9.382812 C 4.296875 -9.046875 4.078125 -9.359375 4.078125 -10.273438 C 4.078125 -10.871094 3.769531 -11.113281 3.238281 -10.992188 L 0.601562 -10.390625 L 0.601562 -9.9375 C 1.945312 -10.078125 2.160156 -9.625 2.160156 -8.566406 L 2.160156 -1.777344 C 2.160156 -0.886719 1.753906 -0.625 0.625 -0.480469 L 0.625 0 L 5.640625 0 L 5.640625 -0.480469 C 4.488281 -0.625 4.078125 -0.886719 4.078125 -1.777344 L 4.078125 -6.625 C 4.078125 -8.398438 5.257812 -9.839844 6.984375 -9.839844 C 8.785156 -9.839844 9.695312 -8.472656 9.695312 -6.625 L 9.695312 -1.511719 C 9.695312 -0.3125 10.320312 0.121094 11.28125 0.121094 Z M 11.28125 0.121094 "/></g></g><g style="fill:rgb(22.749329%,10.5896%,5.879211%);fill-opacity:1;"><g transform="translate(240.972316, 243.208431)"><path style="stroke:none;" d="M 6.382812 0.144531 C 8.832031 0.144531 10.296875 -1.367188 10.753906 -2.207031 L 10.367188 -2.519531 C 9.527344 -1.488281 8.496094 -1.175781 7.414062 -1.175781 C 4.800781 -1.175781 2.6875 -3.121094 2.6875 -6.289062 C 2.6875 -8.808594 4.054688 -10.464844 6.070312 -10.464844 C 7.800781 -10.464844 8.449219 -9.214844 8.449219 -8.136719 C 8.449219 -7.390625 8.976562 -7.078125 9.527344 -7.078125 C 10.199219 -7.078125 10.585938 -7.585938 10.585938 -8.183594 C 10.585938 -9.503906 9.121094 -11.039062 6.648438 -11.039062 C 3.574219 -11.039062 0.71875 -8.953125 0.71875 -5.375 C 0.71875 -1.992188 3.40625 0.144531 6.382812 0.144531 Z M 6.382812 0.144531 "/></g></g><g style="fill:rgb(22.749329%,10.5896%,5.879211%);fill-opacity:1;"><g transform="translate(252.564334, 243.208431)"><path style="stroke:none;" d="M 2.257812 0.144531 C 2.976562 0.144531 3.574219 -0.457031 3.574219 -1.175781 C 3.574219 -1.894531 2.976562 -2.496094 2.257812 -2.496094 C 1.558594 -2.496094 0.960938 -1.894531 0.960938 -1.175781 C 0.960938 -0.457031 1.558594 0.144531 2.257812 0.144531 Z M 2.257812 0.144531 "/></g></g><g style="fill:rgb(22.749329%,10.5896%,5.879211%);fill-opacity:1;"><g transform="translate(135.967913, 271.291506)"><path style="stroke:none;" d="M 12.25 -0.71875 C 12.25 -0.414062 12.457031 -0.265625 12.875 -0.265625 C 13.488281 -0.265625 14.226562 -0.519531 15.09375 -1.03125 C 15.375 -1.195312 15.617188 -1.382812 15.828125 -1.59375 C 15.867188 -1.570312 15.890625 -1.523438 15.890625 -1.453125 C 15.890625 -1.316406 15.867188 -1.234375 15.828125 -1.203125 C 15.140625 -0.640625 14.3125 -0.257812 13.34375 -0.0625 C 13.082031 -0.0078125 12.796875 0.015625 12.484375 0.015625 C 12.171875 0.015625 11.910156 -0.078125 11.703125 -0.265625 C 11.492188 -0.460938 11.390625 -0.660156 11.390625 -0.859375 C 11.390625 -1.054688 11.40625 -1.234375 11.4375 -1.390625 C 11.476562 -1.554688 11.554688 -1.753906 11.671875 -1.984375 C 12.148438 -3.054688 13.035156 -4.414062 14.328125 -6.0625 L 16.015625 -8.125 L 17.796875 -10.125 L 19.53125 -12.015625 L 21.171875 -13.6875 L 22.609375 -15.109375 C 22.390625 -14.960938 22.160156 -14.789062 21.921875 -14.59375 L 21.109375 -13.921875 L 18.75 -11.78125 L 14.90625 -8.125 C 12.894531 -6.226562 10.679688 -3.863281 8.265625 -1.03125 C 7.710938 -0.394531 7.347656 -0.078125 7.171875 -0.078125 C 7.117188 -0.078125 7.0625 -0.109375 7 -0.171875 C 6.945312 -0.242188 6.921875 -0.421875 6.921875 -0.703125 C 6.921875 -0.984375 7.015625 -1.410156 7.203125 -1.984375 C 7.398438 -2.566406 7.675781 -3.210938 8.03125 -3.921875 C 8.382812 -4.628906 8.8125 -5.390625 9.3125 -6.203125 C 9.820312 -7.023438 10.390625 -7.882812 11.015625 -8.78125 C 12.347656 -10.632812 13.835938 -12.488281 15.484375 -14.34375 L 14.625 -13.53125 L 13.28125 -12.140625 L 11.359375 -10.109375 L 8.859375 -7.375 C 5.765625 -3.976562 3.144531 -1.734375 1 -0.640625 C 0.15625 -0.203125 -0.597656 0.015625 -1.265625 0.015625 C -1.941406 0.015625 -2.445312 -0.109375 -2.78125 -0.359375 C -3.125 -0.617188 -3.296875 -0.953125 -3.296875 -1.359375 C -3.296875 -1.660156 -3.210938 -1.878906 -3.046875 -2.015625 C -2.796875 -2.234375 -2.582031 -2.34375 -2.40625 -2.34375 C -1.96875 -2.34375 -1.75 -2.175781 -1.75 -1.84375 C -1.75 -1.707031 -1.804688 -1.582031 -1.921875 -1.46875 C -2.046875 -1.363281 -2.207031 -1.3125 -2.40625 -1.3125 C -2.601562 -1.3125 -2.757812 -1.347656 -2.875 -1.421875 L -2.890625 -1.296875 C -2.890625 -0.984375 -2.753906 -0.734375 -2.484375 -0.546875 C -2.210938 -0.367188 -1.859375 -0.28125 -1.421875 -0.28125 C -0.984375 -0.28125 -0.550781 -0.34375 -0.125 -0.46875 C 0.289062 -0.601562 0.753906 -0.820312 1.265625 -1.125 C 1.785156 -1.4375 2.359375 -1.835938 2.984375 -2.328125 C 3.617188 -2.828125 4.320312 -3.429688 5.09375 -4.140625 C 5.875 -4.859375 6.734375 -5.695312 7.671875 -6.65625 L 10.78125 -9.953125 C 12.613281 -11.960938 14.179688 -13.546875 15.484375 -14.703125 C 16.421875 -15.523438 16.972656 -15.9375 17.140625 -15.9375 C 17.328125 -15.9375 17.421875 -15.898438 17.421875 -15.828125 C 17.421875 -15.785156 17.378906 -15.726562 17.296875 -15.65625 L 17 -15.390625 C 16.65625 -15.085938 16.304688 -14.6875 15.953125 -14.1875 L 14.796875 -12.5 L 11.96875 -8.140625 C 9.34375 -3.878906 7.863281 -1.398438 7.53125 -0.703125 L 9.328125 -2.75 L 10.875 -4.484375 L 12.359375 -6.078125 L 13.90625 -7.65625 L 15.65625 -9.375 L 17.78125 -11.390625 C 21.039062 -14.441406 23.09375 -15.96875 23.9375 -15.96875 C 24.007812 -15.96875 24.046875 -15.941406 24.046875 -15.890625 C 24.046875 -15.828125 23.953125 -15.734375 23.765625 -15.609375 C 23.578125 -15.484375 23.3125 -15.269531 22.96875 -14.96875 C 22.625 -14.675781 22.1875 -14.238281 21.65625 -13.65625 C 21.125 -13.070312 20.582031 -12.4375 20.03125 -11.75 L 18.328125 -9.578125 L 16.609375 -7.234375 C 14.023438 -3.617188 12.664062 -1.679688 12.53125 -1.421875 C 12.34375 -1.078125 12.25 -0.84375 12.25 -0.71875 Z M 12.25 -0.71875 "/></g></g><g style="fill:rgb(22.749329%,10.5896%,5.879211%);fill-opacity:1;"><g transform="translate(154.763403, 271.291506)"><path style="stroke:none;" d="M -0.875 -0.640625 C -0.875 -0.378906 -0.703125 -0.25 -0.359375 -0.25 C 0.117188 -0.25 0.632812 -0.429688 1.1875 -0.796875 C 2.375 -1.585938 3.613281 -2.773438 4.90625 -4.359375 C 4.90625 -4.359375 5.71875 -5.335938 7.34375 -7.296875 C 7.6875 -7.253906 8 -7.234375 8.28125 -7.234375 C 8.5625 -7.234375 8.796875 -7.242188 8.984375 -7.265625 L 7.921875 -6.046875 L 4.125 -1.421875 C 3.875 -1.109375 3.75 -0.859375 3.75 -0.671875 C 3.75 -0.410156 3.921875 -0.28125 4.265625 -0.28125 C 4.609375 -0.28125 4.960938 -0.367188 5.328125 -0.546875 C 5.703125 -0.734375 6.070312 -0.96875 6.4375 -1.25 C 6.8125 -1.53125 7.171875 -1.835938 7.515625 -2.171875 C 7.867188 -2.503906 8.1875 -2.816406 8.46875 -3.109375 L 9.609375 -4.359375 L 9.8125 -4.171875 L 9.40625 -3.703125 C 9.195312 -3.472656 8.941406 -3.203125 8.640625 -2.890625 L 7.640625 -1.90625 C 6.273438 -0.625 5.140625 0.015625 4.234375 0.015625 C 3.941406 0.015625 3.695312 -0.0625 3.5 -0.21875 C 3.3125 -0.382812 3.210938 -0.601562 3.203125 -0.875 C 3.191406 -1.394531 3.375 -1.984375 3.75 -2.640625 C 2.101562 -0.867188 0.707031 0.015625 -0.4375 0.015625 C -1.082031 0.015625 -1.492188 -0.210938 -1.671875 -0.671875 C -1.722656 -0.796875 -1.75 -0.957031 -1.75 -1.15625 C -1.757812 -1.363281 -1.710938 -1.601562 -1.609375 -1.875 C -1.515625 -2.15625 -1.363281 -2.457031 -1.15625 -2.78125 C -0.945312 -3.113281 -0.691406 -3.46875 -0.390625 -3.84375 L 1.546875 -6.1875 C 1.847656 -6.5625 2.164062 -6.929688 2.5 -7.296875 C 2.78125 -7.253906 3.007812 -7.234375 3.1875 -7.234375 L 3.546875 -7.234375 C 3.847656 -7.234375 4.046875 -7.242188 4.140625 -7.265625 C 3.296875 -6.347656 2.707031 -5.6875 2.375 -5.28125 L 0.234375 -2.703125 C -0.515625 -1.828125 -0.882812 -1.140625 -0.875 -0.640625 Z M -0.875 -0.640625 "/></g></g><g style="fill:rgb(22.749329%,10.5896%,5.879211%);fill-opacity:1;"><g transform="translate(164.290036, 271.291506)"><path style="stroke:none;" d="M 3.3125 -1.984375 C 3.394531 -1.960938 3.5 -1.953125 3.625 -1.953125 C 3.757812 -1.953125 3.921875 -2 4.109375 -2.09375 C 4.296875 -2.195312 4.488281 -2.328125 4.6875 -2.484375 C 4.882812 -2.648438 5.078125 -2.828125 5.265625 -3.015625 C 5.460938 -3.203125 5.640625 -3.382812 5.796875 -3.5625 C 5.960938 -3.738281 6.109375 -3.898438 6.234375 -4.046875 L 6.484375 -4.359375 L 6.71875 -4.171875 C 6.625 -4.085938 6.507812 -3.972656 6.375 -3.828125 L 5.9375 -3.3125 C 4.9375 -2.238281 4.144531 -1.703125 3.5625 -1.703125 L 3.390625 -1.703125 C 3.328125 -1.703125 3.269531 -1.707031 3.21875 -1.71875 C 2.613281 -0.40625 1.332031 0.25 -0.625 0.25 C -1.476562 0.25 -2.097656 0.046875 -2.484375 -0.359375 C -2.648438 -0.546875 -2.734375 -0.773438 -2.734375 -1.046875 C -2.734375 -1.328125 -2.664062 -1.566406 -2.53125 -1.765625 C -2.394531 -1.960938 -2.238281 -2.125 -2.0625 -2.25 C -1.695312 -2.519531 -1.367188 -2.65625 -1.078125 -2.65625 C -0.785156 -2.65625 -0.640625 -2.519531 -0.640625 -2.25 C -0.660156 -2.0625 -0.820312 -1.921875 -1.125 -1.828125 C -1.207031 -1.796875 -1.296875 -1.78125 -1.390625 -1.78125 C -1.484375 -1.78125 -1.566406 -1.8125 -1.640625 -1.875 C -1.722656 -1.9375 -1.789062 -1.984375 -1.84375 -2.015625 C -1.882812 -1.960938 -1.9375 -1.90625 -2 -1.84375 C -2.070312 -1.789062 -2.144531 -1.726562 -2.21875 -1.65625 C -2.375 -1.457031 -2.453125 -1.253906 -2.453125 -1.046875 C -2.453125 -0.847656 -2.382812 -0.6875 -2.25 -0.5625 C -2.113281 -0.445312 -1.953125 -0.359375 -1.765625 -0.296875 C -1.484375 -0.191406 -1.191406 -0.140625 -0.890625 -0.140625 C -0.585938 -0.140625 -0.273438 -0.203125 0.046875 -0.328125 C 0.378906 -0.460938 0.703125 -0.679688 1.015625 -0.984375 C 1.890625 -1.804688 2.359375 -3.023438 2.421875 -4.640625 C 2.472656 -5.734375 2.609375 -6.585938 2.828125 -7.203125 C 2.835938 -7.222656 2.84375 -7.253906 2.84375 -7.296875 L 0.296875 -4.171875 C 0.160156 -4.003906 0.0546875 -3.894531 -0.015625 -3.84375 C -0.0859375 -3.789062 -0.125 -3.765625 -0.125 -3.765625 C -0.207031 -3.765625 -0.265625 -3.785156 -0.296875 -3.828125 C -0.304688 -3.867188 -0.269531 -3.941406 -0.1875 -4.046875 C 1.65625 -6.242188 2.691406 -7.492188 2.921875 -7.796875 C 3.035156 -8.359375 3.222656 -8.640625 3.484375 -8.640625 C 3.597656 -8.640625 3.695312 -8.601562 3.78125 -8.53125 C 3.863281 -8.46875 3.90625 -8.390625 3.90625 -8.296875 C 3.90625 -8.160156 3.796875 -7.96875 3.578125 -7.71875 C 3.367188 -7.46875 3.238281 -7.304688 3.1875 -7.234375 C 3.144531 -7.171875 3.113281 -7.113281 3.09375 -7.0625 C 3.082031 -7.019531 3.078125 -6.976562 3.078125 -6.9375 L 3.078125 -6.8125 C 3.078125 -6.613281 3.097656 -6.382812 3.140625 -6.125 L 3.40625 -4.34375 C 3.5625 -3.363281 3.53125 -2.578125 3.3125 -1.984375 Z M 3.3125 -1.984375 "/></g></g><g style="fill:rgb(22.749329%,10.5896%,5.879211%);fill-opacity:1;"><g transform="translate(170.691243, 271.291506)"><path style="stroke:none;" d="M 5.6875 -9.703125 C 5.582031 -9.617188 5.460938 -9.546875 5.328125 -9.484375 C 5.203125 -9.429688 5.054688 -9.40625 4.890625 -9.40625 C 4.734375 -9.40625 4.59375 -9.46875 4.46875 -9.59375 C 4.351562 -9.71875 4.296875 -9.859375 4.296875 -10.015625 C 4.296875 -10.179688 4.320312 -10.320312 4.375 -10.4375 C 4.4375 -10.5625 4.519531 -10.671875 4.625 -10.765625 C 4.832031 -10.984375 5.054688 -11.09375 5.296875 -11.09375 C 5.546875 -11.09375 5.726562 -11.023438 5.84375 -10.890625 C 5.96875 -10.753906 6.03125 -10.609375 6.03125 -10.453125 C 6.03125 -10.296875 6 -10.15625 5.9375 -10.03125 C 5.875 -9.90625 5.789062 -9.796875 5.6875 -9.703125 Z M -1.140625 -0.609375 C -1.140625 -0.390625 -0.925781 -0.28125 -0.5 -0.28125 C -0.0820312 -0.28125 0.3125 -0.375 0.6875 -0.5625 C 1.0625 -0.757812 1.441406 -1.003906 1.828125 -1.296875 C 2.210938 -1.585938 2.582031 -1.90625 2.9375 -2.25 L 3.90625 -3.21875 C 4.195312 -3.507812 4.4375 -3.765625 4.625 -3.984375 C 4.8125 -4.203125 4.921875 -4.332031 4.953125 -4.375 L 5.171875 -4.171875 C 5.097656 -4.109375 4.960938 -3.957031 4.765625 -3.71875 C 4.566406 -3.488281 4.320312 -3.21875 4.03125 -2.90625 C 3.738281 -2.59375 3.410156 -2.265625 3.046875 -1.921875 C 2.679688 -1.578125 2.296875 -1.265625 1.890625 -0.984375 C 0.960938 -0.316406 0.15625 0.015625 -0.53125 0.015625 C -0.976562 0.015625 -1.332031 -0.0625 -1.59375 -0.21875 C -1.863281 -0.382812 -2 -0.566406 -2 -0.765625 C -2 -0.972656 -1.976562 -1.160156 -1.9375 -1.328125 C -1.894531 -1.492188 -1.816406 -1.691406 -1.703125 -1.921875 C -1.585938 -2.148438 -1.425781 -2.414062 -1.21875 -2.71875 C -1.007812 -3.03125 -0.742188 -3.398438 -0.421875 -3.828125 C -0.0976562 -4.265625 0.296875 -4.765625 0.765625 -5.328125 L 2.421875 -7.28125 C 2.503906 -7.257812 2.675781 -7.25 2.9375 -7.25 L 3.453125 -7.25 C 3.640625 -7.25 3.789062 -7.253906 3.90625 -7.265625 C 1.53125 -4.441406 0.195312 -2.832031 -0.09375 -2.4375 C -0.394531 -2.050781 -0.617188 -1.75 -0.765625 -1.53125 C -1.015625 -1.144531 -1.140625 -0.835938 -1.140625 -0.609375 Z M -1.140625 -0.609375 "/></g></g><g style="fill:rgb(22.749329%,10.5896%,5.879211%);fill-opacity:1;"><g transform="translate(175.556595, 271.291506)"><path style="stroke:none;" d="M 5.546875 -6.453125 C 5.523438 -6.867188 5.265625 -7.078125 4.765625 -7.078125 C 3.722656 -7.078125 2.378906 -5.992188 0.734375 -3.828125 C 0.046875 -2.929688 -0.296875 -2.117188 -0.296875 -1.390625 C -0.296875 -1.066406 -0.207031 -0.828125 -0.03125 -0.671875 C 0.269531 -0.390625 0.65625 -0.25 1.125 -0.25 C 1.59375 -0.25 2.085938 -0.34375 2.609375 -0.53125 C 3.140625 -0.726562 3.628906 -0.972656 4.078125 -1.265625 C 4.535156 -1.554688 4.945312 -1.875 5.3125 -2.21875 C 5.6875 -2.570312 6.007812 -2.898438 6.28125 -3.203125 C 6.550781 -3.503906 6.765625 -3.765625 6.921875 -3.984375 C 7.085938 -4.203125 7.179688 -4.328125 7.203125 -4.359375 L 7.4375 -4.171875 L 7.15625 -3.796875 C 5.8125 -2.023438 4.304688 -0.835938 2.640625 -0.234375 C 2.085938 -0.0351562 1.5625 0.0625 1.0625 0.0625 C 0.570312 0.0625 0.1875 0.015625 -0.09375 -0.078125 C -0.375 -0.179688 -0.609375 -0.320312 -0.796875 -0.5 C -1.148438 -0.84375 -1.328125 -1.28125 -1.328125 -1.8125 C -1.328125 -2.832031 -0.882812 -3.875 0 -4.9375 C 0.695312 -5.757812 1.519531 -6.394531 2.46875 -6.84375 C 3.238281 -7.195312 3.992188 -7.367188 4.734375 -7.359375 C 5.367188 -7.335938 5.773438 -7.117188 5.953125 -6.703125 C 6.117188 -6.273438 6.023438 -5.890625 5.671875 -5.546875 C 5.429688 -5.296875 5.203125 -5.171875 4.984375 -5.171875 C 4.472656 -5.171875 4.207031 -5.382812 4.1875 -5.8125 C 4.175781 -6.007812 4.25 -6.175781 4.40625 -6.3125 C 4.570312 -6.445312 4.738281 -6.519531 4.90625 -6.53125 C 5.132812 -6.539062 5.347656 -6.5 5.546875 -6.40625 Z M 5.546875 -6.453125 "/></g></g><g style="fill:rgb(22.749329%,10.5896%,5.879211%);fill-opacity:1;"><g transform="translate(182.698887, 271.291506)"><path style="stroke:none;" d=""/></g></g><g style="fill:rgb(22.749329%,10.5896%,5.879211%);fill-opacity:1;"><g transform="translate(190.249309, 271.291506)"><path style="stroke:none;" d="M 0.296875 -1.875 C 0.296875 -1.71875 0.234375 -1.582031 0.109375 -1.46875 C -0.015625 -1.363281 -0.171875 -1.3125 -0.359375 -1.3125 C -0.546875 -1.3125 -0.695312 -1.347656 -0.8125 -1.421875 L -0.8125 -1.359375 C -0.8125 -1.054688 -0.632812 -0.789062 -0.28125 -0.5625 C 0.0820312 -0.34375 0.519531 -0.234375 1.03125 -0.234375 C 1.550781 -0.234375 2.03125 -0.320312 2.46875 -0.5 C 2.914062 -0.6875 3.332031 -0.929688 3.71875 -1.234375 C 4.101562 -1.546875 4.46875 -1.910156 4.8125 -2.328125 C 5.164062 -2.753906 5.503906 -3.207031 5.828125 -3.6875 C 6.148438 -4.175781 6.460938 -4.679688 6.765625 -5.203125 L 7.9375 -7.09375 C 6.195312 -7.144531 4.789062 -7.488281 3.71875 -8.125 C 2.59375 -8.78125 2.066406 -9.609375 2.140625 -10.609375 C 2.171875 -11.242188 2.398438 -11.832031 2.828125 -12.375 C 3.265625 -12.914062 3.828125 -13.390625 4.515625 -13.796875 C 5.984375 -14.628906 7.71875 -15.046875 9.71875 -15.046875 C 10.539062 -15.046875 11.148438 -14.953125 11.546875 -14.765625 C 11.648438 -14.703125 11.703125 -14.648438 11.703125 -14.609375 C 11.703125 -14.578125 11.664062 -14.5625 11.59375 -14.5625 C 11.53125 -14.5625 11.472656 -14.566406 11.421875 -14.578125 C 11.378906 -14.585938 11.289062 -14.601562 11.15625 -14.625 C 10.65625 -14.738281 10.148438 -14.796875 9.640625 -14.796875 C 9.140625 -14.796875 8.613281 -14.75 8.0625 -14.65625 C 7.507812 -14.5625 6.984375 -14.421875 6.484375 -14.234375 C 5.984375 -14.054688 5.515625 -13.835938 5.078125 -13.578125 C 4.648438 -13.328125 4.273438 -13.039062 3.953125 -12.71875 C 3.265625 -12.019531 2.898438 -11.25 2.859375 -10.40625 C 2.804688 -9.675781 3.210938 -9.019531 4.078125 -8.4375 C 5.078125 -7.769531 6.421875 -7.410156 8.109375 -7.359375 C 10.597656 -11.285156 12.875 -13.703125 14.9375 -14.609375 C 15.601562 -14.898438 16.207031 -15.046875 16.75 -15.046875 C 17.8125 -15.046875 18.316406 -14.601562 18.265625 -13.71875 C 18.222656 -12.957031 17.8125 -12.109375 17.03125 -11.171875 C 15.738281 -9.617188 14.050781 -8.46875 11.96875 -7.71875 C 11.238281 -7.445312 10.488281 -7.265625 9.71875 -7.171875 L 8.484375 -5.328125 C 6.554688 -2.535156 4.703125 -0.84375 2.921875 -0.25 C 2.378906 -0.0703125 1.863281 0.015625 1.375 0.015625 C 0.882812 0.015625 0.484375 -0.0195312 0.171875 -0.09375 C -0.128906 -0.164062 -0.390625 -0.269531 -0.609375 -0.40625 C -1.035156 -0.6875 -1.25 -1.035156 -1.25 -1.453125 C -1.25 -1.890625 -1.023438 -2.171875 -0.578125 -2.296875 C -0.460938 -2.328125 -0.347656 -2.34375 -0.234375 -2.34375 C -0.117188 -2.34375 -0.00390625 -2.300781 0.109375 -2.21875 C 0.234375 -2.144531 0.296875 -2.03125 0.296875 -1.875 Z M 9.921875 -7.46875 C 11.929688 -7.800781 13.726562 -8.664062 15.3125 -10.0625 C 16.269531 -10.90625 16.953125 -11.75 17.359375 -12.59375 C 17.804688 -13.53125 17.84375 -14.1875 17.46875 -14.5625 C 17.320312 -14.707031 17.078125 -14.773438 16.734375 -14.765625 C 16.398438 -14.765625 16 -14.625 15.53125 -14.34375 C 15.0625 -14.070312 14.578125 -13.679688 14.078125 -13.171875 C 13.109375 -12.203125 11.976562 -10.691406 10.6875 -8.640625 C 10.269531 -8.003906 10.015625 -7.613281 9.921875 -7.46875 Z M 9.921875 -7.46875 "/></g></g><g style="fill:rgb(22.749329%,10.5896%,5.879211%);fill-opacity:1;"><g transform="translate(202.729514, 271.291506)"><path style="stroke:none;" d="M -1.078125 -0.625 C -1.078125 -0.40625 -0.90625 -0.289062 -0.5625 -0.28125 C -0.21875 -0.28125 0.125 -0.359375 0.46875 -0.515625 C 0.820312 -0.671875 1.171875 -0.867188 1.515625 -1.109375 C 1.859375 -1.359375 2.191406 -1.632812 2.515625 -1.9375 C 2.835938 -2.238281 3.132812 -2.539062 3.40625 -2.84375 C 3.6875 -3.144531 3.941406 -3.429688 4.171875 -3.703125 L 4.734375 -4.359375 L 4.96875 -4.171875 L 4.40625 -3.53125 C 2.40625 -1.164062 0.722656 0.015625 -0.640625 0.015625 C -1.023438 0.015625 -1.316406 -0.0625 -1.515625 -0.21875 C -1.710938 -0.375 -1.8125 -0.546875 -1.8125 -0.734375 C -1.8125 -0.921875 -1.800781 -1.070312 -1.78125 -1.1875 C -1.769531 -1.3125 -1.734375 -1.445312 -1.671875 -1.59375 C -1.617188 -1.738281 -1.535156 -1.910156 -1.421875 -2.109375 C -1.304688 -2.316406 -1.160156 -2.5625 -0.984375 -2.84375 L 0.703125 -5.265625 L 3.46875 -9.15625 L 2.625 -9.15625 C 2.40625 -9.15625 2.296875 -9.207031 2.296875 -9.3125 C 2.296875 -9.414062 2.429688 -9.46875 2.703125 -9.46875 L 3.6875 -9.46875 L 5.671875 -12.265625 C 6.171875 -12.191406 6.671875 -12.191406 7.171875 -12.265625 L 5.09375 -9.46875 L 7.859375 -9.46875 C 8.066406 -9.46875 8.171875 -9.414062 8.171875 -9.3125 C 8.171875 -9.207031 8.078125 -9.15625 7.890625 -9.15625 L 4.859375 -9.15625 L 0.40625 -3.109375 C -0.351562 -2.035156 -0.789062 -1.367188 -0.90625 -1.109375 C -1.019531 -0.859375 -1.078125 -0.695312 -1.078125 -0.625 Z M -1.078125 -0.625 "/></g></g><g style="fill:rgb(22.749329%,10.5896%,5.879211%);fill-opacity:1;"><g transform="translate(207.38006, 271.291506)"><path style="stroke:none;" d="M -0.875 -0.640625 C -0.875 -0.378906 -0.703125 -0.25 -0.359375 -0.25 C 0.117188 -0.25 0.632812 -0.429688 1.1875 -0.796875 C 2.375 -1.585938 3.613281 -2.773438 4.90625 -4.359375 C 4.90625 -4.359375 5.71875 -5.335938 7.34375 -7.296875 C 7.6875 -7.253906 8 -7.234375 8.28125 -7.234375 C 8.5625 -7.234375 8.796875 -7.242188 8.984375 -7.265625 L 7.921875 -6.046875 L 4.125 -1.421875 C 3.875 -1.109375 3.75 -0.859375 3.75 -0.671875 C 3.75 -0.410156 3.921875 -0.28125 4.265625 -0.28125 C 4.609375 -0.28125 4.960938 -0.367188 5.328125 -0.546875 C 5.703125 -0.734375 6.070312 -0.96875 6.4375 -1.25 C 6.8125 -1.53125 7.171875 -1.835938 7.515625 -2.171875 C 7.867188 -2.503906 8.1875 -2.816406 8.46875 -3.109375 L 9.609375 -4.359375 L 9.8125 -4.171875 L 9.40625 -3.703125 C 9.195312 -3.472656 8.941406 -3.203125 8.640625 -2.890625 L 7.640625 -1.90625 C 6.273438 -0.625 5.140625 0.015625 4.234375 0.015625 C 3.941406 0.015625 3.695312 -0.0625 3.5 -0.21875 C 3.3125 -0.382812 3.210938 -0.601562 3.203125 -0.875 C 3.191406 -1.394531 3.375 -1.984375 3.75 -2.640625 C 2.101562 -0.867188 0.707031 0.015625 -0.4375 0.015625 C -1.082031 0.015625 -1.492188 -0.210938 -1.671875 -0.671875 C -1.722656 -0.796875 -1.75 -0.957031 -1.75 -1.15625 C -1.757812 -1.363281 -1.710938 -1.601562 -1.609375 -1.875 C -1.515625 -2.15625 -1.363281 -2.457031 -1.15625 -2.78125 C -0.945312 -3.113281 -0.691406 -3.46875 -0.390625 -3.84375 L 1.546875 -6.1875 C 1.847656 -6.5625 2.164062 -6.929688 2.5 -7.296875 C 2.78125 -7.253906 3.007812 -7.234375 3.1875 -7.234375 L 3.546875 -7.234375 C 3.847656 -7.234375 4.046875 -7.242188 4.140625 -7.265625 C 3.296875 -6.347656 2.707031 -5.6875 2.375 -5.28125 L 0.234375 -2.703125 C -0.515625 -1.828125 -0.882812 -1.140625 -0.875 -0.640625 Z M -0.875 -0.640625 "/></g></g><g style="fill:rgb(22.749329%,10.5896%,5.879211%);fill-opacity:1;"><g transform="translate(216.906694, 271.291506)"><path style="stroke:none;" d="M 4.109375 -2.921875 C 2.347656 -0.960938 0.945312 0.015625 -0.09375 0.015625 C -1 0.015625 -1.453125 -0.453125 -1.453125 -1.390625 C -1.453125 -2.472656 -1.003906 -3.523438 -0.109375 -4.546875 C 1.503906 -6.421875 3.207031 -7.359375 5 -7.359375 C 5.53125 -7.359375 5.925781 -7.191406 6.1875 -6.859375 C 6.269531 -6.753906 6.3125 -6.65625 6.3125 -6.5625 C 6.3125 -6.46875 6.304688 -6.40625 6.296875 -6.375 C 6.296875 -6.351562 6.296875 -6.328125 6.296875 -6.296875 L 11.625 -13.9375 L 13.875 -17.140625 C 14.144531 -17.023438 14.394531 -16.96875 14.625 -16.96875 C 14.851562 -16.96875 15.0625 -16.976562 15.25 -17 L 5.03125 -2.6875 C 4.625 -2.125 4.3125 -1.679688 4.09375 -1.359375 C 3.882812 -1.035156 3.78125 -0.773438 3.78125 -0.578125 C 3.78125 -0.390625 3.867188 -0.296875 4.046875 -0.296875 C 4.742188 -0.296875 5.53125 -0.617188 6.40625 -1.265625 C 7.21875 -1.859375 8.101562 -2.738281 9.0625 -3.90625 C 9.238281 -4.132812 9.363281 -4.285156 9.4375 -4.359375 L 9.671875 -4.171875 C 9.597656 -4.097656 9.460938 -3.941406 9.265625 -3.703125 C 9.066406 -3.472656 8.820312 -3.203125 8.53125 -2.890625 C 8.238281 -2.578125 7.910156 -2.25 7.546875 -1.90625 C 7.191406 -1.5625 6.8125 -1.25 6.40625 -0.96875 C 5.476562 -0.3125 4.660156 0.015625 3.953125 0.015625 C 3.253906 0.015625 2.90625 -0.210938 2.90625 -0.671875 C 2.914062 -1.128906 3.34375 -1.863281 4.1875 -2.875 Z M 0.984375 -3.828125 C -0.0351562 -2.578125 -0.546875 -1.582031 -0.546875 -0.84375 C -0.546875 -0.476562 -0.367188 -0.296875 -0.015625 -0.296875 C 0.628906 -0.296875 1.519531 -0.816406 2.65625 -1.859375 L 3.53125 -2.703125 C 4.039062 -3.203125 4.457031 -3.679688 4.78125 -4.140625 L 5.734375 -5.515625 C 5.898438 -5.835938 5.984375 -6.117188 5.984375 -6.359375 C 5.984375 -6.597656 5.894531 -6.769531 5.71875 -6.875 C 5.550781 -6.976562 5.375 -7.03125 5.1875 -7.03125 C 5 -7.03125 4.765625 -6.96875 4.484375 -6.84375 C 4.203125 -6.71875 3.882812 -6.519531 3.53125 -6.25 C 2.75 -5.695312 1.898438 -4.890625 0.984375 -3.828125 Z M 0.984375 -3.828125 "/></g></g><g style="fill:rgb(22.749329%,10.5896%,5.879211%);fill-opacity:1;"><g transform="translate(226.272218, 271.291506)"><path style="stroke:none;" d="M 5.6875 -9.703125 C 5.582031 -9.617188 5.460938 -9.546875 5.328125 -9.484375 C 5.203125 -9.429688 5.054688 -9.40625 4.890625 -9.40625 C 4.734375 -9.40625 4.59375 -9.46875 4.46875 -9.59375 C 4.351562 -9.71875 4.296875 -9.859375 4.296875 -10.015625 C 4.296875 -10.179688 4.320312 -10.320312 4.375 -10.4375 C 4.4375 -10.5625 4.519531 -10.671875 4.625 -10.765625 C 4.832031 -10.984375 5.054688 -11.09375 5.296875 -11.09375 C 5.546875 -11.09375 5.726562 -11.023438 5.84375 -10.890625 C 5.96875 -10.753906 6.03125 -10.609375 6.03125 -10.453125 C 6.03125 -10.296875 6 -10.15625 5.9375 -10.03125 C 5.875 -9.90625 5.789062 -9.796875 5.6875 -9.703125 Z M -1.140625 -0.609375 C -1.140625 -0.390625 -0.925781 -0.28125 -0.5 -0.28125 C -0.0820312 -0.28125 0.3125 -0.375 0.6875 -0.5625 C 1.0625 -0.757812 1.441406 -1.003906 1.828125 -1.296875 C 2.210938 -1.585938 2.582031 -1.90625 2.9375 -2.25 L 3.90625 -3.21875 C 4.195312 -3.507812 4.4375 -3.765625 4.625 -3.984375 C 4.8125 -4.203125 4.921875 -4.332031 4.953125 -4.375 L 5.171875 -4.171875 C 5.097656 -4.109375 4.960938 -3.957031 4.765625 -3.71875 C 4.566406 -3.488281 4.320312 -3.21875 4.03125 -2.90625 C 3.738281 -2.59375 3.410156 -2.265625 3.046875 -1.921875 C 2.679688 -1.578125 2.296875 -1.265625 1.890625 -0.984375 C 0.960938 -0.316406 0.15625 0.015625 -0.53125 0.015625 C -0.976562 0.015625 -1.332031 -0.0625 -1.59375 -0.21875 C -1.863281 -0.382812 -2 -0.566406 -2 -0.765625 C -2 -0.972656 -1.976562 -1.160156 -1.9375 -1.328125 C -1.894531 -1.492188 -1.816406 -1.691406 -1.703125 -1.921875 C -1.585938 -2.148438 -1.425781 -2.414062 -1.21875 -2.71875 C -1.007812 -3.03125 -0.742188 -3.398438 -0.421875 -3.828125 C -0.0976562 -4.265625 0.296875 -4.765625 0.765625 -5.328125 L 2.421875 -7.28125 C 2.503906 -7.257812 2.675781 -7.25 2.9375 -7.25 L 3.453125 -7.25 C 3.640625 -7.25 3.789062 -7.253906 3.90625 -7.265625 C 1.53125 -4.441406 0.195312 -2.832031 -0.09375 -2.4375 C -0.394531 -2.050781 -0.617188 -1.75 -0.765625 -1.53125 C -1.015625 -1.144531 -1.140625 -0.835938 -1.140625 -0.609375 Z M -1.140625 -0.609375 "/></g></g><g style="fill:rgb(22.749329%,10.5896%,5.879211%);fill-opacity:1;"><g transform="translate(231.13757, 271.291506)"><path style="stroke:none;" d="M 4.828125 -1.734375 C 4.566406 -1.734375 4.375 -1.835938 4.25 -2.046875 C 3.394531 -1.085938 2.476562 -0.445312 1.5 -0.125 C 1.164062 -0.03125 0.84375 0.015625 0.53125 0.015625 C 0.21875 0.015625 -0.046875 -0.015625 -0.265625 -0.078125 C -0.492188 -0.148438 -0.675781 -0.253906 -0.8125 -0.390625 C -1.394531 -0.890625 -1.453125 -1.75 -0.984375 -2.96875 C -0.804688 -3.457031 -0.578125 -3.90625 -0.296875 -4.3125 C -0.015625 -4.726562 0.300781 -5.113281 0.65625 -5.46875 C 1.007812 -5.820312 1.394531 -6.140625 1.8125 -6.421875 C 2.726562 -7.046875 3.628906 -7.359375 4.515625 -7.359375 C 4.890625 -7.359375 5.210938 -7.257812 5.484375 -7.0625 C 5.765625 -6.863281 5.914062 -6.578125 5.9375 -6.203125 C 5.957031 -5.835938 5.9375 -5.492188 5.875 -5.171875 C 5.8125 -4.847656 5.71875 -4.53125 5.59375 -4.21875 C 5.332031 -3.550781 4.960938 -2.925781 4.484375 -2.34375 C 4.535156 -2.132812 4.675781 -2.03125 4.90625 -2.03125 C 5.132812 -2.03125 5.347656 -2.082031 5.546875 -2.1875 C 5.753906 -2.289062 5.957031 -2.414062 6.15625 -2.5625 C 6.363281 -2.71875 6.566406 -2.890625 6.765625 -3.078125 C 6.960938 -3.273438 7.144531 -3.457031 7.3125 -3.625 L 7.71875 -4.078125 C 7.832031 -4.210938 7.910156 -4.304688 7.953125 -4.359375 L 8.203125 -4.171875 C 8.109375 -4.085938 7.988281 -3.96875 7.84375 -3.8125 C 7.695312 -3.65625 7.535156 -3.488281 7.359375 -3.3125 C 7.359375 -3.3125 7.171875 -3.125 6.796875 -2.75 C 6.054688 -2.070312 5.398438 -1.734375 4.828125 -1.734375 Z M 0.375 -0.390625 C 0.488281 -0.328125 0.648438 -0.296875 0.859375 -0.296875 C 1.328125 -0.296875 1.925781 -0.554688 2.65625 -1.078125 C 3.207031 -1.484375 3.703125 -1.945312 4.140625 -2.46875 L 4.140625 -2.515625 C 4.140625 -3.117188 4.367188 -3.578125 4.828125 -3.890625 C 4.953125 -3.972656 5.066406 -4.035156 5.171875 -4.078125 C 5.515625 -4.804688 5.675781 -5.398438 5.65625 -5.859375 C 5.613281 -6.597656 5.34375 -6.96875 4.84375 -6.96875 C 4 -6.96875 2.816406 -6.015625 1.296875 -4.109375 C 0.304688 -2.878906 -0.15625 -1.921875 -0.09375 -1.234375 C -0.09375 -0.835938 0.0625 -0.554688 0.375 -0.390625 Z M 0.375 -0.390625 "/></g></g></g></svg>