<?xml version="1.0" encoding="UTF-8"?><svg xmlns="http://www.w3.org/2000/svg" xmlns:xlink="http://www.w3.org/1999/xlink" contentScriptType="text/ecmascript" width="375pt" zoomAndPan="magnify" contentStyleType="text/css" viewBox="0 0 375 374.999991" height="374.999991pt" preserveAspectRatio="xMidYMid meet" version="1.2"><defs><g/><clipPath xml:id="clip1" id="clip1"><path d="M 145.636719 103.46875 L 229.566406 103.46875 L 229.566406 217.46875 L 145.636719 217.46875 Z M 145.636719 103.46875 "/></clipPath></defs><g xml:id="surface1" id="surface1"><rect x="0" width="375" y="0" height="374.999991" style="fill:rgb(100%,100%,100%);fill-opacity:1;stroke:none;"/><rect x="0" width="375" y="0" height="374.999991" style="fill:rgb(100%,100%,100%);fill-opacity:1;stroke:none;"/><path style=" stroke:none;fill-rule:nonzero;fill:rgb(88.238525%,94.898987%,98.429871%);fill-opacity:1;" d="M 187.582031 214.550781 C 177.136719 214.550781 167.320312 210.480469 159.933594 203.09375 C 152.550781 195.703125 148.488281 185.878906 148.488281 175.429688 C 148.488281 164.980469 152.554688 155.15625 159.933594 147.765625 L 180.464844 127.214844 C 181.628906 126.058594 182.261719 124.519531 182.261719 122.871094 C 182.261719 122.070312 182.105469 121.28125 181.792969 120.535156 C 180.839844 118.226562 178.621094 116.734375 176.132812 116.734375 L 153.660156 116.734375 C 150.808594 116.734375 148.488281 114.417969 148.488281 111.5625 C 148.488281 108.707031 150.808594 106.382812 153.660156 106.382812 L 203.421875 106.382812 C 204.820312 106.382812 206.121094 106.929688 207.09375 107.917969 C 208.050781 108.878906 208.585938 110.179688 208.585938 111.558594 C 208.585938 112.945312 208.046875 114.242188 207.066406 115.222656 L 194.902344 127.398438 C 193.742188 128.558594 193.105469 130.101562 193.105469 131.742188 C 193.105469 132.273438 193.175781 132.8125 193.320312 133.347656 C 193.882812 135.445312 195.546875 137.109375 197.660156 137.671875 C 204.320312 139.453125 210.386719 142.941406 215.207031 147.769531 C 222.585938 155.144531 226.652344 164.96875 226.652344 175.433594 C 226.652344 185.890625 222.585938 195.71875 215.203125 203.097656 C 207.8125 210.480469 198.003906 214.550781 187.582031 214.550781 Z M 187.582031 214.550781 "/><g clip-rule="nonzero" clip-path="url(#clip1)"><path style=" stroke:none;fill-rule:nonzero;fill:rgb(15.289307%,15.689087%,18.818665%);fill-opacity:1;" d="M 203.421875 109.292969 C 203.847656 109.292969 204.476562 109.40625 205.015625 109.953125 C 205.566406 110.503906 205.679688 111.125 205.679688 111.554688 C 205.679688 111.984375 205.566406 112.605469 205.015625 113.15625 L 192.847656 125.335938 C 191.132812 127.054688 190.199219 129.363281 190.199219 131.738281 C 190.199219 132.519531 190.304688 133.3125 190.511719 134.089844 C 191.351562 137.210938 193.789062 139.648438 196.914062 140.480469 C 203.070312 142.128906 208.683594 145.347656 213.152344 149.820312 C 219.992188 156.65625 223.746094 165.753906 223.746094 175.425781 C 223.746094 185.101562 219.992188 194.195312 213.152344 201.03125 C 206.3125 207.867188 197.238281 211.640625 187.582031 211.640625 C 177.910156 211.640625 168.824219 207.867188 161.992188 201.03125 C 155.164062 194.195312 151.398438 185.101562 151.398438 175.425781 C 151.398438 165.753906 155.164062 156.65625 161.992188 149.820312 L 182.519531 129.273438 C 184.257812 127.542969 185.167969 125.226562 185.167969 122.871094 C 185.167969 121.707031 184.941406 120.53125 184.476562 119.414062 C 183.078125 116.027344 179.777344 113.824219 176.125 113.824219 L 153.660156 113.824219 C 152.421875 113.824219 151.394531 112.808594 151.394531 111.5625 C 151.394531 110.3125 152.421875 109.296875 153.660156 109.296875 L 203.421875 109.296875 M 203.421875 103.46875 L 153.660156 103.46875 C 149.203125 103.46875 145.578125 107.101562 145.578125 111.5625 C 145.578125 116.023438 149.203125 119.648438 153.660156 119.648438 L 176.128906 119.648438 C 177.4375 119.648438 178.601562 120.425781 179.101562 121.636719 L 179.109375 121.652344 C 179.273438 122.042969 179.355469 122.453125 179.355469 122.871094 C 179.355469 123.734375 179.023438 124.542969 178.421875 125.140625 L 157.882812 145.703125 C 149.945312 153.644531 145.578125 164.203125 145.578125 175.425781 C 145.578125 186.652344 149.945312 197.210938 157.875 205.148438 C 165.8125 213.089844 176.359375 217.460938 187.582031 217.460938 C 198.777344 217.460938 209.316406 213.089844 217.257812 205.152344 C 225.195312 197.222656 229.5625 186.664062 229.5625 175.425781 C 229.5625 164.183594 225.195312 153.628906 217.257812 145.699219 C 212.082031 140.511719 205.566406 136.761719 198.414062 134.851562 C 197.300781 134.558594 196.429688 133.691406 196.128906 132.585938 C 196.054688 132.296875 196.015625 132.011719 196.015625 131.734375 C 196.015625 130.871094 196.351562 130.058594 196.964844 129.445312 L 209.128906 117.265625 C 210.65625 115.746094 211.496094 113.710938 211.496094 111.546875 C 211.496094 109.398438 210.667969 107.378906 209.152344 105.851562 C 207.632812 104.320312 205.601562 103.46875 203.421875 103.46875 Z M 203.421875 103.46875 "/></g><g style="fill:rgb(15.289307%,15.689087%,18.818665%);fill-opacity:1;"><g transform="translate(110.394482, 252.429504)"><path style="stroke:none;" d="M 15.75 -11.398438 C 17.4375 -12.300781 18.523438 -13.875 18.523438 -16.238281 C 18.523438 -20.210938 15.523438 -22.5 11.738281 -22.5 L 2.210938 -22.5 L 2.210938 0 L 12.601562 0 C 16.351562 0 19.273438 -2.175781 19.273438 -6.148438 C 19.273438 -8.886719 17.851562 -10.574219 15.75 -11.398438 Z M 13.574219 -15.710938 C 13.574219 -14.398438 12.488281 -13.273438 11.136719 -13.273438 L 7.164062 -13.273438 L 7.164062 -18.113281 L 11.136719 -18.113281 C 12.488281 -18.113281 13.574219 -17.0625 13.574219 -15.710938 Z M 11.886719 -4.386719 L 7.164062 -4.386719 L 7.164062 -9.226562 L 11.886719 -9.226562 C 13.273438 -9.226562 14.324219 -8.101562 14.324219 -6.789062 C 14.324219 -5.4375 13.273438 -4.386719 11.886719 -4.386719 Z M 11.886719 -4.386719 "/></g></g><g style="fill:rgb(15.289307%,15.689087%,18.818665%);fill-opacity:1;"><g transform="translate(130.156965, 252.429504)"><path style="stroke:none;" d="M 11.210938 -15.300781 C 9.449219 -15.300781 7.988281 -14.398438 7.011719 -12.9375 L 7.011719 -15 L 2.210938 -15 L 2.210938 0 L 7.011719 0 L 7.011719 -7.164062 C 7.011719 -9.636719 8.699219 -11.0625 11.0625 -11.0625 C 11.625 -11.0625 12.113281 -10.988281 12.449219 -10.914062 L 12.449219 -15.148438 C 12.113281 -15.261719 11.664062 -15.300781 11.210938 -15.300781 Z M 11.210938 -15.300781 "/></g></g><g style="fill:rgb(15.289307%,15.689087%,18.818665%);fill-opacity:1;"><g transform="translate(141.931953, 252.429504)"><path style="stroke:none;" d="M 18.9375 -3.898438 C 18.300781 -3.898438 17.625 -4.125 17.625 -5.363281 L 17.625 -15 L 12.863281 -15 L 12.863281 -13.6875 C 11.738281 -14.699219 10.3125 -15.300781 8.585938 -15.300781 C 4.425781 -15.300781 1.164062 -11.851562 1.164062 -7.5 C 1.164062 -3.148438 4.425781 0.300781 8.585938 0.300781 C 10.761719 0.300781 12.523438 -0.675781 13.726562 -2.25 C 14.664062 -0.710938 16.3125 0.300781 18.335938 0.300781 C 18.824219 0.300781 19.273438 0.148438 19.613281 0 L 19.613281 -3.898438 Z M 9.523438 -3.9375 C 7.539062 -3.9375 5.960938 -5.511719 5.960938 -7.5 C 5.960938 -9.488281 7.539062 -11.0625 9.523438 -11.0625 C 11.476562 -11.0625 13.085938 -9.488281 13.085938 -7.5 C 13.085938 -5.511719 11.476562 -3.9375 9.523438 -3.9375 Z M 9.523438 -3.9375 "/></g></g><g style="fill:rgb(15.289307%,15.689087%,18.818665%);fill-opacity:1;"><g transform="translate(161.506939, 252.429504)"><path style="stroke:none;" d="M 11.289062 -15.300781 C 9.5625 -15.300781 8.0625 -14.476562 7.011719 -13.164062 L 7.011719 -15 L 2.210938 -15 L 2.210938 0 L 7.011719 0 L 7.011719 -8.699219 C 7.011719 -10.050781 8.136719 -11.0625 9.523438 -11.0625 C 10.914062 -11.0625 11.886719 -10.050781 11.886719 -8.699219 L 11.886719 0 L 16.648438 0 L 16.648438 -9.488281 C 16.648438 -12.789062 14.25 -15.300781 11.289062 -15.300781 Z M 11.289062 -15.300781 "/></g></g><g style="fill:rgb(15.289307%,15.689087%,18.818665%);fill-opacity:1;"><g transform="translate(179.469413, 252.429504)"><path style="stroke:none;" d="M 12.863281 -25.6875 L 12.863281 -13.6875 C 11.738281 -14.699219 10.3125 -15.300781 8.585938 -15.300781 C 4.425781 -15.300781 1.164062 -11.851562 1.164062 -7.5 C 1.164062 -3.148438 4.425781 0.300781 8.585938 0.300781 C 10.3125 0.300781 11.738281 -0.300781 12.863281 -1.3125 L 12.863281 0.0390625 L 17.625 0 L 17.625 -25.6875 Z M 9.523438 -3.9375 C 7.539062 -3.9375 5.960938 -5.511719 5.960938 -7.5 C 5.960938 -9.488281 7.539062 -11.0625 9.523438 -11.0625 C 11.476562 -11.0625 13.085938 -9.488281 13.085938 -7.5 C 13.085938 -5.511719 11.476562 -3.9375 9.523438 -3.9375 Z M 9.523438 -3.9375 "/></g></g><g style="fill:rgb(15.289307%,15.689087%,18.818665%);fill-opacity:1;"><g transform="translate(198.706896, 252.429504)"><path style="stroke:none;" d="M 2.210938 0 L 7.011719 0 L 7.011719 -25.6875 L 2.210938 -25.6875 Z M 2.210938 0 "/></g></g><g style="fill:rgb(15.289307%,15.689087%,18.818665%);fill-opacity:1;"><g transform="translate(207.331884, 252.429504)"><path style="stroke:none;" d="M 9.523438 0.300781 C 14.550781 0.300781 17.851562 -3 17.851562 -7.5 C 17.851562 -12 14.550781 -15.300781 9.523438 -15.300781 C 4.5 -15.300781 1.164062 -12 1.164062 -7.5 C 1.164062 -3 4.5 0.300781 9.523438 0.300781 Z M 9.523438 -3.9375 C 7.460938 -3.976562 5.960938 -5.476562 5.960938 -7.5 C 5.960938 -9.523438 7.460938 -11.023438 9.523438 -11.0625 C 11.550781 -11.023438 13.085938 -9.523438 13.085938 -7.5 C 13.085938 -5.476562 11.550781 -3.976562 9.523438 -3.9375 Z M 9.523438 -3.9375 "/></g></g><g style="fill:rgb(15.289307%,15.689087%,18.818665%);fill-opacity:1;"><g transform="translate(225.781864, 252.429504)"><path style="stroke:none;" d="M 18.074219 -15 L 13.273438 -15 L 13.273438 -13.5 C 12.039062 -14.625 10.425781 -15.300781 8.585938 -15.300781 C 4.425781 -15.300781 1.164062 -11.886719 1.164062 -7.5 C 1.164062 -3.148438 4.425781 0.300781 8.585938 0.300781 C 10.460938 0.300781 12.113281 -0.414062 13.351562 -1.574219 L 13.351562 0.414062 C 13.351562 3.1875 11.8125 4.875 9.375 4.875 C 7.648438 4.875 6.335938 3.9375 5.773438 2.4375 L 1.386719 4.199219 C 2.625 7.273438 5.4375 9.039062 9.375 9.039062 C 14.851562 9.039062 18.113281 5.699219 18.113281 0.148438 Z M 9.789062 -3.9375 C 7.800781 -3.9375 6.226562 -5.511719 6.226562 -7.5 C 6.226562 -9.488281 7.800781 -11.0625 9.789062 -11.0625 C 11.773438 -11.0625 13.386719 -9.488281 13.386719 -7.5 C 13.386719 -5.511719 11.773438 -3.9375 9.789062 -3.9375 Z M 9.789062 -3.9375 "/></g></g><g style="fill:rgb(15.289307%,15.689087%,18.818665%);fill-opacity:1;"><g transform="translate(245.544345, 252.429504)"><path style="stroke:none;" d="M 9.523438 0.300781 C 14.550781 0.300781 17.851562 -3 17.851562 -7.5 C 17.851562 -12 14.550781 -15.300781 9.523438 -15.300781 C 4.5 -15.300781 1.164062 -12 1.164062 -7.5 C 1.164062 -3 4.5 0.300781 9.523438 0.300781 Z M 9.523438 -3.9375 C 7.460938 -3.976562 5.960938 -5.476562 5.960938 -7.5 C 5.960938 -9.523438 7.460938 -11.023438 9.523438 -11.0625 C 11.550781 -11.023438 13.085938 -9.523438 13.085938 -7.5 C 13.085938 -5.476562 11.550781 -3.976562 9.523438 -3.9375 Z M 9.523438 -3.9375 "/></g></g><g style="fill:rgb(15.289307%,15.689087%,18.818665%);fill-opacity:1;"><g transform="translate(163.755206, 269.029377)"><path style="stroke:none;" d="M 3.1875 -7.046875 C 3.96875 -7.046875 4.566406 -6.847656 4.984375 -6.453125 C 5.398438 -6.054688 5.648438 -5.53125 5.734375 -4.875 L 4.3125 -4.875 C 4.28125 -5.226562 4.160156 -5.503906 3.953125 -5.703125 C 3.753906 -5.910156 3.476562 -6.015625 3.125 -6.015625 C 2.84375 -6.015625 2.609375 -5.941406 2.421875 -5.796875 C 2.242188 -5.660156 2.15625 -5.457031 2.15625 -5.1875 C 2.15625 -4.894531 2.265625 -4.664062 2.484375 -4.5 C 2.703125 -4.332031 3.082031 -4.1875 3.625 -4.0625 C 4.382812 -3.882812 4.941406 -3.617188 5.296875 -3.265625 C 5.648438 -2.910156 5.828125 -2.457031 5.828125 -1.90625 C 5.828125 -1.269531 5.578125 -0.769531 5.078125 -0.40625 C 4.585938 -0.0390625 3.988281 0.140625 3.28125 0.140625 C 2.4375 0.140625 1.765625 -0.0390625 1.265625 -0.40625 C 0.765625 -0.78125 0.484375 -1.328125 0.421875 -2.046875 L 1.828125 -2.046875 C 1.898438 -1.671875 2.066406 -1.382812 2.328125 -1.1875 C 2.585938 -0.988281 2.898438 -0.890625 3.265625 -0.890625 C 3.578125 -0.890625 3.84375 -0.96875 4.0625 -1.125 C 4.28125 -1.289062 4.390625 -1.503906 4.390625 -1.765625 C 4.390625 -2.054688 4.285156 -2.289062 4.078125 -2.46875 C 3.867188 -2.644531 3.515625 -2.796875 3.015625 -2.921875 C 2.234375 -3.109375 1.648438 -3.351562 1.265625 -3.65625 C 0.890625 -3.96875 0.703125 -4.421875 0.703125 -5.015625 C 0.703125 -5.628906 0.941406 -6.117188 1.421875 -6.484375 C 1.910156 -6.859375 2.5 -7.046875 3.1875 -7.046875 Z M 3.1875 -7.046875 "/></g></g><g style="fill:rgb(15.289307%,15.689087%,18.818665%);fill-opacity:1;"><g transform="translate(171.032808, 269.029377)"><path style="stroke:none;" d="M 5.875 -1.15625 L 5.875 0 L 0.890625 0 L 0.890625 -6.90625 L 2.265625 -6.90625 L 2.265625 -1.15625 Z M 5.875 -1.15625 "/></g></g><g style="fill:rgb(15.289307%,15.689087%,18.818665%);fill-opacity:1;"><g transform="translate(178.270424, 269.029377)"><path style="stroke:none;" d="M 3.921875 -7.046875 C 4.972656 -7.046875 5.800781 -6.71875 6.40625 -6.0625 C 7.019531 -5.414062 7.328125 -4.546875 7.328125 -3.453125 C 7.328125 -2.359375 7.019531 -1.484375 6.40625 -0.828125 C 5.800781 -0.179688 4.972656 0.140625 3.921875 0.140625 C 2.867188 0.140625 2.035156 -0.179688 1.421875 -0.828125 C 0.816406 -1.484375 0.515625 -2.359375 0.515625 -3.453125 C 0.515625 -4.546875 0.816406 -5.414062 1.421875 -6.0625 C 2.023438 -6.71875 2.859375 -7.046875 3.921875 -7.046875 Z M 2.46875 -1.5625 C 2.820312 -1.113281 3.304688 -0.890625 3.921875 -0.890625 C 4.535156 -0.890625 5.015625 -1.113281 5.359375 -1.5625 C 5.703125 -2.019531 5.875 -2.648438 5.875 -3.453125 C 5.875 -4.253906 5.703125 -4.878906 5.359375 -5.328125 C 5.015625 -5.785156 4.535156 -6.015625 3.921875 -6.015625 C 3.296875 -6.015625 2.8125 -5.785156 2.46875 -5.328125 C 2.125 -4.878906 1.953125 -4.25 1.953125 -3.4375 C 1.953125 -2.632812 2.125 -2.007812 2.46875 -1.5625 Z M 2.46875 -1.5625 "/></g></g><g style="fill:rgb(15.289307%,15.689087%,18.818665%);fill-opacity:1;"><g transform="translate(187.117412, 269.029377)"><path style="stroke:none;" d="M 4.046875 -3.515625 L 6.828125 -3.515625 L 6.828125 0 L 5.71875 0 L 5.625 -1.125 L 5.3125 -0.421875 C 4.9375 -0.046875 4.378906 0.140625 3.640625 0.140625 C 2.679688 0.140625 1.921875 -0.175781 1.359375 -0.8125 C 0.796875 -1.445312 0.515625 -2.3125 0.515625 -3.40625 C 0.515625 -4.507812 0.832031 -5.390625 1.46875 -6.046875 C 2.113281 -6.710938 2.925781 -7.046875 3.90625 -7.046875 C 4.8125 -7.046875 5.515625 -6.828125 6.015625 -6.390625 C 6.523438 -5.953125 6.816406 -5.375 6.890625 -4.65625 L 6.90625 -4.5625 L 5.515625 -4.5625 L 5.5 -4.65625 C 5.320312 -5.5625 4.785156 -6.015625 3.890625 -6.015625 C 3.328125 -6.015625 2.863281 -5.785156 2.5 -5.328125 C 2.144531 -4.878906 1.96875 -4.265625 1.96875 -3.484375 C 1.96875 -2.648438 2.140625 -2.007812 2.484375 -1.5625 C 2.835938 -1.113281 3.289062 -0.890625 3.84375 -0.890625 C 4.289062 -0.890625 4.660156 -1.023438 4.953125 -1.296875 C 5.253906 -1.566406 5.441406 -1.945312 5.515625 -2.4375 L 4.046875 -2.4375 Z M 4.046875 -3.515625 "/></g></g><g style="fill:rgb(15.289307%,15.689087%,18.818665%);fill-opacity:1;"><g transform="translate(195.6845, 269.029377)"><path style="stroke:none;" d="M 4.625 -2.078125 L 2.3125 -2.078125 L 1.625 0 L 0.15625 0 L 2.640625 -6.90625 L 4.375 -6.90625 L 6.8125 0 L 5.3125 0 Z M 3.484375 -5.71875 L 2.65625 -3.171875 L 4.28125 -3.171875 Z M 3.484375 -5.71875 "/></g></g><g style="fill:rgb(15.289307%,15.689087%,18.818665%);fill-opacity:1;"><g transform="translate(203.641834, 269.029377)"><path style="stroke:none;" d="M 6.953125 0 L 5.0625 0 L 2.21875 -5.234375 C 2.25 -4.609375 2.265625 -3.90625 2.265625 -3.125 L 2.265625 0 L 0.890625 0 L 0.890625 -6.90625 L 2.71875 -6.90625 L 5.625 -1.5625 C 5.582031 -2.175781 5.5625 -2.898438 5.5625 -3.734375 L 5.5625 -6.90625 L 6.9375 -6.90625 Z M 6.953125 0 "/></g></g></g></svg>