<?xml version="1.0" encoding="UTF-8"?><svg xmlns="http://www.w3.org/2000/svg" xmlns:xlink="http://www.w3.org/1999/xlink" contentScriptType="text/ecmascript" width="375pt" zoomAndPan="magnify" contentStyleType="text/css" viewBox="0 0 375 374.999991" height="374.999991pt" preserveAspectRatio="xMidYMid meet" version="1.2"><defs><g/></defs><g xml:id="surface1" id="surface1"><rect x="0" width="375" y="0" height="374.999991" style="fill:rgb(100%,100%,100%);fill-opacity:1;stroke:none;"/><rect x="0" width="375" y="0" height="374.999991" style="fill:rgb(100%,100%,100%);fill-opacity:1;stroke:none;"/><path style=" stroke:none;fill-rule:nonzero;fill:rgb(100%,86.268616%,0%);fill-opacity:1;" d="M 187.5 31.417969 C 185.046875 31.417969 182.589844 31.476562 180.140625 31.597656 C 177.6875 31.71875 175.242188 31.898438 172.796875 32.140625 C 170.355469 32.378906 167.917969 32.679688 165.492188 33.039062 C 163.0625 33.402344 160.644531 33.820312 158.238281 34.300781 C 155.828125 34.777344 153.433594 35.316406 151.054688 35.914062 C 148.671875 36.507812 146.304688 37.164062 143.957031 37.875 C 141.609375 38.589844 139.277344 39.359375 136.964844 40.1875 C 134.65625 41.011719 132.367188 41.894531 130.097656 42.835938 C 127.828125 43.773438 125.585938 44.769531 123.367188 45.820312 C 121.148438 46.867188 118.957031 47.972656 116.789062 49.128906 C 114.625 50.285156 112.488281 51.496094 110.382812 52.757812 C 108.277344 54.019531 106.207031 55.332031 104.164062 56.695312 C 102.125 58.0625 100.117188 59.472656 98.144531 60.9375 C 96.171875 62.398438 94.238281 63.910156 92.339844 65.464844 C 90.445312 67.023438 88.585938 68.625 86.765625 70.273438 C 84.945312 71.921875 83.167969 73.617188 81.433594 75.351562 C 79.699219 77.085938 78.007812 78.863281 76.355469 80.683594 C 74.707031 82.503906 73.105469 84.359375 71.546875 86.257812 C 69.992188 88.15625 68.480469 90.089844 67.019531 92.0625 C 65.554688 94.035156 64.144531 96.039062 62.78125 98.082031 C 61.414062 100.125 60.101562 102.195312 58.839844 104.300781 C 57.578125 106.40625 56.367188 108.542969 55.210938 110.707031 C 54.054688 112.871094 52.953125 115.066406 51.902344 117.285156 C 50.851562 119.503906 49.859375 121.746094 48.917969 124.015625 C 47.980469 126.28125 47.09375 128.574219 46.269531 130.882812 C 45.441406 133.195312 44.671875 135.527344 43.957031 137.875 C 43.246094 140.222656 42.589844 142.589844 41.996094 144.96875 C 41.398438 147.351562 40.859375 149.746094 40.382812 152.152344 C 39.902344 154.5625 39.484375 156.980469 39.125 159.40625 C 38.761719 161.835938 38.464844 164.273438 38.222656 166.714844 C 37.980469 169.15625 37.800781 171.605469 37.679688 174.058594 C 37.558594 176.507812 37.5 178.960938 37.5 181.417969 C 37.5 183.871094 37.558594 186.324219 37.679688 188.777344 C 37.800781 191.230469 37.980469 193.675781 38.222656 196.121094 C 38.464844 198.5625 38.761719 201 39.125 203.425781 C 39.484375 205.855469 39.902344 208.273438 40.382812 210.679688 C 40.859375 213.089844 41.398438 215.484375 41.996094 217.863281 C 42.589844 220.246094 43.246094 222.609375 43.957031 224.960938 C 44.671875 227.308594 45.441406 229.640625 46.269531 231.949219 C 47.09375 234.261719 47.980469 236.550781 48.917969 238.820312 C 49.859375 241.089844 50.851562 243.332031 51.902344 245.550781 C 52.953125 247.769531 54.054688 249.960938 55.210938 252.125 C 56.367188 254.292969 57.578125 256.425781 58.839844 258.53125 C 60.101562 260.636719 61.414062 262.710938 62.78125 264.753906 C 64.144531 266.792969 65.554688 268.800781 67.019531 270.773438 C 68.480469 272.742188 69.992188 274.679688 71.546875 276.578125 C 73.105469 278.472656 74.707031 280.332031 76.355469 282.152344 C 78.007812 283.96875 79.699219 285.746094 81.433594 287.484375 C 83.167969 289.21875 84.945312 290.910156 86.765625 292.558594 C 88.585938 294.207031 90.445312 295.8125 92.339844 297.367188 C 94.238281 298.925781 96.171875 300.4375 98.144531 301.898438 C 100.117188 303.359375 102.125 304.773438 104.164062 306.136719 C 106.207031 307.5 108.277344 308.816406 110.382812 310.078125 C 112.488281 311.339844 114.625 312.546875 116.789062 313.707031 C 118.957031 314.863281 121.148438 315.964844 123.367188 317.015625 C 125.585938 318.066406 127.828125 319.058594 130.097656 320 C 132.367188 320.9375 134.65625 321.820312 136.964844 322.648438 C 139.277344 323.476562 141.609375 324.246094 143.957031 324.957031 C 146.304688 325.671875 148.671875 326.324219 151.054688 326.921875 C 153.433594 327.519531 155.828125 328.054688 158.238281 328.535156 C 160.644531 329.015625 163.0625 329.433594 165.492188 329.792969 C 167.917969 330.152344 170.355469 330.453125 172.796875 330.695312 C 175.242188 330.9375 177.6875 331.117188 180.140625 331.238281 C 182.589844 331.355469 185.046875 331.417969 187.5 331.417969 C 189.953125 331.417969 192.410156 331.355469 194.859375 331.238281 C 197.3125 331.117188 199.757812 330.9375 202.203125 330.695312 C 204.644531 330.453125 207.082031 330.152344 209.507812 329.792969 C 211.9375 329.433594 214.355469 329.015625 216.761719 328.535156 C 219.171875 328.054688 221.566406 327.519531 223.945312 326.921875 C 226.328125 326.324219 228.695312 325.671875 231.042969 324.957031 C 233.390625 324.246094 235.722656 323.476562 238.035156 322.648438 C 240.34375 321.820312 242.632812 320.9375 244.902344 320 C 247.171875 319.058594 249.414062 318.066406 251.632812 317.015625 C 253.851562 315.964844 256.042969 314.863281 258.210938 313.707031 C 260.375 312.546875 262.511719 311.339844 264.617188 310.078125 C 266.722656 308.816406 268.792969 307.5 270.835938 306.136719 C 272.875 304.773438 274.882812 303.359375 276.855469 301.898438 C 278.828125 300.4375 280.761719 298.925781 282.660156 297.367188 C 284.554688 295.8125 286.414062 294.207031 288.234375 292.558594 C 290.050781 290.910156 291.832031 289.21875 293.566406 287.484375 C 295.300781 285.746094 296.992188 283.96875 298.644531 282.152344 C 300.292969 280.332031 301.894531 278.472656 303.453125 276.578125 C 305.007812 274.679688 306.519531 272.742188 307.980469 270.773438 C 309.445312 268.800781 310.855469 266.792969 312.21875 264.753906 C 313.585938 262.710938 314.898438 260.636719 316.160156 258.53125 C 317.421875 256.425781 318.632812 254.292969 319.789062 252.125 C 320.945312 249.960938 322.046875 247.769531 323.097656 245.550781 C 324.148438 243.332031 325.140625 241.089844 326.082031 238.820312 C 327.019531 236.550781 327.90625 234.261719 328.730469 231.949219 C 329.558594 229.640625 330.328125 227.308594 331.039062 224.960938 C 331.753906 222.609375 332.40625 220.246094 333.003906 217.863281 C 333.601562 215.484375 334.140625 213.089844 334.617188 210.679688 C 335.097656 208.273438 335.515625 205.855469 335.875 203.425781 C 336.238281 201 336.535156 198.5625 336.777344 196.121094 C 337.019531 193.675781 337.199219 191.230469 337.320312 188.777344 C 337.441406 186.324219 337.5 183.871094 337.5 181.417969 C 337.5 178.960938 337.441406 176.507812 337.320312 174.058594 C 337.199219 171.605469 337.019531 169.15625 336.777344 166.714844 C 336.535156 164.273438 336.238281 161.835938 335.875 159.40625 C 335.515625 156.980469 335.097656 154.5625 334.617188 152.152344 C 334.140625 149.746094 333.601562 147.351562 333.003906 144.96875 C 332.40625 142.589844 331.753906 140.222656 331.039062 137.875 C 330.328125 135.527344 329.558594 133.195312 328.730469 130.882812 C 327.90625 128.574219 327.019531 126.28125 326.082031 124.015625 C 325.140625 121.746094 324.148438 119.503906 323.097656 117.285156 C 322.046875 115.066406 320.945312 112.871094 319.789062 110.707031 C 318.632812 108.542969 317.421875 106.40625 316.160156 104.300781 C 314.898438 102.195312 313.585938 100.121094 312.21875 98.082031 C 310.855469 96.039062 309.445312 94.035156 307.980469 92.0625 C 306.519531 90.089844 305.007812 88.15625 303.453125 86.257812 C 301.894531 84.359375 300.292969 82.503906 298.644531 80.683594 C 296.992188 78.863281 295.300781 77.085938 293.566406 75.351562 C 291.832031 73.617188 290.050781 71.921875 288.234375 70.273438 C 286.414062 68.625 284.554688 67.023438 282.660156 65.464844 C 280.761719 63.910156 278.828125 62.398438 276.855469 60.9375 C 274.882812 59.472656 272.875 58.0625 270.835938 56.695312 C 268.792969 55.332031 266.722656 54.019531 264.617188 52.757812 C 262.511719 51.496094 260.375 50.285156 258.210938 49.128906 C 256.042969 47.972656 253.851562 46.867188 251.632812 45.820312 C 249.414062 44.769531 247.171875 43.773438 244.902344 42.835938 C 242.632812 41.894531 240.34375 41.011719 238.035156 40.1875 C 235.722656 39.359375 233.390625 38.589844 231.042969 37.875 C 228.695312 37.164062 226.328125 36.507812 223.945312 35.914062 C 221.566406 35.316406 219.171875 34.777344 216.761719 34.300781 C 214.355469 33.820312 211.9375 33.402344 209.507812 33.039062 C 207.082031 32.679688 204.644531 32.378906 202.203125 32.140625 C 199.757812 31.898438 197.3125 31.71875 194.859375 31.597656 C 192.410156 31.476562 189.953125 31.417969 187.5 31.417969 Z M 187.5 31.417969 "/><path style=" stroke:none;fill-rule:nonzero;fill:rgb(100%,100%,100%);fill-opacity:1;" d="M 187.5 101.734375 C 186.097656 101.734375 184.695312 101.765625 183.292969 101.835938 C 181.890625 101.90625 180.492188 102.007812 179.09375 102.144531 C 177.695312 102.285156 176.304688 102.457031 174.914062 102.660156 C 173.527344 102.867188 172.144531 103.105469 170.769531 103.382812 C 169.390625 103.65625 168.023438 103.960938 166.660156 104.304688 C 165.296875 104.644531 163.945312 105.019531 162.601562 105.425781 C 161.261719 105.832031 159.925781 106.273438 158.605469 106.746094 C 157.285156 107.21875 155.976562 107.722656 154.679688 108.261719 C 153.382812 108.796875 152.097656 109.367188 150.828125 109.96875 C 149.5625 110.566406 148.308594 111.199219 147.070312 111.859375 C 145.832031 112.523438 144.609375 113.214844 143.40625 113.933594 C 142.203125 114.65625 141.015625 115.40625 139.851562 116.1875 C 138.683594 116.96875 137.535156 117.773438 136.410156 118.609375 C 135.28125 119.449219 134.175781 120.3125 133.089844 121.203125 C 132.003906 122.089844 130.941406 123.007812 129.902344 123.949219 C 128.863281 124.894531 127.847656 125.859375 126.855469 126.855469 C 125.859375 127.847656 124.894531 128.863281 123.949219 129.902344 C 123.007812 130.941406 122.089844 132.003906 121.203125 133.089844 C 120.3125 134.175781 119.449219 135.28125 118.609375 136.410156 C 117.773438 137.535156 116.96875 138.683594 116.1875 139.851562 C 115.40625 141.015625 114.65625 142.203125 113.933594 143.40625 C 113.214844 144.609375 112.523438 145.832031 111.859375 147.070312 C 111.199219 148.308594 110.566406 149.5625 109.96875 150.828125 C 109.367188 152.097656 108.796875 153.382812 108.261719 154.679688 C 107.722656 155.976562 107.21875 157.285156 106.746094 158.605469 C 106.273438 159.925781 105.832031 161.261719 105.425781 162.601562 C 105.019531 163.945312 104.644531 165.296875 104.304688 166.660156 C 103.960938 168.023438 103.65625 169.390625 103.382812 170.769531 C 103.105469 172.144531 102.867188 173.527344 102.660156 174.914062 C 102.457031 176.304688 102.285156 177.695312 102.144531 179.09375 C 102.007812 180.492188 101.90625 181.890625 101.835938 183.292969 C 101.765625 184.695312 101.734375 186.097656 101.734375 187.5 C 101.734375 188.902344 101.765625 190.304688 101.835938 191.707031 C 101.90625 193.109375 102.007812 194.507812 102.144531 195.90625 C 102.285156 197.304688 102.457031 198.695312 102.660156 200.085938 C 102.867188 201.472656 103.105469 202.855469 103.382812 204.230469 C 103.65625 205.609375 103.960938 206.976562 104.304688 208.339844 C 104.644531 209.703125 105.019531 211.054688 105.425781 212.398438 C 105.832031 213.738281 106.273438 215.074219 106.746094 216.394531 C 107.21875 217.714844 107.722656 219.023438 108.261719 220.320312 C 108.796875 221.617188 109.367188 222.902344 109.96875 224.171875 C 110.566406 225.4375 111.199219 226.691406 111.859375 227.929688 C 112.523438 229.167969 113.214844 230.390625 113.933594 231.59375 C 114.65625 232.796875 115.40625 233.984375 116.1875 235.148438 C 116.96875 236.316406 117.773438 237.464844 118.609375 238.589844 C 119.449219 239.71875 120.3125 240.824219 121.203125 241.910156 C 122.089844 242.996094 123.007812 244.058594 123.949219 245.097656 C 124.894531 246.136719 125.859375 247.152344 126.855469 248.144531 C 127.847656 249.140625 128.863281 250.105469 129.902344 251.050781 C 130.941406 251.992188 132.003906 252.910156 133.089844 253.796875 C 134.175781 254.6875 135.28125 255.550781 136.410156 256.386719 C 137.535156 257.226562 138.683594 258.03125 139.851562 258.8125 C 141.015625 259.59375 142.203125 260.34375 143.40625 261.066406 C 144.609375 261.785156 145.832031 262.476562 147.070312 263.140625 C 148.308594 263.800781 149.5625 264.433594 150.828125 265.03125 C 152.097656 265.632812 153.382812 266.203125 154.679688 266.738281 C 155.976562 267.277344 157.285156 267.78125 158.605469 268.253906 C 159.925781 268.726562 161.261719 269.167969 162.601562 269.574219 C 163.945312 269.980469 165.296875 270.355469 166.660156 270.695312 C 168.023438 271.039062 169.390625 271.34375 170.769531 271.617188 C 172.144531 271.894531 173.527344 272.132812 174.914062 272.339844 C 176.304688 272.542969 177.695312 272.714844 179.09375 272.855469 C 180.492188 272.992188 181.890625 273.09375 183.292969 273.164062 C 184.695312 273.234375 186.097656 273.265625 187.5 273.265625 C 188.902344 273.265625 190.304688 273.234375 191.707031 273.164062 C 193.109375 273.09375 194.507812 272.992188 195.90625 272.855469 C 197.304688 272.714844 198.695312 272.542969 200.085938 272.339844 C 201.472656 272.132812 202.855469 271.894531 204.230469 271.617188 C 205.609375 271.34375 206.976562 271.039062 208.339844 270.695312 C 209.703125 270.355469 211.054688 269.980469 212.398438 269.574219 C 213.738281 269.167969 215.074219 268.726562 216.394531 268.253906 C 217.714844 267.78125 219.023438 267.277344 220.320312 266.738281 C 221.617188 266.199219 222.902344 265.632812 224.171875 265.03125 C 225.4375 264.433594 226.691406 263.800781 227.929688 263.140625 C 229.167969 262.476562 230.390625 261.785156 231.59375 261.066406 C 232.796875 260.34375 233.984375 259.59375 235.148438 258.8125 C 236.316406 258.03125 237.464844 257.226562 238.589844 256.386719 C 239.71875 255.550781 240.824219 254.6875 241.910156 253.796875 C 242.996094 252.910156 244.058594 251.992188 245.097656 251.050781 C 246.136719 250.105469 247.152344 249.140625 248.144531 248.144531 C 249.140625 247.152344 250.105469 246.136719 251.050781 245.097656 C 251.992188 244.058594 252.910156 242.996094 253.796875 241.910156 C 254.6875 240.824219 255.550781 239.71875 256.386719 238.589844 C 257.226562 237.464844 258.03125 236.316406 258.8125 235.148438 C 259.59375 233.984375 260.34375 232.796875 261.066406 231.59375 C 261.785156 230.390625 262.476562 229.167969 263.140625 227.929688 C 263.800781 226.691406 264.433594 225.4375 265.03125 224.171875 C 265.632812 222.902344 266.203125 221.617188 266.738281 220.320312 C 267.277344 219.023438 267.78125 217.714844 268.253906 216.394531 C 268.726562 215.074219 269.167969 213.738281 269.574219 212.398438 C 269.980469 211.054688 270.355469 209.703125 270.695312 208.339844 C 271.039062 206.976562 271.34375 205.609375 271.617188 204.230469 C 271.894531 202.855469 272.132812 201.472656 272.339844 200.085938 C 272.542969 198.695312 272.714844 197.304688 272.855469 195.90625 C 272.992188 194.507812 273.09375 193.109375 273.164062 191.707031 C 273.234375 190.304688 273.265625 188.902344 273.265625 187.5 C 273.265625 186.097656 273.234375 184.695312 273.164062 183.292969 C 273.09375 181.890625 272.992188 180.492188 272.855469 179.09375 C 272.714844 177.695312 272.542969 176.304688 272.339844 174.914062 C 272.132812 173.527344 271.894531 172.144531 271.617188 170.769531 C 271.34375 169.390625 271.039062 168.023438 270.695312 166.660156 C 270.355469 165.296875 269.980469 163.945312 269.574219 162.601562 C 269.167969 161.261719 268.726562 159.925781 268.253906 158.605469 C 267.78125 157.285156 267.277344 155.976562 266.738281 154.679688 C 266.203125 153.382812 265.632812 152.097656 265.03125 150.828125 C 264.433594 149.5625 263.800781 148.308594 263.140625 147.070312 C 262.476562 145.832031 261.785156 144.609375 261.066406 143.40625 C 260.34375 142.203125 259.59375 141.015625 258.8125 139.851562 C 258.03125 138.683594 257.226562 137.535156 256.386719 136.410156 C 255.550781 135.28125 254.6875 134.175781 253.796875 133.089844 C 252.910156 132.003906 251.992188 130.941406 251.050781 129.902344 C 250.105469 128.863281 249.140625 127.847656 248.144531 126.855469 C 247.152344 125.859375 246.136719 124.894531 245.097656 123.949219 C 244.058594 123.007812 242.996094 122.089844 241.910156 121.203125 C 240.824219 120.3125 239.71875 119.449219 238.589844 118.609375 C 237.464844 117.773438 236.316406 116.96875 235.148438 116.1875 C 233.984375 115.40625 232.796875 114.65625 231.59375 113.933594 C 230.390625 113.214844 229.167969 112.523438 227.929688 111.859375 C 226.691406 111.199219 225.4375 110.566406 224.171875 109.96875 C 222.902344 109.367188 221.617188 108.796875 220.320312 108.261719 C 219.023438 107.722656 217.714844 107.21875 216.394531 106.746094 C 215.074219 106.273438 213.738281 105.832031 212.398438 105.425781 C 211.054688 105.019531 209.703125 104.644531 208.339844 104.304688 C 206.976562 103.960938 205.609375 103.65625 204.230469 103.382812 C 202.855469 103.105469 201.472656 102.867188 200.085938 102.660156 C 198.695312 102.457031 197.304688 102.285156 195.90625 102.144531 C 194.507812 102.007812 193.109375 101.90625 191.707031 101.835938 C 190.304688 101.765625 188.902344 101.734375 187.5 101.734375 Z M 187.5 101.734375 "/><g style="fill:rgb(0%,0%,0%);fill-opacity:1;"><g transform="translate(108.650146, 178.350763)"><path style="stroke:none;" d="M 1.8125 -40.984375 L 12.640625 -40.984375 C 15.921875 -40.984375 18.257812 -39.921875 19.65625 -37.796875 C 21.050781 -35.679688 21.75 -32.59375 21.75 -28.53125 C 21.75 -24.457031 21.128906 -21.382812 19.890625 -19.3125 C 18.648438 -17.25 16.425781 -16.21875 13.21875 -16.21875 L 9.875 -16.21875 L 9.875 0 L 1.8125 0 Z M 10.34375 -23.609375 C 11.332031 -23.609375 12.054688 -23.789062 12.515625 -24.15625 C 12.984375 -24.519531 13.285156 -25.046875 13.421875 -25.734375 C 13.566406 -26.421875 13.640625 -27.398438 13.640625 -28.671875 C 13.640625 -30.390625 13.445312 -31.628906 13.0625 -32.390625 C 12.6875 -33.148438 11.925781 -33.53125 10.78125 -33.53125 L 9.875 -33.53125 L 9.875 -23.609375 Z M 10.34375 -23.609375 "/></g></g><g style="fill:rgb(0%,0%,0%);fill-opacity:1;"><g transform="translate(131.162378, 178.350763)"><path style="stroke:none;" d="M 8.015625 0.375 C 5.304688 0.375 3.453125 -0.519531 2.453125 -2.3125 C 1.453125 -4.113281 0.953125 -6.679688 0.953125 -10.015625 C 0.953125 -12.753906 1.304688 -14.851562 2.015625 -16.3125 C 2.734375 -17.78125 3.726562 -18.851562 5 -19.53125 C 6.28125 -20.21875 8.222656 -20.972656 10.828125 -21.796875 L 13.125 -22.5625 L 13.125 -26.140625 C 13.125 -27.066406 12.9375 -27.773438 12.5625 -28.265625 C 12.195312 -28.753906 11.765625 -29 11.265625 -29 C 10.816406 -29 10.425781 -28.789062 10.09375 -28.375 C 9.757812 -27.96875 9.59375 -27.414062 9.59375 -26.71875 L 9.59375 -24.609375 L 1.484375 -24.609375 L 1.484375 -25.765625 C 1.484375 -29.191406 2.285156 -31.632812 3.890625 -33.09375 C 5.492188 -34.5625 8.109375 -35.296875 11.734375 -35.296875 C 14.628906 -35.296875 16.984375 -34.539062 18.796875 -33.03125 C 20.609375 -31.519531 21.515625 -29.382812 21.515625 -26.625 L 21.515625 0 L 13.21875 0 L 13.21875 -4.15625 C 12.800781 -2.71875 12.140625 -1.601562 11.234375 -0.8125 C 10.328125 -0.0195312 9.253906 0.375 8.015625 0.375 Z M 11.3125 -6.109375 C 11.945312 -6.109375 12.398438 -6.367188 12.671875 -6.890625 C 12.941406 -7.421875 13.078125 -8.066406 13.078125 -8.828125 L 13.078125 -18.5625 C 11.828125 -18.082031 10.90625 -17.472656 10.3125 -16.734375 C 9.726562 -16.003906 9.4375 -14.988281 9.4375 -13.6875 L 9.4375 -9.203125 C 9.4375 -7.140625 10.0625 -6.109375 11.3125 -6.109375 Z M 11.3125 -6.109375 "/></g></g><g style="fill:rgb(0%,0%,0%);fill-opacity:1;"><g transform="translate(154.199254, 178.350763)"><path style="stroke:none;" d="M 11.0625 5.109375 C 8.582031 5.109375 6.632812 4.90625 5.21875 4.5 C 3.800781 4.101562 2.410156 3.347656 1.046875 2.234375 L 3.90625 -2.578125 C 5.945312 -1.367188 7.96875 -0.765625 9.96875 -0.765625 C 11.269531 -0.765625 12.253906 -1.175781 12.921875 -2 C 13.585938 -2.832031 13.921875 -3.960938 13.921875 -5.390625 L 13.921875 -7.296875 C 13.253906 -4.910156 11.492188 -3.71875 8.640625 -3.71875 C 6.253906 -3.71875 4.492188 -4.53125 3.359375 -6.15625 C 2.234375 -7.78125 1.671875 -9.941406 1.671875 -12.640625 L 1.671875 -25.765625 C 1.671875 -28.847656 2.1875 -31.207031 3.21875 -32.84375 C 4.25 -34.476562 6.054688 -35.296875 8.640625 -35.296875 C 10.128906 -35.296875 11.3125 -34.921875 12.1875 -34.171875 C 13.0625 -33.429688 13.640625 -32.375 13.921875 -31 L 13.921875 -34.921875 L 22.46875 -34.921875 L 22.46875 -5.921875 C 22.46875 -2.003906 21.5625 0.8125 19.75 2.53125 C 17.9375 4.25 15.039062 5.109375 11.0625 5.109375 Z M 11.96875 -10.015625 C 13.269531 -10.015625 13.921875 -11.191406 13.921875 -13.546875 L 13.921875 -26 C 13.921875 -26.695312 13.726562 -27.363281 13.34375 -28 C 12.96875 -28.632812 12.492188 -28.953125 11.921875 -28.953125 C 11.191406 -28.953125 10.695312 -28.6875 10.4375 -28.15625 C 10.1875 -27.632812 10.0625 -26.914062 10.0625 -26 L 10.0625 -13.546875 C 10.0625 -12.492188 10.1875 -11.640625 10.4375 -10.984375 C 10.695312 -10.335938 11.207031 -10.015625 11.96875 -10.015625 Z M 11.96875 -10.015625 "/></g></g><g style="fill:rgb(0%,0%,0%);fill-opacity:1;"><g transform="translate(178.237738, 178.350763)"><path style="stroke:none;" d="M 11.453125 0.375 C 7.859375 0.375 5.28125 -0.609375 3.71875 -2.578125 C 2.164062 -4.546875 1.390625 -7.488281 1.390625 -11.40625 L 1.390625 -25.421875 C 1.390625 -28.640625 2.3125 -31.085938 4.15625 -32.765625 C 6 -34.453125 8.570312 -35.296875 11.875 -35.296875 C 18.582031 -35.296875 21.9375 -32.003906 21.9375 -25.421875 L 21.9375 -22.890625 C 21.9375 -20.347656 21.90625 -18.285156 21.84375 -16.703125 L 9.734375 -16.703125 L 9.734375 -9.921875 C 9.734375 -8.710938 9.859375 -7.765625 10.109375 -7.078125 C 10.367188 -6.398438 10.910156 -6.0625 11.734375 -6.0625 C 12.367188 -6.0625 12.820312 -6.25 13.09375 -6.625 C 13.363281 -7.007812 13.519531 -7.445312 13.5625 -7.9375 C 13.613281 -8.4375 13.640625 -9.160156 13.640625 -10.109375 L 13.640625 -13.5 L 21.9375 -13.5 L 21.9375 -11.5 C 21.9375 -7.425781 21.148438 -4.425781 19.578125 -2.5 C 18.003906 -0.582031 15.296875 0.375 11.453125 0.375 Z M 13.640625 -20.84375 L 13.640625 -25.328125 C 13.640625 -27.835938 13.019531 -29.09375 11.78125 -29.09375 C 10.382812 -29.09375 9.6875 -27.835938 9.6875 -25.328125 L 9.6875 -20.84375 Z M 13.640625 -20.84375 "/></g></g><g style="fill:rgb(0%,0%,0%);fill-opacity:1;"><g transform="translate(201.513097, 178.350763)"><path style="stroke:none;" d="M 11.265625 0.375 C 4.359375 0.375 0.90625 -3.117188 0.90625 -10.109375 L 0.953125 -12.875 L 9.296875 -12.875 L 9.34375 -8.78125 C 9.34375 -7.945312 9.5 -7.316406 9.8125 -6.890625 C 10.132812 -6.460938 10.664062 -6.25 11.40625 -6.25 C 12.519531 -6.25 13.078125 -7.15625 13.078125 -8.96875 C 13.078125 -10.300781 12.8125 -11.347656 12.28125 -12.109375 C 11.757812 -12.878906 10.925781 -13.691406 9.78125 -14.546875 L 5.34375 -17.984375 C 3.8125 -19.160156 2.710938 -20.375 2.046875 -21.625 C 1.378906 -22.882812 1.046875 -24.660156 1.046875 -26.953125 C 1.046875 -28.734375 1.515625 -30.25 2.453125 -31.5 C 3.390625 -32.757812 4.632812 -33.707031 6.1875 -34.34375 C 7.75 -34.976562 9.488281 -35.296875 11.40625 -35.296875 C 18.175781 -35.296875 21.5625 -31.925781 21.5625 -25.1875 L 21.5625 -24.515625 L 12.921875 -24.515625 L 12.921875 -25.859375 C 12.921875 -26.679688 12.785156 -27.382812 12.515625 -27.96875 C 12.242188 -28.5625 11.789062 -28.859375 11.15625 -28.859375 C 10.582031 -28.859375 10.144531 -28.691406 9.84375 -28.359375 C 9.539062 -28.023438 9.390625 -27.570312 9.390625 -27 C 9.390625 -25.726562 9.882812 -24.742188 10.875 -24.046875 L 16.03125 -20.28125 C 17.875 -18.90625 19.285156 -17.414062 20.265625 -15.8125 C 21.253906 -14.207031 21.75 -12.179688 21.75 -9.734375 C 21.75 -6.484375 20.828125 -3.984375 18.984375 -2.234375 C 17.140625 -0.492188 14.566406 0.375 11.265625 0.375 Z M 11.265625 0.375 "/></g></g><g style="fill:rgb(0%,0%,0%);fill-opacity:1;"><g transform="translate(224.168414, 178.350763)"><path style="stroke:none;" d=""/></g></g><g style="fill:rgb(0%,0%,0%);fill-opacity:1;"><g transform="translate(235.329138, 178.350763)"><path style="stroke:none;" d="M 11.828125 0.375 C 4.867188 0.375 1.390625 -3.234375 1.390625 -10.453125 L 1.390625 -24.46875 C 1.390625 -27.78125 2.316406 -30.410156 4.171875 -32.359375 C 6.035156 -34.316406 8.585938 -35.296875 11.828125 -35.296875 C 15.078125 -35.296875 17.628906 -34.316406 19.484375 -32.359375 C 21.347656 -30.410156 22.28125 -27.78125 22.28125 -24.46875 L 22.28125 -10.453125 C 22.28125 -3.234375 18.796875 0.375 11.828125 0.375 Z M 11.828125 -6.0625 C 12.492188 -6.0625 12.984375 -6.296875 13.296875 -6.765625 C 13.617188 -7.242188 13.78125 -7.898438 13.78125 -8.734375 L 13.78125 -25.8125 C 13.78125 -27.84375 13.128906 -28.859375 11.828125 -28.859375 C 10.523438 -28.859375 9.875 -27.84375 9.875 -25.8125 L 9.875 -8.734375 C 9.875 -7.898438 10.03125 -7.242188 10.34375 -6.765625 C 10.664062 -6.296875 11.160156 -6.0625 11.828125 -6.0625 Z M 11.828125 -6.0625 "/></g></g><g style="fill:rgb(0%,0%,0%);fill-opacity:1;"><g transform="translate(259.033753, 178.350763)"><path style="stroke:none;" d="M 2.4375 -27.046875 L 0.953125 -27.046875 L 1 -33.390625 L 2.4375 -33.390625 L 2.4375 -35.78125 C 2.4375 -39.53125 4.3125 -41.40625 8.0625 -41.40625 C 9.84375 -41.40625 11.273438 -41.179688 12.359375 -40.734375 L 12.359375 -35.59375 C 12.035156 -35.6875 11.78125 -35.734375 11.59375 -35.734375 C 11.144531 -35.734375 10.859375 -35.570312 10.734375 -35.25 C 10.609375 -34.9375 10.546875 -34.460938 10.546875 -33.828125 L 10.546875 -33.390625 L 12.359375 -33.390625 L 12.359375 -26.953125 L 10.734375 -26.953125 L 10.734375 0 L 2.4375 0 Z M 2.4375 -27.046875 "/></g></g><g style="fill:rgb(0%,0%,0%);fill-opacity:1;"><g transform="translate(136.236082, 221.100761)"><path style="stroke:none;" d="M 1.8125 -40.984375 L 12.640625 -40.984375 C 15.921875 -40.984375 18.257812 -39.921875 19.65625 -37.796875 C 21.050781 -35.679688 21.75 -32.59375 21.75 -28.53125 C 21.75 -24.457031 21.128906 -21.382812 19.890625 -19.3125 C 18.648438 -17.25 16.425781 -16.21875 13.21875 -16.21875 L 9.875 -16.21875 L 9.875 0 L 1.8125 0 Z M 10.34375 -23.609375 C 11.332031 -23.609375 12.054688 -23.789062 12.515625 -24.15625 C 12.984375 -24.519531 13.285156 -25.046875 13.421875 -25.734375 C 13.566406 -26.421875 13.640625 -27.398438 13.640625 -28.671875 C 13.640625 -30.390625 13.445312 -31.628906 13.0625 -32.390625 C 12.6875 -33.148438 11.925781 -33.53125 10.78125 -33.53125 L 9.875 -33.53125 L 9.875 -23.609375 Z M 10.34375 -23.609375 "/></g></g><g style="fill:rgb(0%,0%,0%);fill-opacity:1;"><g transform="translate(158.748314, 221.100761)"><path style="stroke:none;" d="M 1.671875 -34.921875 L 10.015625 -34.921875 L 10.015625 -31.046875 C 10.429688 -32.421875 11.15625 -33.476562 12.1875 -34.21875 C 13.21875 -34.96875 14.5 -35.34375 16.03125 -35.34375 L 16.03125 -28.390625 C 14.851562 -28.390625 13.554688 -28.21875 12.140625 -27.875 C 10.722656 -27.539062 10.015625 -27.15625 10.015625 -26.71875 L 10.015625 0 L 1.671875 0 Z M 1.671875 -34.921875 "/></g></g><g style="fill:rgb(0%,0%,0%);fill-opacity:1;"><g transform="translate(175.155536, 221.100761)"><path style="stroke:none;" d="M 11.828125 0.375 C 4.867188 0.375 1.390625 -3.234375 1.390625 -10.453125 L 1.390625 -24.46875 C 1.390625 -27.78125 2.316406 -30.410156 4.171875 -32.359375 C 6.035156 -34.316406 8.585938 -35.296875 11.828125 -35.296875 C 15.078125 -35.296875 17.628906 -34.316406 19.484375 -32.359375 C 21.347656 -30.410156 22.28125 -27.78125 22.28125 -24.46875 L 22.28125 -10.453125 C 22.28125 -3.234375 18.796875 0.375 11.828125 0.375 Z M 11.828125 -6.0625 C 12.492188 -6.0625 12.984375 -6.296875 13.296875 -6.765625 C 13.617188 -7.242188 13.78125 -7.898438 13.78125 -8.734375 L 13.78125 -25.8125 C 13.78125 -27.84375 13.128906 -28.859375 11.828125 -28.859375 C 10.523438 -28.859375 9.875 -27.84375 9.875 -25.8125 L 9.875 -8.734375 C 9.875 -7.898438 10.03125 -7.242188 10.34375 -6.765625 C 10.664062 -6.296875 11.160156 -6.0625 11.828125 -6.0625 Z M 11.828125 -6.0625 "/></g></g><g style="fill:rgb(0%,0%,0%);fill-opacity:1;"><g transform="translate(198.86015, 221.100761)"><path style="stroke:none;" d="M 11.265625 0.375 C 4.359375 0.375 0.90625 -3.117188 0.90625 -10.109375 L 0.953125 -12.875 L 9.296875 -12.875 L 9.34375 -8.78125 C 9.34375 -7.945312 9.5 -7.316406 9.8125 -6.890625 C 10.132812 -6.460938 10.664062 -6.25 11.40625 -6.25 C 12.519531 -6.25 13.078125 -7.15625 13.078125 -8.96875 C 13.078125 -10.300781 12.8125 -11.347656 12.28125 -12.109375 C 11.757812 -12.878906 10.925781 -13.691406 9.78125 -14.546875 L 5.34375 -17.984375 C 3.8125 -19.160156 2.710938 -20.375 2.046875 -21.625 C 1.378906 -22.882812 1.046875 -24.660156 1.046875 -26.953125 C 1.046875 -28.734375 1.515625 -30.25 2.453125 -31.5 C 3.390625 -32.757812 4.632812 -33.707031 6.1875 -34.34375 C 7.75 -34.976562 9.488281 -35.296875 11.40625 -35.296875 C 18.175781 -35.296875 21.5625 -31.925781 21.5625 -25.1875 L 21.5625 -24.515625 L 12.921875 -24.515625 L 12.921875 -25.859375 C 12.921875 -26.679688 12.785156 -27.382812 12.515625 -27.96875 C 12.242188 -28.5625 11.789062 -28.859375 11.15625 -28.859375 C 10.582031 -28.859375 10.144531 -28.691406 9.84375 -28.359375 C 9.539062 -28.023438 9.390625 -27.570312 9.390625 -27 C 9.390625 -25.726562 9.882812 -24.742188 10.875 -24.046875 L 16.03125 -20.28125 C 17.875 -18.90625 19.285156 -17.414062 20.265625 -15.8125 C 21.253906 -14.207031 21.75 -12.179688 21.75 -9.734375 C 21.75 -6.484375 20.828125 -3.984375 18.984375 -2.234375 C 17.140625 -0.492188 14.566406 0.375 11.265625 0.375 Z M 11.265625 0.375 "/></g></g><g style="fill:rgb(0%,0%,0%);fill-opacity:1;"><g transform="translate(221.515468, 221.100761)"><path style="stroke:none;" d="M 11.453125 0.375 C 7.859375 0.375 5.28125 -0.609375 3.71875 -2.578125 C 2.164062 -4.546875 1.390625 -7.488281 1.390625 -11.40625 L 1.390625 -25.421875 C 1.390625 -28.640625 2.3125 -31.085938 4.15625 -32.765625 C 6 -34.453125 8.570312 -35.296875 11.875 -35.296875 C 18.582031 -35.296875 21.9375 -32.003906 21.9375 -25.421875 L 21.9375 -22.890625 C 21.9375 -20.347656 21.90625 -18.285156 21.84375 -16.703125 L 9.734375 -16.703125 L 9.734375 -9.921875 C 9.734375 -8.710938 9.859375 -7.765625 10.109375 -7.078125 C 10.367188 -6.398438 10.910156 -6.0625 11.734375 -6.0625 C 12.367188 -6.0625 12.820312 -6.25 13.09375 -6.625 C 13.363281 -7.007812 13.519531 -7.445312 13.5625 -7.9375 C 13.613281 -8.4375 13.640625 -9.160156 13.640625 -10.109375 L 13.640625 -13.5 L 21.9375 -13.5 L 21.9375 -11.5 C 21.9375 -7.425781 21.148438 -4.425781 19.578125 -2.5 C 18.003906 -0.582031 15.296875 0.375 11.453125 0.375 Z M 13.640625 -20.84375 L 13.640625 -25.328125 C 13.640625 -27.835938 13.019531 -29.09375 11.78125 -29.09375 C 10.382812 -29.09375 9.6875 -27.835938 9.6875 -25.328125 L 9.6875 -20.84375 Z M 13.640625 -20.84375 "/></g></g><g style="fill:rgb(0%,0%,0%);fill-opacity:1;"><g transform="translate(138.256483, 242.541445)"><path style="stroke:none;" d="M 3.1875 0.109375 C 2.632812 0.109375 2.132812 0.00390625 1.6875 -0.203125 C 1.25 -0.421875 0.898438 -0.734375 0.640625 -1.140625 C 0.390625 -1.554688 0.265625 -2.054688 0.265625 -2.640625 L 0.265625 -5.625 L 2.609375 -5.625 L 2.609375 -2.78125 C 2.609375 -2.570312 2.648438 -2.398438 2.734375 -2.265625 C 2.828125 -2.140625 2.96875 -2.078125 3.15625 -2.078125 C 3.332031 -2.078125 3.460938 -2.132812 3.546875 -2.25 C 3.640625 -2.375 3.6875 -2.539062 3.6875 -2.75 L 3.6875 -11.953125 L 6.09375 -11.953125 L 6.09375 -2.984375 C 6.09375 -2.367188 5.96875 -1.828125 5.71875 -1.359375 C 5.476562 -0.890625 5.132812 -0.523438 4.6875 -0.265625 C 4.25 -0.015625 3.75 0.109375 3.1875 0.109375 Z M 3.1875 0.109375 "/></g></g><g style="fill:rgb(0%,0%,0%);fill-opacity:1;"><g transform="translate(144.738599, 242.541445)"><path style="stroke:none;" d="M 2.34375 0.109375 C 1.550781 0.109375 1.007812 -0.148438 0.71875 -0.671875 C 0.425781 -1.191406 0.28125 -1.941406 0.28125 -2.921875 C 0.28125 -3.710938 0.382812 -4.320312 0.59375 -4.75 C 0.800781 -5.175781 1.085938 -5.488281 1.453125 -5.6875 C 1.828125 -5.894531 2.394531 -6.117188 3.15625 -6.359375 L 3.828125 -6.578125 L 3.828125 -7.625 C 3.828125 -7.894531 3.769531 -8.097656 3.65625 -8.234375 C 3.550781 -8.378906 3.425781 -8.453125 3.28125 -8.453125 C 3.15625 -8.453125 3.039062 -8.390625 2.9375 -8.265625 C 2.84375 -8.148438 2.796875 -7.988281 2.796875 -7.78125 L 2.796875 -7.171875 L 0.4375 -7.171875 L 0.4375 -7.515625 C 0.4375 -8.515625 0.664062 -9.226562 1.125 -9.65625 C 1.59375 -10.082031 2.359375 -10.296875 3.421875 -10.296875 C 4.265625 -10.296875 4.945312 -10.070312 5.46875 -9.625 C 6 -9.1875 6.265625 -8.566406 6.265625 -7.765625 L 6.265625 0 L 3.859375 0 L 3.859375 -1.203125 C 3.734375 -0.785156 3.535156 -0.460938 3.265625 -0.234375 C 3.003906 -0.00390625 2.695312 0.109375 2.34375 0.109375 Z M 3.296875 -1.78125 C 3.484375 -1.78125 3.613281 -1.851562 3.6875 -2 C 3.769531 -2.15625 3.8125 -2.347656 3.8125 -2.578125 L 3.8125 -5.40625 C 3.445312 -5.269531 3.175781 -5.09375 3 -4.875 C 2.832031 -4.664062 2.75 -4.367188 2.75 -3.984375 L 2.75 -2.6875 C 2.75 -2.082031 2.929688 -1.78125 3.296875 -1.78125 Z M 3.296875 -1.78125 "/></g></g><g style="fill:rgb(0%,0%,0%);fill-opacity:1;"><g transform="translate(151.457185, 242.541445)"><path style="stroke:none;" d="M 0.1875 0 L 0.1875 -1.484375 L 2.71875 -8.265625 L 0.3125 -8.265625 L 0.3125 -10.171875 L 5.25 -10.171875 L 5.25 -8.53125 L 2.84375 -1.828125 L 5.265625 -1.828125 L 5.265625 0 Z M 0.1875 0 "/></g></g><g style="fill:rgb(0%,0%,0%);fill-opacity:1;"><g transform="translate(156.826489, 242.541445)"><path style="stroke:none;" d="M 0.1875 0 L 0.1875 -1.484375 L 2.71875 -8.265625 L 0.3125 -8.265625 L 0.3125 -10.171875 L 5.25 -10.171875 L 5.25 -8.53125 L 2.84375 -1.828125 L 5.265625 -1.828125 L 5.265625 0 Z M 0.1875 0 "/></g></g><g style="fill:rgb(0%,0%,0%);fill-opacity:1;"><g transform="translate(162.195793, 242.541445)"><path style="stroke:none;" d=""/></g></g><g style="fill:rgb(0%,0%,0%);fill-opacity:1;"><g transform="translate(165.450756, 242.541445)"><path style="stroke:none;" d="M 0.53125 0 L 0.53125 -11.953125 L 4.171875 -11.953125 L 5.171875 -4.65625 L 6.171875 -11.953125 L 9.84375 -11.953125 L 9.84375 0 L 7.65625 0 L 7.65625 -8.609375 L 6.28125 0 L 4.140625 0 L 2.6875 -8.609375 L 2.6875 0 Z M 0.53125 0 "/></g></g><g style="fill:rgb(0%,0%,0%);fill-opacity:1;"><g transform="translate(175.827697, 242.541445)"><path style="stroke:none;" d="M 3.34375 0.109375 C 2.289062 0.109375 1.535156 -0.175781 1.078125 -0.75 C 0.628906 -1.320312 0.40625 -2.179688 0.40625 -3.328125 L 0.40625 -7.40625 C 0.40625 -8.34375 0.671875 -9.054688 1.203125 -9.546875 C 1.742188 -10.046875 2.5 -10.296875 3.46875 -10.296875 C 5.414062 -10.296875 6.390625 -9.332031 6.390625 -7.40625 L 6.390625 -6.671875 C 6.390625 -5.929688 6.382812 -5.328125 6.375 -4.859375 L 2.84375 -4.859375 L 2.84375 -2.890625 C 2.84375 -2.535156 2.878906 -2.257812 2.953125 -2.0625 C 3.023438 -1.863281 3.179688 -1.765625 3.421875 -1.765625 C 3.609375 -1.765625 3.738281 -1.816406 3.8125 -1.921875 C 3.894531 -2.035156 3.941406 -2.164062 3.953125 -2.3125 C 3.972656 -2.457031 3.984375 -2.671875 3.984375 -2.953125 L 3.984375 -3.9375 L 6.390625 -3.9375 L 6.390625 -3.34375 C 6.390625 -2.164062 6.160156 -1.296875 5.703125 -0.734375 C 5.242188 -0.171875 4.457031 0.109375 3.34375 0.109375 Z M 3.984375 -6.078125 L 3.984375 -7.390625 C 3.984375 -8.117188 3.800781 -8.484375 3.4375 -8.484375 C 3.03125 -8.484375 2.828125 -8.117188 2.828125 -7.390625 L 2.828125 -6.078125 Z M 3.984375 -6.078125 "/></g></g><g style="fill:rgb(0%,0%,0%);fill-opacity:1;"><g transform="translate(182.615828, 242.541445)"><path style="stroke:none;" d="M 3.34375 0.109375 C 2.289062 0.109375 1.535156 -0.175781 1.078125 -0.75 C 0.628906 -1.320312 0.40625 -2.179688 0.40625 -3.328125 L 0.40625 -7.40625 C 0.40625 -8.34375 0.671875 -9.054688 1.203125 -9.546875 C 1.742188 -10.046875 2.5 -10.296875 3.46875 -10.296875 C 5.414062 -10.296875 6.390625 -9.332031 6.390625 -7.40625 L 6.390625 -6.671875 C 6.390625 -5.929688 6.382812 -5.328125 6.375 -4.859375 L 2.84375 -4.859375 L 2.84375 -2.890625 C 2.84375 -2.535156 2.878906 -2.257812 2.953125 -2.0625 C 3.023438 -1.863281 3.179688 -1.765625 3.421875 -1.765625 C 3.609375 -1.765625 3.738281 -1.816406 3.8125 -1.921875 C 3.894531 -2.035156 3.941406 -2.164062 3.953125 -2.3125 C 3.972656 -2.457031 3.984375 -2.671875 3.984375 -2.953125 L 3.984375 -3.9375 L 6.390625 -3.9375 L 6.390625 -3.34375 C 6.390625 -2.164062 6.160156 -1.296875 5.703125 -0.734375 C 5.242188 -0.171875 4.457031 0.109375 3.34375 0.109375 Z M 3.984375 -6.078125 L 3.984375 -7.390625 C 3.984375 -8.117188 3.800781 -8.484375 3.4375 -8.484375 C 3.03125 -8.484375 2.828125 -8.117188 2.828125 -7.390625 L 2.828125 -6.078125 Z M 3.984375 -6.078125 "/></g></g><g style="fill:rgb(0%,0%,0%);fill-opacity:1;"><g transform="translate(189.40396, 242.541445)"><path style="stroke:none;" d="M 2.59375 0.109375 C 1.945312 0.109375 1.503906 -0.0195312 1.265625 -0.28125 C 1.023438 -0.550781 0.90625 -0.984375 0.90625 -1.578125 L 0.90625 -7.9375 L 0.21875 -7.9375 L 0.21875 -9.796875 L 0.90625 -9.796875 L 0.90625 -11.953125 L 3.265625 -11.953125 L 3.265625 -9.796875 L 3.96875 -9.796875 L 3.96875 -7.9375 L 3.265625 -7.9375 L 3.265625 -2.21875 C 3.265625 -2.039062 3.273438 -1.910156 3.296875 -1.828125 C 3.328125 -1.742188 3.40625 -1.703125 3.53125 -1.703125 C 3.625 -1.703125 3.710938 -1.707031 3.796875 -1.71875 C 3.878906 -1.726562 3.9375 -1.734375 3.96875 -1.734375 L 3.96875 -0.0625 C 3.820312 -0.03125 3.617188 0.00390625 3.359375 0.046875 C 3.097656 0.0859375 2.84375 0.109375 2.59375 0.109375 Z M 2.59375 0.109375 "/></g></g><g style="fill:rgb(0%,0%,0%);fill-opacity:1;"><g transform="translate(193.646547, 242.541445)"><path style="stroke:none;" d="M 3.28125 0.109375 C 1.269531 0.109375 0.265625 -0.910156 0.265625 -2.953125 L 0.28125 -3.75 L 2.71875 -3.75 L 2.71875 -2.5625 C 2.71875 -2.320312 2.765625 -2.140625 2.859375 -2.015625 C 2.953125 -1.890625 3.109375 -1.828125 3.328125 -1.828125 C 3.648438 -1.828125 3.8125 -2.085938 3.8125 -2.609375 C 3.8125 -3.003906 3.734375 -3.3125 3.578125 -3.53125 C 3.421875 -3.75 3.175781 -3.984375 2.84375 -4.234375 L 1.5625 -5.25 C 1.113281 -5.582031 0.789062 -5.929688 0.59375 -6.296875 C 0.40625 -6.671875 0.3125 -7.191406 0.3125 -7.859375 C 0.3125 -8.378906 0.445312 -8.820312 0.71875 -9.1875 C 0.988281 -9.550781 1.347656 -9.828125 1.796875 -10.015625 C 2.253906 -10.203125 2.765625 -10.296875 3.328125 -10.296875 C 5.296875 -10.296875 6.28125 -9.3125 6.28125 -7.34375 L 6.28125 -7.140625 L 3.765625 -7.140625 L 3.765625 -7.53125 C 3.765625 -7.78125 3.722656 -7.988281 3.640625 -8.15625 C 3.566406 -8.320312 3.4375 -8.40625 3.25 -8.40625 C 3.082031 -8.40625 2.953125 -8.359375 2.859375 -8.265625 C 2.773438 -8.171875 2.734375 -8.039062 2.734375 -7.875 C 2.734375 -7.5 2.878906 -7.210938 3.171875 -7.015625 L 4.671875 -5.90625 C 5.210938 -5.507812 5.625 -5.078125 5.90625 -4.609375 C 6.195312 -4.140625 6.34375 -3.550781 6.34375 -2.84375 C 6.34375 -1.894531 6.070312 -1.164062 5.53125 -0.65625 C 5 -0.144531 4.25 0.109375 3.28125 0.109375 Z M 3.28125 0.109375 "/></g></g><g style="fill:rgb(0%,0%,0%);fill-opacity:1;"><g transform="translate(200.253851, 242.541445)"><path style="stroke:none;" d=""/></g></g><g style="fill:rgb(0%,0%,0%);fill-opacity:1;"><g transform="translate(203.508813, 242.541445)"><path style="stroke:none;" d="M 0.421875 0 L 0.421875 -11.953125 L 2.71875 -11.953125 L 2.71875 0 Z M 0.421875 0 "/></g></g><g style="fill:rgb(0%,0%,0%);fill-opacity:1;"><g transform="translate(206.66641, 242.541445)"><path style="stroke:none;" d="M 0.484375 -10.171875 L 2.921875 -10.171875 L 2.921875 -8.890625 C 3.023438 -9.304688 3.203125 -9.644531 3.453125 -9.90625 C 3.703125 -10.164062 4.035156 -10.296875 4.453125 -10.296875 C 5.140625 -10.296875 5.644531 -10.082031 5.96875 -9.65625 C 6.300781 -9.238281 6.46875 -8.640625 6.46875 -7.859375 L 6.46875 0 L 4.078125 0 L 4.078125 -7.609375 C 4.078125 -7.828125 4.03125 -8.015625 3.9375 -8.171875 C 3.851562 -8.328125 3.71875 -8.40625 3.53125 -8.40625 C 3.28125 -8.40625 3.113281 -8.289062 3.03125 -8.0625 C 2.957031 -7.84375 2.921875 -7.539062 2.921875 -7.15625 L 2.921875 0 L 0.484375 0 Z M 0.484375 -10.171875 "/></g></g><g style="fill:rgb(0%,0%,0%);fill-opacity:1;"><g transform="translate(213.60756, 242.541445)"><path style="stroke:none;" d="M 2.484375 0.109375 C 1.890625 0.109375 1.441406 -0.03125 1.140625 -0.3125 C 0.835938 -0.59375 0.640625 -0.96875 0.546875 -1.4375 C 0.453125 -1.90625 0.40625 -2.503906 0.40625 -3.234375 L 0.4375 -7.828125 C 0.4375 -8.546875 0.617188 -9.132812 0.984375 -9.59375 C 1.347656 -10.0625 1.863281 -10.296875 2.53125 -10.296875 C 3.1875 -10.296875 3.675781 -10.078125 4 -9.640625 L 4 -12.015625 L 6.4375 -12.015625 L 6.4375 0 L 4 0 L 4 -1.078125 C 3.863281 -0.679688 3.675781 -0.382812 3.4375 -0.1875 C 3.207031 0.0078125 2.890625 0.109375 2.484375 0.109375 Z M 3.421875 -1.796875 C 3.660156 -1.796875 3.816406 -1.910156 3.890625 -2.140625 C 3.960938 -2.378906 4 -2.695312 4 -3.09375 L 4 -7.359375 C 4 -7.648438 3.957031 -7.894531 3.875 -8.09375 C 3.789062 -8.300781 3.644531 -8.40625 3.4375 -8.40625 C 3.195312 -8.40625 3.035156 -8.3125 2.953125 -8.125 C 2.878906 -7.9375 2.84375 -7.679688 2.84375 -7.359375 L 2.84375 -3.078125 C 2.84375 -2.222656 3.035156 -1.796875 3.421875 -1.796875 Z M 3.421875 -1.796875 "/></g></g><g style="fill:rgb(0%,0%,0%);fill-opacity:1;"><g transform="translate(220.534794, 242.541445)"><path style="stroke:none;" d="M 0.46875 -10.859375 L 0.46875 -12.5625 L 2.90625 -12.5625 L 2.90625 -10.859375 Z M 0.46875 0 L 0.46875 -10.171875 L 2.90625 -10.171875 L 2.90625 0 Z M 0.46875 0 "/></g></g><g style="fill:rgb(0%,0%,0%);fill-opacity:1;"><g transform="translate(223.914955, 242.541445)"><path style="stroke:none;" d="M 3.34375 0.109375 C 2.289062 0.109375 1.535156 -0.175781 1.078125 -0.75 C 0.628906 -1.320312 0.40625 -2.179688 0.40625 -3.328125 L 0.40625 -7.40625 C 0.40625 -8.34375 0.671875 -9.054688 1.203125 -9.546875 C 1.742188 -10.046875 2.5 -10.296875 3.46875 -10.296875 C 5.414062 -10.296875 6.390625 -9.332031 6.390625 -7.40625 L 6.390625 -6.671875 C 6.390625 -5.929688 6.382812 -5.328125 6.375 -4.859375 L 2.84375 -4.859375 L 2.84375 -2.890625 C 2.84375 -2.535156 2.878906 -2.257812 2.953125 -2.0625 C 3.023438 -1.863281 3.179688 -1.765625 3.421875 -1.765625 C 3.609375 -1.765625 3.738281 -1.816406 3.8125 -1.921875 C 3.894531 -2.035156 3.941406 -2.164062 3.953125 -2.3125 C 3.972656 -2.457031 3.984375 -2.671875 3.984375 -2.953125 L 3.984375 -3.9375 L 6.390625 -3.9375 L 6.390625 -3.34375 C 6.390625 -2.164062 6.160156 -1.296875 5.703125 -0.734375 C 5.242188 -0.171875 4.457031 0.109375 3.34375 0.109375 Z M 3.984375 -6.078125 L 3.984375 -7.390625 C 3.984375 -8.117188 3.800781 -8.484375 3.4375 -8.484375 C 3.03125 -8.484375 2.828125 -8.117188 2.828125 -7.390625 L 2.828125 -6.078125 Z M 3.984375 -6.078125 "/></g></g></g></svg>