<svg height="512pt" viewBox="-101 0 512 512" width="512pt" xmlns="http://www.w3.org/2000/svg"><path d="m296.621094 446.71875v65.28125h-286.226563v-65.28125c0-28.050781 22.734375-50.785156 50.773438-50.785156h184.667969c28.050781 0 50.785156 22.734375 50.785156 50.785156zm0 0" fill="#3b485b"/><path d="m296.621094 446.71875v65.28125h-268.828125v-65.28125c0-28.050781 22.734375-50.785156 50.785156-50.785156h167.257813c28.050781 0 50.785156 22.734375 50.785156 50.785156zm0 0" fill="#515f75"/><path d="m62.601562 395.941406-3.082031 78.09375 32.828125 8.210938-29.472656 29.472656h181.261719l-29.472657-29.472656 32.828126-8.210938-3.082032-78.09375" fill="#3b485b"/><path d="m216.089844 395.941406-33.066406 116.054688h-59.03125l-33.066407-116.054688" fill="#f2f2f2"/><path d="m113.0625 424.433594 40.445312 50.628906 40.046876-50.4375-40.046876-7.484375z" fill="#f74866"/><path d="m109.507812 461.140625 44-44 44.003907 44 18.578125-65.199219h-125.164063zm0 0" fill="#e6e6e6"/><path d="m191.128906 330.734375v65.210937l-37.621094 21.195313-11.621093-6.546875-25.996094-14.648438v-65.25l25.996094.011719zm0 0" fill="#f9c2af"/><path d="m124.199219 511.996094 29.308593-36.933594 29.515626 36.933594" fill="#f74866"/><path d="m141.886719 330.707031-26-.011719v65.246094l26 14.652344v-30.171875c3.839843.378906 7.730469.59375 11.671875.59375 13.132812 0 25.773437-2.144531 37.570312-6.105469v-44.175781zm0 0" fill="#ea9e8f"/><path d="m35.46875 262.082031c-19.589844 0-35.46875-14.214843-35.46875-31.75 0-17.535156 15.878906-31.75 35.46875-31.75h236.1875c19.589844 0 35.46875 14.214844 35.46875 31.75 0 17.535157-15.878906 31.75-35.46875 31.75" fill="#ea9e8f"/><path d="m271.660156 129.089844v118.101562c0 65.21875-52.871094 118.09375-118.101562 118.09375-32.601563 0-62.136719-13.222656-83.503906-34.589844-21.367188-21.367187-34.585938-50.898437-34.585938-83.503906v-118.101562zm0 0" fill="#f9c2af"/><path d="m152.722656 365.28125c-32.28125-.21875-61.472656-13.394531-82.667968-34.582031-21.371094-21.378907-34.585938-50.894531-34.585938-83.507813v-118.097656h53.167969v118.097656c0 32.613282 7.261719 62.128906 19.011719 83.507813 11.570312 21.039062 27.476562 34.171875 45.074218 34.582031zm0 0" fill="#ea9e8f"/><path d="m195.570312 245.902344c-4.324218 0-7.832031-3.503906-7.832031-7.832032v-16.410156c0-4.324218 3.507813-7.832031 7.832031-7.832031 4.328126 0 7.835938 3.507813 7.835938 7.832031v16.410156c0 4.328126-3.507812 7.832032-7.835938 7.832032zm0 0" fill="#293544"/><path d="m111.550781 245.902344c-4.324219 0-7.832031-3.503906-7.832031-7.832032v-16.410156c0-4.324218 3.507812-7.832031 7.832031-7.832031 4.328125 0 7.832031 3.507813 7.832031 7.832031v16.410156c0 4.328126-3.503906 7.832032-7.832031 7.832032zm0 0" fill="#293544"/><path d="m271.660156 129.089844v29.597656c-8.09375 5.796875-17.773437 10.882812-29.269531 15.027344-42.796875 15.414062-84.226563 10.222656-113.519531 2.058594 0 0-.011719 0-.011719-.011719-25.519531-7.101563-41.832031-16.480469-41.832031-16.480469s-10.769532 51.832031-51.558594 51.832031v-82.023437zm0 0" fill="#ea9e8f"/><path d="m242.382812 161.183594c-42.789062 15.417968-84.214843 10.226562-113.515624 2.0625 0 0-.011719 0-.011719-.011719-25.515625-7.109375-41.828125-16.488281-41.828125-16.488281s-10.769532 51.832031-51.5625 51.832031c0 0-27.132813-48.003906-26.285156-92.417969.441406-23.03125 19.433593-40.253906 41.019531-40.253906 4.03125 0 8.15625.59375 12.257812 1.875 11.5625-31.042969 42.105469-50.691406 75.171875-48.679688 5.148438.320313 10.328125.730469 15.53125 1.199219.996094.085938 2 .175781 2.996094.269531.101562.007813.203125.019532.308594.027344 53.972656 5.070313 108.644531 14.941406 140.765625-20.597656 0 0 53.089843 122.300781-54.847657 161.183594zm0 0" fill="#515f75"/><path d="m137.628906 19.101562c5.148438.320313 10.332032.730469 15.53125 1.199219-47.621094-2.007812-85.460937 102.871094-24.304687 142.933594-25.515625-7.109375-41.828125-16.488281-41.828125-16.488281s-10.769532 51.832031-51.5625 51.832031c0 0-27.132813-48.003906-26.285156-92.417969.441406-23.03125 19.433593-40.253906 41.019531-40.253906 4.03125 0 8.15625.59375 12.257812 1.875 11.5625-31.042969 42.105469-50.6875 75.171875-48.679688zm0 0" fill="#3b485b"/><path d="m156.484375 20.609375c-.113281-.019531-.214844-.027344-.328125-.039063.101562.011719.203125.019532.308594.03125zm0 0" fill="#f4af9d"/><path d="m153.5625 308.660156c-12.5 0-24.996094-4.757812-34.511719-14.273437-3.058593-3.058594-3.058593-8.015625 0-11.074219 3.058594-3.058594 8.019531-3.058594 11.078125 0 12.917969 12.921875 33.945313 12.921875 46.867188 0 3.058594-3.058594 8.019531-3.058594 11.074218 0 3.058594 3.058594 3.058594 8.015625 0 11.074219-9.511718 9.515625-22.011718 14.273437-34.507812 14.273437zm0 0" fill="#e06e86"/></svg>